<svg width="1295" height="692" viewBox="0 0 1295 692" fill="none" xmlns="http://www.w3.org/2000/svg">
<path d="M1295 649.214C1288.92 654.693 1282.52 659.81 1275.83 664.54C1259.98 675.7 1242.84 684.919 1224.79 692C1149.78 690.194 1039.5 680.984 900.304 676.073C889.922 672.521 879.302 668.677 868.447 664.54C854.082 659.062 839.304 653.042 824.113 646.481C761.023 619.202 696.249 601.469 632.089 590.874C618.301 588.599 604.55 586.649 590.835 585.024C301.108 550.352 33.927 652.224 2.98365 664.54H0L19.0328 627.653L342.879 0L418.613 194.57L442.783 256.678L509.398 165.208L543.794 117.98L700.436 297.682L744.709 199.843L1051.23 450.153L1068.33 464.106L1085.63 478.24L1091.14 482.742L1255.01 616.565L1295 649.214Z" fill="#F2F2F2"/>
<path opacity="0.6" d="M311 140.675L342.452 72L386 172L348.5 99.7108L311 140.675Z" fill="black"/>
<path d="M418 480.402L372.968 424.253C370.923 426.119 368.404 427.388 365.685 427.922C357.208 429.588 348.928 423.812 347.193 415.02C346.595 412.113 346.804 409.097 347.798 406.3C348.791 403.502 350.532 401.028 352.831 399.145L337.477 380L250 454.598L330.523 555L418 480.402Z" fill="#F2F2F2"/>
<path d="M361.5 425C368.404 425 374 419.404 374 412.5C374 405.596 368.404 400 361.5 400C354.596 400 349 405.596 349 412.5C349 419.404 354.596 425 361.5 425Z" fill="#F2F2F2"/>
<path d="M282.52 468.98L278.646 473.463L291.696 484.739L295.57 480.256L282.52 468.98Z" fill="#6C63FF"/>
<path d="M366.412 549.15L362.538 553.633L374.106 563.629L377.98 559.146L366.412 549.15Z" fill="#6C63FF"/>
<path d="M387 515.998V516.345C386.992 517.217 386.967 518.085 386.925 518.949C386.173 533.736 379.793 547.676 369.094 557.911C358.395 568.146 344.186 573.902 329.379 573.999C314.573 574.096 300.29 568.526 289.458 558.432C278.625 548.337 272.064 534.482 271.118 519.706C271.04 518.479 271 517.243 271 515.998C270.979 503.985 274.708 492.266 281.665 482.474C282.221 481.684 282.8 480.91 283.401 480.15C283.815 479.621 284.241 479.104 284.672 478.591C294.462 466.993 308.409 459.693 323.521 458.26C338.632 456.826 353.703 461.371 365.501 470.921C366.199 471.486 366.885 472.069 367.556 472.665C368.093 473.143 368.62 473.631 369.138 474.129C379.344 483.89 385.625 497.048 386.799 511.121C386.933 512.731 387 514.356 387 515.998Z" fill="#3F3D56"/>
<path d="M329.196 581C293.247 581 264 551.628 264 515.525C263.979 499.008 270.195 483.096 281.396 471L282.84 472.346C271.978 484.076 265.949 499.507 265.97 515.525C265.97 550.537 294.333 579.022 329.196 579.022C337.667 579.05 346.056 577.356 353.857 574.04C361.658 570.724 368.709 565.856 374.586 559.729L376 561.106C369.94 567.424 362.669 572.444 354.625 575.863C346.581 579.282 337.931 581.029 329.196 581Z" fill="#6C63FF"/>
<path d="M339 580H322V599H339V580Z" fill="#6C63FF"/>
<path d="M283.596 479.561C283.625 479.573 283.652 479.589 283.676 479.609C283.993 479.866 283.596 480.36 283.644 480.767C283.7 481.289 284.406 481.403 284.939 481.455C285.472 481.51 286.145 481.933 285.892 482.399C284.554 482.854 283.199 482.407 281.833 481.889C274.766 491.7 270.979 503.441 271 515.476C271 516.725 271.04 517.964 271.12 519.192C271.232 519.272 271.355 519.337 271.485 519.385C271.886 519.535 272.351 519.508 272.719 519.721C273.012 519.891 273.208 520.192 273.501 520.35C274.338 520.8 275.501 519.935 276.282 520.472C276.484 520.654 276.676 520.846 276.855 521.049C277.577 521.666 278.763 521.251 279.597 521.713C280.134 522.01 280.41 522.603 280.699 523.14C281.416 524.484 282.578 525.805 284.113 525.911C284.597 525.889 285.082 525.905 285.564 525.959C286.037 526.065 286.502 526.473 286.426 526.943C286.293 527.753 286.698 528.639 286.59 529.449C286.393 530.931 284.265 531.579 284.085 533.062C284.084 533.388 284.066 533.714 284.029 534.038C283.933 534.425 283.636 534.742 283.532 535.129C283.332 535.86 283.865 536.592 284.446 537.082C285.031 537.576 285.728 538.003 286.049 538.69C286.385 539.422 286.221 540.272 286.329 541.066C286.57 542.801 288.089 544.086 289.652 544.916C290.153 545.123 290.597 545.442 290.95 545.849C291.351 546.422 291.311 547.177 291.447 547.861C291.776 549.533 293.202 550.912 293.243 552.616C293.271 553.83 292.589 554.928 292.181 556.071C291.76 557.268 291.635 558.547 291.816 559.802C294.101 561.714 296.53 563.451 299.082 565C299.22 564.798 299.322 564.573 299.382 564.336C299.431 564.074 299.397 563.803 299.286 563.561C299.175 563.318 298.992 563.114 298.761 562.976C299.192 562.816 299.584 562.568 299.911 562.249C300.072 562.086 300.179 561.877 300.216 561.653C300.253 561.428 300.219 561.197 300.12 560.992C300.825 561.079 301.663 561.122 302.127 560.589C302.5 560.162 302.476 559.521 302.328 558.98C302.124 558.453 301.99 557.904 301.927 557.343C303.561 557.422 305.199 557.368 306.824 557.181C306.589 556.4 306.054 555.739 305.334 555.339C306.071 555.217 306.74 554.347 306.973 553.648C307.174 552.934 307.185 552.181 307.005 551.462C306.949 551.277 306.941 551.081 306.981 550.893C307.099 550.642 307.308 550.443 307.566 550.335C308.784 549.644 310.002 548.953 311.221 548.264C311.438 548.156 311.636 548.013 311.806 547.841C312.187 547.394 312.131 546.726 311.934 546.177C311.738 545.628 311.425 545.11 311.349 544.533C311.125 542.805 313 541.564 313.633 539.936C313.849 539.285 313.965 538.607 313.978 537.924C314.03 537.188 314.034 536.339 313.465 535.868C312.916 535.414 312.062 535.516 311.489 535.093C310.964 534.706 310.784 533.959 310.211 533.647C309.69 533.362 309.041 533.544 308.46 533.41C307.442 533.176 306.8 532.018 305.758 531.912C305.173 531.848 304.508 532.133 304.027 531.797C303.602 531.497 303.586 530.9 303.506 530.394C303.364 529.606 302.98 528.879 302.407 528.313C301.834 527.746 301.099 527.366 300.3 527.224C299.695 527.129 299.038 527.164 298.521 526.836C298 526.504 297.763 525.884 297.35 525.421C296.693 524.682 295.651 524.417 294.677 524.192C293.355 523.887 292.034 523.582 290.714 523.275C290.012 523.109 289.107 523.022 288.726 523.631C288.613 523.862 288.535 524.108 288.493 524.362C288.35 524.818 288.065 525.218 287.678 525.505C287.291 525.791 286.821 525.95 286.337 525.959C286.006 525.401 285.469 524.99 284.839 524.812C284.426 524.744 284.019 524.649 283.62 524.528C283.412 524.427 283.226 524.285 283.075 524.111C282.924 523.938 282.81 523.735 282.741 523.516C282.672 523.298 282.649 523.067 282.674 522.84C282.698 522.612 282.769 522.391 282.883 522.192C283.11 521.791 283.197 521.327 283.132 520.872C283.066 520.417 282.85 519.996 282.518 519.674C281.845 519.077 280.871 518.931 279.965 518.99C279.729 518.48 280.126 517.907 280.55 517.535C280.979 517.168 281.496 516.804 281.588 516.251C281.737 515.381 280.61 514.721 279.757 514.978C278.903 515.239 278.358 516.057 277.997 516.863C277.823 517.339 277.584 517.79 277.288 518.203C277.137 518.408 276.93 518.567 276.693 518.663C276.455 518.76 276.195 518.789 275.942 518.749C275.236 518.571 274.968 517.745 274.811 517.049C274.561 516.119 274.434 515.161 274.435 514.199C274.441 513.228 274.832 512.297 275.525 511.606C276.691 510.547 278.486 510.65 280.061 510.82C279.893 510.598 279.812 510.323 279.834 510.046C279.856 509.77 279.98 509.511 280.182 509.318C280.392 509.133 280.646 509.002 280.919 508.936C281.193 508.87 281.479 508.87 281.753 508.938C282.227 509.035 282.655 509.287 282.967 509.654C283.416 510.191 283.544 510.922 283.881 511.531C284.221 512.144 284.983 512.666 285.604 512.338C286.145 512.053 286.229 511.318 286.097 510.729C285.961 510.144 285.676 509.571 285.724 508.97C285.816 507.827 287.023 507.136 288.085 506.665C289.147 506.195 290.361 505.559 290.529 504.42C290.537 504.199 290.58 503.98 290.658 503.772C290.775 503.586 290.939 503.434 291.135 503.329C294.232 501.309 297.386 499.262 300.929 498.159C301.114 498.1 301.134 498.163 301.322 498.119C301.586 497.969 301.41 497.554 301.158 497.388C300.905 497.222 300.569 497.092 300.504 496.799C300.46 496.586 300.589 496.372 300.621 496.155C300.629 496.024 300.605 495.892 300.55 495.772C300.494 495.653 300.41 495.548 300.305 495.468C300.199 495.387 300.075 495.334 299.944 495.311C299.812 495.289 299.677 495.299 299.551 495.341C299.266 494.969 299.827 494.538 300.284 494.412C301.652 494.042 303.056 493.817 304.472 493.74C304.635 493.713 304.803 493.741 304.949 493.819C305.053 493.918 305.115 494.053 305.121 494.195C305.128 494.338 305.079 494.478 304.985 494.586C304.792 494.797 304.579 494.989 304.348 495.159C304.118 495.379 303.954 495.657 303.873 495.963C303.792 496.269 303.799 496.591 303.891 496.894C304.632 497.266 305.434 497.649 306.255 497.519C307.073 497.388 307.798 496.479 307.414 495.756C307.057 495.08 305.979 494.926 305.794 494.186C305.578 493.321 306.82 492.55 306.54 491.704C306.42 491.333 306.043 491.111 305.754 490.846C305.415 490.517 305.184 490.094 305.092 489.633C304.999 489.171 305.05 488.694 305.237 488.261C304.768 488.342 304.286 488.311 303.832 488.171C303.377 488.031 302.963 487.785 302.624 487.455C301.999 486.834 301.502 485.85 300.613 485.882C299.799 485.905 299.098 486.842 298.336 486.558C298.148 486.487 297.952 486.344 297.771 486.427C297.712 486.465 297.662 486.516 297.625 486.575C297.588 486.635 297.565 486.702 297.559 486.771C297.366 487.684 297.699 488.724 297.194 489.514C296.645 490.372 295.375 490.491 294.709 491.265C294.349 491.684 294.208 492.25 293.876 492.692C293.543 493.135 292.842 493.42 292.441 493.032C292.637 492.635 292.691 492.185 292.593 491.754C292.496 491.323 292.253 490.937 291.904 490.661C291.535 490.422 291.136 490.23 290.718 490.091C290.25 489.897 289.806 489.653 289.391 489.364C289.185 489.24 289.017 489.062 288.906 488.85C288.819 488.584 288.83 488.295 288.938 488.036C289.141 487.465 289.498 486.96 289.97 486.574C290.443 486.188 291.013 485.936 291.619 485.846C292.148 485.775 292.766 485.799 293.118 485.4C293.303 485.19 293.399 484.87 293.671 484.787C293.843 484.751 294.022 484.772 294.18 484.846C294.842 485.075 295.499 485.305 296.16 485.534C296.381 485.634 296.624 485.673 296.865 485.649C296.985 485.633 297.094 485.574 297.171 485.482C297.248 485.39 297.286 485.273 297.278 485.154C297.214 484.83 296.709 484.676 296.757 484.348C296.781 484.241 296.838 484.144 296.922 484.071C297.636 483.322 298.51 482.737 299.481 482.359C300.452 481.981 301.495 481.819 302.536 481.886C302.785 482.293 302.392 482.771 302.059 483.115C301.731 483.463 301.466 484.079 301.867 484.344C302.029 484.428 302.21 484.469 302.392 484.463C302.879 484.527 303.353 484.669 303.795 484.882C304.48 485.174 305.153 485.498 305.811 485.846C305.714 485.422 305.73 484.981 305.859 484.566C305.931 484.362 306.078 484.191 306.27 484.088C306.463 483.985 306.688 483.957 306.901 484.008C307.293 484.158 307.494 484.672 307.915 484.72C308.472 484.783 308.692 483.969 308.46 483.463C308.227 482.957 307.762 482.538 307.726 481.98C307.698 481.609 307.842 481.146 307.542 480.921C307.435 480.851 307.313 480.808 307.185 480.795C304.668 480.34 302.15 479.884 299.631 479.427C299.182 479.344 298.537 479.407 298.517 479.854C298.505 480.107 298.733 480.356 298.633 480.585C298.525 480.83 298.172 480.81 297.915 480.897C297.723 480.984 297.564 481.129 297.463 481.313C297.361 481.496 297.323 481.707 297.354 481.913C297.423 482.324 297.585 482.715 297.827 483.056C297.334 482.854 296.593 482.818 296.1 482.613C296.028 482.05 295.883 481.498 295.667 480.972C295.655 480.889 295.624 480.809 295.577 480.738C295.53 480.667 295.468 480.608 295.395 480.563C295.322 480.519 295.24 480.49 295.155 480.481C295.069 480.471 294.983 480.479 294.902 480.506C294.252 480.605 293.603 480.7 292.954 480.799C292.791 480.806 292.635 480.866 292.509 480.969C292.257 481.233 292.505 481.656 292.497 482.02C292.474 482.223 292.387 482.414 292.248 482.567C292.109 482.719 291.926 482.825 291.724 482.87C291.316 482.951 290.895 482.946 290.489 482.854C289.58 482.716 288.674 482.577 287.764 482.439C288.567 482.187 289.281 481.715 289.824 481.079C290.185 480.66 290.377 479.878 289.856 479.68C289.702 479.638 289.542 479.626 289.383 479.644C288.149 479.652 287.175 478.636 286.021 478.206C285.658 478.072 285.274 478.002 284.887 478L283.596 479.561Z" fill="#6C63FF"/>
<path d="M386.925 518.879C386.787 519.068 386.605 519.219 386.396 519.32C386.186 519.42 385.956 519.468 385.724 519.457C384.495 519.349 383.977 517.552 382.76 517.349C382.652 517.321 382.538 517.332 382.438 517.381C382.257 517.48 382.226 517.727 382.214 517.935C382.163 518.963 382.12 520.031 382.516 520.979C383.093 522.366 384.589 523.53 384.275 525C382.587 524.207 381.707 522.282 381.311 520.437C380.91 518.592 380.848 516.655 380.133 514.91C379.587 515.615 378.449 515.034 377.954 514.292C377.483 513.591 377.192 512.778 376.737 512.065C376.281 511.355 375.582 510.718 374.75 510.678C373.874 510.638 373.113 511.248 372.445 511.826C371.865 512.261 371.377 512.811 371.012 513.443C370.545 514.4 370.667 515.524 370.643 516.588C370.62 517.735 370.38 518.951 369.607 519.796C368.833 520.636 367.408 520.931 366.556 520.17C366.144 519.734 365.85 519.197 365.704 518.612C364.778 515.872 364.007 513.081 363.395 510.252C363.254 510.897 362.692 511.73 362.158 511.351C362.039 511.248 361.943 511.121 361.876 510.977C360.879 509.267 359.037 508.239 357.172 507.621C355.311 507.008 353.352 506.721 351.51 506.043C350.478 505.663 349.491 505.164 348.57 504.557C348.336 504.907 348.199 505.314 348.174 505.737C348.149 506.159 348.237 506.58 348.428 506.956C348.635 507.324 348.956 507.612 349.341 507.775C349.726 507.939 350.153 507.969 350.556 507.861C350.965 507.725 351.31 507.438 351.715 507.295C352.119 507.155 352.665 507.223 352.841 507.621C353.014 508 352.755 508.458 352.885 508.857C353.077 509.458 353.976 509.506 354.29 510.056C354.383 510.274 354.404 510.516 354.351 510.747C354.298 510.978 354.173 511.185 353.996 511.339C353.634 511.638 353.236 511.888 352.81 512.081C351.491 512.826 350.552 514.097 349.398 515.085C348.244 516.078 346.614 516.799 345.24 516.165C345.566 514.48 343.591 513.244 343.226 511.567C343.104 511.013 343.167 510.427 342.998 509.889C342.751 509.108 342.068 508.574 341.51 507.984C340.833 507.26 340.305 506.406 339.958 505.472C339.611 504.537 339.451 503.542 339.488 502.545C339.52 501.851 339.645 501.146 339.488 500.468C339.335 499.795 338.781 499.141 338.098 499.169C336.54 499.241 334.572 499.361 333.756 498.01C333.461 497.527 333.336 496.822 333.76 496.451C333.925 496.345 334.11 496.273 334.304 496.239C334.497 496.206 334.695 496.211 334.887 496.256C336.061 496.372 337.231 496.491 338.405 496.607C339.225 496.687 340.112 496.754 340.819 496.32C341.526 495.886 341.832 494.726 341.176 494.212C340.701 493.837 339.845 493.857 339.704 493.263C339.59 492.765 340.132 492.203 339.838 491.785C339.63 491.49 339.158 491.57 338.872 491.793C338.622 492.057 338.35 492.298 338.059 492.514C337.498 492.809 336.83 492.526 336.225 492.335C335.621 492.144 334.812 492.128 334.521 492.698C334.192 493.331 334.808 494.168 334.486 494.806C334.054 495.646 332.601 495.168 331.997 495.894C331.306 496.722 332.468 497.966 332.236 499.026C331.938 499.176 331.607 499.245 331.274 499.226C330.942 499.207 330.62 499.101 330.34 498.918C330.065 498.729 329.846 498.467 329.707 498.161C329.567 497.855 329.512 497.516 329.547 497.181C329.602 496.703 329.849 496.212 329.684 495.762C329.506 495.414 329.213 495.142 328.856 494.993C327.717 494.351 326.579 493.712 325.44 493.076C325.122 493.674 325.522 494.411 326.025 494.861C326.524 495.308 327.152 495.646 327.482 496.236C327.69 496.645 327.738 497.119 327.614 497.562C327.49 498.005 327.204 498.383 326.814 498.619C326.765 498.654 326.709 498.677 326.65 498.687C326.591 498.697 326.53 498.695 326.473 498.679C326.418 498.647 326.371 498.603 326.333 498.552C326.295 498.501 326.268 498.442 326.253 498.38C325.652 496.814 324.745 495.272 323.3 494.455C321.851 493.634 319.774 493.805 318.824 495.18C318.6 495.507 318.447 495.882 318.251 496.228C317.21 498.065 314.973 498.934 312.884 498.878C312.679 498.892 312.476 498.843 312.299 498.739C311.961 498.504 311.977 498.002 312.028 497.587C312.102 497.001 312.173 496.42 312.248 495.834C312.249 495.476 312.386 495.133 312.629 494.873C313.017 494.563 313.575 494.758 314.069 494.75C314.443 494.733 314.802 494.599 315.098 494.368C315.394 494.136 315.612 493.817 315.722 493.455C315.822 493.089 315.821 492.703 315.72 492.338C315.619 491.972 315.422 491.642 315.149 491.383C314.925 491.167 314.623 490.896 314.741 490.605C314.789 490.525 314.853 490.457 314.93 490.404C315.006 490.352 315.093 490.317 315.185 490.303C316.068 490.044 317.006 489.976 317.874 489.665C318.746 489.358 319.59 488.729 319.798 487.816C319.861 487.537 319.888 487.198 320.136 487.059C320.26 487.008 320.394 486.981 320.528 486.979C321 486.91 321.43 486.665 321.733 486.291C322.036 485.917 322.19 485.442 322.165 484.959C322.582 484.664 323.167 484.883 323.571 485.198C323.972 485.513 324.329 485.927 324.82 486.063C325.734 486.318 326.618 485.493 327.568 485.489C327.968 485.489 328.381 485.632 328.754 485.493C329.135 485.353 329.362 484.971 329.653 484.688C329.947 484.401 330.458 484.229 330.729 484.536C330.65 483.958 330.576 483.385 330.497 482.811C330.96 482.929 331.442 482.945 331.911 482.859C332.38 482.772 332.826 482.585 333.218 482.309C332.229 481.97 331.243 481.631 330.254 481.293C330.15 481.267 330.054 481.214 329.975 481.141C329.759 480.906 329.975 480.539 330.148 480.272C330.568 479.631 330.638 478.575 329.947 478.256C329.476 478.037 328.938 478.3 328.487 478.555C327.764 478.961 327.042 479.372 326.319 479.778C326.253 480.197 326.755 480.436 327.065 480.715C327.254 480.885 327.388 481.109 327.449 481.358C327.51 481.607 327.496 481.869 327.407 482.109C327.319 482.349 327.161 482.556 326.954 482.704C326.747 482.851 326.501 482.932 326.249 482.934C326.391 483.123 326.49 483.341 326.538 483.574C326.586 483.806 326.583 484.046 326.528 484.277C326.045 484.313 325.558 484.349 325.071 484.385C324.99 484.401 324.907 484.401 324.826 484.385C324.745 484.368 324.668 484.336 324.6 484.289C324.443 484.15 324.466 483.903 324.427 483.695C324.362 483.448 324.226 483.225 324.036 483.057C323.845 482.889 323.61 482.782 323.359 482.751C322.859 482.694 322.352 482.741 321.871 482.89C321.662 482.965 321.433 482.96 321.227 482.875C321.111 482.796 321.022 482.682 320.976 482.548C320.89 482.275 320.876 481.983 320.934 481.703C320.991 481.422 321.119 481.161 321.306 480.946C321.683 480.521 322.098 480.133 322.546 479.786C323.562 478.883 324.309 477.71 324.702 476.399C325.503 476.056 326.331 475.594 327.136 475.251C327.783 474.947 328.461 474.716 329.158 474.562C329.814 474.46 330.479 474.428 331.141 474.466C332.044 474.482 332.951 474.498 333.854 474.518C334.66 474.484 335.465 474.601 336.229 474.865C336.971 475.176 337.627 475.849 337.678 476.662C337.694 476.755 337.685 476.85 337.655 476.938C337.624 477.027 337.571 477.106 337.502 477.168C337.397 477.227 337.279 477.254 337.16 477.248C336.41 477.272 336.092 477.463 335.342 477.491C335.817 478.005 336.351 478.547 337.042 478.638C338.259 478.798 339.135 477.519 339.696 476.407C339.716 476.69 339.845 476.954 340.054 477.142C340.263 477.33 340.536 477.428 340.815 477.415C341.116 477.363 341.403 477.249 341.659 477.08C344.074 475.741 346.78 475.031 349.532 475.016C349.505 474.805 349.556 474.591 349.676 474.415C349.795 474.24 349.975 474.116 350.179 474.068C350.741 473.956 351.243 474.446 351.514 474.956C351.781 475.466 351.95 476.056 352.382 476.439C352.81 476.821 353.638 476.801 353.807 476.251C353.972 475.721 353.426 475.267 352.975 474.952C352.519 474.642 352.044 474.064 352.351 473.601C354.659 473.079 356.988 472.561 359.355 472.458C359.758 472.47 360.158 472.4 360.533 472.251C360.719 472.171 360.873 472.031 360.972 471.853C361.072 471.675 361.111 471.469 361.083 471.266C360.566 471.389 360.025 471.352 359.529 471.162C359.033 470.972 358.603 470.637 358.295 470.198C360.725 469.995 363.27 469.816 365.606 470.37L367.651 472.131C367.263 472.541 366.744 472.928 367.027 473.338C367.12 473.433 367.233 473.504 367.358 473.548C367.482 473.591 367.615 473.606 367.746 473.589C368.24 473.597 368.735 473.609 369.226 473.609C379.381 483.469 385.632 496.758 386.8 510.973C385.975 510.941 385.217 512.001 385.324 512.925C385.449 513.997 386.211 514.858 386.757 515.783C386.847 515.933 386.928 516.089 387 516.249L386.925 518.879Z" fill="#6C63FF"/>
<path d="M278 407C280.761 407 283 404.761 283 402C283 399.239 280.761 397 278 397C275.239 397 273 399.239 273 402C273 404.761 275.239 407 278 407Z" stroke="#3F3D56" stroke-width="2" stroke-miterlimit="10"/>
<path d="M426 503C428.761 503 431 500.761 431 498C431 495.239 428.761 493 426 493C423.239 493 421 495.239 421 498C421 500.761 423.239 503 426 503Z" stroke="#3F3D56" stroke-width="2" stroke-miterlimit="10"/>
<path d="M359.5 496C362.538 496 365 493.314 365 490C365 486.686 362.538 484 359.5 484C356.462 484 354 486.686 354 490C354 493.314 356.462 496 359.5 496Z" fill="#3F3D56"/>
<path d="M377.5 479C381.642 479 385 475.866 385 472C385 468.134 381.642 465 377.5 465C373.358 465 370 468.134 370 472C370 475.866 373.358 479 377.5 479Z" fill="white"/>
<path d="M384.815 463.954C382.81 462.029 380.111 460.967 377.311 461.001C374.512 461.035 371.84 462.163 369.885 464.136C365.813 468.246 360 489 360 489C360 489 380.928 482.764 385 478.654C386.955 476.681 388.034 474.023 387.999 471.267C387.965 468.51 386.819 465.879 384.815 463.954ZM373.846 475.025C373.153 474.36 372.676 473.507 372.476 472.575C372.275 471.643 372.36 470.673 372.719 469.789C373.079 468.904 373.696 468.144 374.494 467.605C375.292 467.066 376.234 466.772 377.202 466.76C378.169 466.748 379.119 467.019 379.93 467.539C380.741 468.058 381.378 468.803 381.759 469.678C382.14 470.554 382.249 471.521 382.072 472.458C381.895 473.395 381.44 474.259 380.765 474.941C379.858 475.855 378.62 476.378 377.323 476.394C376.025 476.41 374.775 475.917 373.846 475.025Z" fill="#57B894"/>
<path d="M319.205 284.627C317.754 281.435 317.595 277.871 318.756 274.579C319.917 271.288 322.322 268.487 325.537 266.681C326.607 266.084 325.629 264.535 324.553 265.136C320.866 267.157 318.114 270.349 316.818 274.107C315.522 277.866 315.773 281.93 317.522 285.531C318.014 286.586 319.694 285.676 319.205 284.627H319.205Z" fill="#3F3D56"/>
<path d="M319.428 286.631C316.589 282.199 317.257 276.894 318.278 272.101C319.344 267.097 320.742 262.017 319.533 256.928C318.984 254.457 317.686 252.164 315.776 250.291C314.857 249.411 313.371 250.725 314.288 251.603C317.859 255.02 318.273 259.978 317.694 264.381C317.01 269.574 315.074 274.634 315.315 279.911C315.378 282.588 316.165 285.213 317.61 287.567C317.756 287.771 317.986 287.916 318.251 287.974C318.517 288.031 318.797 287.995 319.033 287.873C319.268 287.752 319.442 287.554 319.515 287.323C319.589 287.091 319.558 286.843 319.428 286.631L319.428 286.631Z" fill="#3F3D56"/>
<path d="M333.225 301H301.775C301.039 300.999 300.334 300.704 299.814 300.179C299.293 299.654 299.001 298.942 299 298.2V288.879C299.003 286.484 299.947 284.187 301.626 282.494C303.304 280.8 305.58 279.847 307.954 279.844H312.567C312.812 279.844 313.047 279.746 313.22 279.571C313.394 279.396 313.491 279.159 313.492 278.911V274.556C313.492 274.143 313.655 273.748 313.944 273.456C314.233 273.165 314.625 273 315.033 273H319.967C320.375 273 320.767 273.165 321.056 273.456C321.345 273.748 321.508 274.143 321.508 274.556V278.911C321.509 279.159 321.606 279.396 321.78 279.571C321.953 279.746 322.188 279.844 322.433 279.844H327.046C329.42 279.847 331.696 280.8 333.374 282.494C335.053 284.187 335.997 286.484 336 288.879V298.2C335.999 298.942 335.707 299.654 335.186 300.179C334.666 300.704 333.961 300.999 333.225 301Z" fill="#CCCCCC"/>
<path d="M316.786 245.579C317.404 248.821 316.638 251.685 315.075 251.976C313.511 252.267 311.742 249.875 311.124 246.633C310.505 243.391 312.408 238 312.408 238C312.408 238 316.167 242.338 316.786 245.579Z" fill="#6C63FF"/>
<path d="M329.476 262.198C327.547 265.142 324.956 266.705 323.688 265.691C322.42 264.676 322.955 261.467 324.883 258.523C326.811 255.58 332 253 332 253C332 253 331.404 259.254 329.476 262.198Z" fill="#6C63FF"/>
<path d="M256 397H230V406H256V397Z" fill="#6C63FF"/>
<path d="M256 426H230V436H256V426Z" fill="#6C63FF"/>
<path d="M420 300H212V301H420V300Z" fill="#3F3D56"/>
<path d="M420 374H212V375H420V374Z" fill="#3F3D56"/>
<path d="M424 450H216V451H424V450Z" fill="#3F3D56"/>
<path d="M253.932 450H233.068C232.255 449.999 231.475 449.674 230.9 449.096C230.324 448.517 230.001 447.734 230 446.916V387.084C230.001 386.266 230.324 385.483 230.9 384.904C231.475 384.326 232.255 384.001 233.068 384H253.932C254.745 384.001 255.525 384.326 256.1 384.904C256.676 385.483 256.999 386.266 257 387.084V446.916C256.999 447.734 256.676 448.517 256.1 449.096C255.525 449.674 254.745 449.999 253.932 450ZM233.068 385.234C232.58 385.234 232.112 385.429 231.767 385.776C231.422 386.123 231.228 386.594 231.227 387.084V446.916C231.228 447.406 231.422 447.877 231.767 448.224C232.112 448.571 232.58 448.766 233.068 448.766H253.932C254.42 448.766 254.888 448.571 255.233 448.224C255.578 447.877 255.772 447.406 255.773 446.916V387.084C255.772 386.594 255.578 386.123 255.233 385.776C254.888 385.429 254.42 385.234 253.932 385.234H233.068Z" fill="#3F3D56"/>
<path d="M295 397H269V406H295V397Z" fill="#6C63FF"/>
<path d="M295 426H269V436H295V426Z" fill="#6C63FF"/>
<path d="M292.818 450H271.182C270.338 449.999 269.53 449.674 268.933 449.096C268.337 448.517 268.001 447.734 268 446.916V387.084C268.001 386.266 268.337 385.483 268.933 384.904C269.53 384.326 270.338 384.001 271.182 384H292.818C293.662 384.001 294.47 384.326 295.067 384.904C295.663 385.483 295.999 386.266 296 387.084V446.916C295.999 447.734 295.663 448.517 295.067 449.096C294.47 449.674 293.662 449.999 292.818 450ZM271.182 385.234C270.676 385.234 270.19 385.429 269.833 385.776C269.475 386.123 269.273 386.594 269.273 387.084V446.916C269.273 447.406 269.475 447.877 269.833 448.224C270.19 448.571 270.676 448.766 271.182 448.766H292.818C293.324 448.766 293.81 448.571 294.167 448.224C294.525 447.877 294.727 447.406 294.727 446.916V387.084C294.727 386.594 294.525 386.123 294.167 385.776C293.81 385.429 293.324 385.234 292.818 385.234H271.182Z" fill="#3F3D56"/>
<path d="M356 321H331V331H356V321Z" fill="#6C63FF"/>
<path d="M356 352H331V361H356V352Z" fill="#6C63FF"/>
<path d="M354.818 375H333.182C332.338 374.999 331.53 374.674 330.933 374.096C330.337 373.517 330.001 372.734 330 371.916V312.084C330.001 311.266 330.337 310.483 330.933 309.904C331.53 309.326 332.338 309.001 333.182 309H354.818C355.662 309.001 356.471 309.326 357.067 309.904C357.664 310.483 357.999 311.266 358 312.084V371.916C357.999 372.734 357.664 373.517 357.067 374.096C356.471 374.674 355.662 374.999 354.818 375ZM333.182 310.234C332.676 310.234 332.19 310.429 331.833 310.776C331.475 311.123 331.273 311.594 331.273 312.084V371.916C331.273 372.406 331.475 372.877 331.833 373.224C332.19 373.571 332.676 373.766 333.182 373.766H354.818C355.324 373.766 355.81 373.571 356.168 373.224C356.525 372.877 356.727 372.406 356.727 371.916V312.084C356.727 311.594 356.525 311.123 356.168 310.776C355.81 310.429 355.324 310.234 354.818 310.234H333.182Z" fill="#3F3D56"/>
<path d="M395 321H371V331H395V321Z" fill="#6C63FF"/>
<path d="M395 352H371V361H395V352Z" fill="#6C63FF"/>
<path d="M392.932 375H372.068C371.255 374.999 370.475 374.674 369.9 374.096C369.324 373.517 369.001 372.734 369 371.916V312.084C369.001 311.266 369.324 310.483 369.9 309.904C370.475 309.326 371.255 309.001 372.068 309H392.932C393.745 309.001 394.525 309.326 395.1 309.904C395.676 310.483 395.999 311.266 396 312.084V371.916C395.999 372.734 395.676 373.517 395.1 374.096C394.525 374.674 393.745 374.999 392.932 375ZM372.068 310.234C371.58 310.234 371.112 310.429 370.767 310.776C370.422 311.123 370.228 311.594 370.227 312.084V371.916C370.228 372.406 370.422 372.877 370.767 373.224C371.112 373.571 371.58 373.766 372.068 373.766H392.932C393.42 373.766 393.888 373.571 394.233 373.224C394.578 372.877 394.772 372.406 394.773 371.916V312.084C394.772 311.594 394.578 311.123 394.233 310.776C393.888 310.429 393.42 310.234 392.932 310.234H372.068Z" fill="#3F3D56"/>
<path d="M325.952 391.226L302.206 400.149L305.47 408.837L329.217 399.914L325.952 391.226Z" fill="#6C63FF"/>
<path d="M336.617 419.606L312.87 428.53L316.135 437.217L339.882 428.294L336.617 419.606Z" fill="#6C63FF"/>
<path d="M322.693 449C322.077 448.999 321.476 448.805 320.97 448.446C320.464 448.086 320.076 447.577 319.859 446.986L299.192 390.62C298.911 389.849 298.939 388.996 299.271 388.246C299.603 387.497 300.211 386.913 300.962 386.623L320.24 379.198C320.613 379.055 321.009 378.988 321.406 379.002C321.804 379.015 322.195 379.109 322.557 379.277C322.919 379.446 323.245 379.686 323.517 379.983C323.789 380.281 324.001 380.631 324.141 381.012L344.808 437.379C345.089 438.149 345.061 439.003 344.729 439.752C344.397 440.502 343.789 441.085 343.038 441.376H343.038L323.76 448.8C323.419 448.932 323.057 449 322.693 449ZM321.307 380.241C321.088 380.241 320.871 380.282 320.666 380.361L301.388 387.785C300.938 387.959 300.573 388.309 300.374 388.759C300.174 389.209 300.158 389.721 300.326 390.183L320.993 446.55C321.077 446.779 321.204 446.988 321.368 447.167C321.531 447.346 321.726 447.489 321.944 447.591C322.161 447.692 322.396 447.748 322.634 447.756C322.873 447.764 323.11 447.724 323.334 447.638L342.612 440.214C343.062 440.039 343.427 439.689 343.626 439.239C343.826 438.79 343.842 438.278 343.674 437.815L323.007 381.449C322.876 381.094 322.644 380.789 322.34 380.573C322.037 380.357 321.676 380.241 321.307 380.241Z" fill="#3F3D56"/>
<path d="M240.568 317.597L216.821 326.52L220.085 335.208L243.832 326.285L240.568 317.597Z" fill="#6C63FF"/>
<path d="M251.232 345.977L227.485 354.9L230.75 363.588L254.497 354.665L251.232 345.977Z" fill="#6C63FF"/>
<path d="M236.693 376C236.077 375.999 235.476 375.805 234.97 375.446C234.464 375.086 234.076 374.577 233.859 373.986L213.192 317.62C212.911 316.849 212.939 315.996 213.271 315.246C213.603 314.497 214.211 313.913 214.962 313.623L234.24 306.198C234.613 306.055 235.009 305.988 235.406 306.002C235.804 306.015 236.195 306.109 236.557 306.277C236.919 306.446 237.245 306.686 237.517 306.983C237.789 307.281 238.001 307.631 238.141 308.012L258.808 364.379C259.089 365.149 259.061 366.003 258.729 366.752C258.397 367.502 257.789 368.085 257.038 368.376H257.038L237.76 375.8C237.419 375.932 237.057 376 236.693 376ZM235.307 307.241C235.088 307.241 234.871 307.282 234.666 307.361L215.388 314.785C214.938 314.959 214.573 315.309 214.374 315.759C214.174 316.209 214.158 316.721 214.326 317.183L234.993 373.55C235.077 373.779 235.204 373.988 235.368 374.167C235.531 374.346 235.726 374.489 235.944 374.591C236.161 374.692 236.396 374.748 236.634 374.756C236.873 374.764 237.11 374.724 237.334 374.638L256.612 367.214C257.062 367.039 257.427 366.689 257.626 366.239C257.826 365.79 257.842 365.278 257.674 364.815L237.007 308.449C236.876 308.094 236.644 307.789 236.34 307.573C236.037 307.357 235.676 307.241 235.307 307.241Z" fill="#3F3D56"/>
<path d="M1014 328C1022.28 328 1029 321.284 1029 313C1029 304.716 1022.28 298 1014 298C1005.72 298 999 304.716 999 313C999 321.284 1005.72 328 1014 328Z" fill="#F2F2F2"/>
<path d="M1032 427H996V463H1032V427Z" fill="#F2F2F2"/>
<path d="M1161.5 265L1170.75 281L1180 297H1161.5H1143L1152.25 281L1161.5 265Z" fill="#F2F2F2"/>
<path d="M1259 360.115C1258.78 366.891 1257.13 372.323 1254.04 376.41C1250.95 380.497 1247.28 382.541 1243.03 382.541C1239.57 382.541 1236.53 380.541 1233.92 376.541C1231.32 372.541 1230.01 366.388 1230.01 358.082C1230.01 356.246 1230.06 354.497 1230.15 352.836C1230.23 351.175 1230.34 349.601 1230.47 348.115L1232.77 326.541H1217.59C1214.96 353.82 1212.8 370.049 1211.12 375.229C1209.43 380.41 1206.57 383 1202.54 383C1200.72 382.955 1198.98 382.23 1197.68 380.967C1196.92 380.297 1196.32 379.467 1195.92 378.537C1195.52 377.607 1195.34 376.6 1195.38 375.59C1195.38 373.58 1196.96 370.771 1200.14 367.164C1203.32 363.557 1205.08 360.268 1205.43 357.295L1209.38 326.541H1203C1201.2 326.552 1199.43 326.99 1197.84 327.82C1196.37 328.492 1195.1 329.517 1194.13 330.803L1191.3 335H1189C1191.15 328.356 1193.79 323.361 1196.92 320.016C1200.05 316.672 1203.66 315 1207.73 315H1257.95V326.541H1240.99C1240.46 331.787 1240.06 337.033 1239.77 342.279C1239.49 347.525 1239.35 352.792 1239.35 358.082C1239.35 361.667 1240.18 364.574 1241.85 366.803C1243.51 369.033 1245.59 370.148 1248.09 370.147C1249.62 370.147 1251.23 369.524 1252.92 368.278C1253.72 367.718 1254.39 366.991 1254.89 366.148C1255.38 365.305 1255.68 364.365 1255.78 363.393C1255.91 362.432 1256.01 361.678 1256.08 361.131C1256.14 360.585 1256.17 360.246 1256.17 360.115L1259 360.115Z" fill="#6C63FF"/>
<path opacity="0.1" d="M1259 360.115C1258.78 366.891 1257.13 372.323 1254.04 376.41C1250.95 380.497 1247.28 382.541 1243.03 382.541C1239.57 382.541 1236.53 380.541 1233.92 376.541C1231.32 372.541 1230.01 366.388 1230.01 358.082C1230.01 356.246 1230.06 354.497 1230.15 352.836C1230.23 351.175 1230.34 349.601 1230.47 348.115L1232.77 326.541H1217.59C1214.96 353.82 1212.8 370.049 1211.12 375.229C1209.43 380.41 1206.57 383 1202.54 383C1200.72 382.955 1198.98 382.23 1197.68 380.967C1196.92 380.297 1196.32 379.467 1195.92 378.537C1195.52 377.607 1195.34 376.6 1195.38 375.59C1195.38 373.58 1196.96 370.771 1200.14 367.164C1203.32 363.557 1205.08 360.268 1205.43 357.295L1209.38 326.541H1203C1201.2 326.552 1199.43 326.99 1197.84 327.82C1196.37 328.492 1195.1 329.517 1194.13 330.803L1191.3 335H1189C1191.15 328.356 1193.79 323.361 1196.92 320.016C1200.05 316.672 1203.66 315 1207.73 315H1257.95V326.541H1240.99C1240.46 331.787 1240.06 337.033 1239.77 342.279C1239.49 347.525 1239.35 352.792 1239.35 358.082C1239.35 361.667 1240.18 364.574 1241.85 366.803C1243.51 369.033 1245.59 370.148 1248.09 370.147C1249.62 370.147 1251.23 369.524 1252.92 368.278C1253.72 367.718 1254.39 366.991 1254.89 366.148C1255.38 365.305 1255.68 364.365 1255.78 363.393C1255.91 362.432 1256.01 361.678 1256.08 361.131C1256.14 360.585 1256.17 360.246 1256.17 360.115L1259 360.115Z" fill="black"/>
<path d="M1259 358.115C1258.78 364.891 1257.13 370.323 1254.04 374.41C1250.95 378.497 1247.28 380.541 1243.03 380.541C1239.57 380.541 1236.53 378.541 1233.92 374.541C1231.32 370.541 1230.01 364.388 1230.01 356.082C1230.01 354.246 1230.06 352.497 1230.15 350.836C1230.23 349.175 1230.34 347.601 1230.47 346.115L1232.77 324.541H1217.59C1214.96 351.82 1212.8 368.049 1211.12 373.229C1209.43 378.41 1206.57 381 1202.54 381C1200.72 380.955 1198.98 380.23 1197.68 378.967C1196.92 378.297 1196.32 377.467 1195.92 376.537C1195.52 375.607 1195.34 374.6 1195.38 373.59C1195.38 371.58 1196.96 368.771 1200.14 365.164C1203.32 361.557 1205.08 358.268 1205.43 355.295L1209.38 324.541H1203C1201.2 324.552 1199.43 324.99 1197.84 325.82C1196.37 326.492 1195.1 327.517 1194.13 328.803L1191.3 333H1189C1191.15 326.355 1193.79 321.361 1196.92 318.016C1200.05 314.672 1203.66 313 1207.73 313H1257.95V324.541H1240.99C1240.46 329.787 1240.06 335.033 1239.77 340.279C1239.49 345.525 1239.35 350.792 1239.35 356.082C1239.35 359.667 1240.18 362.574 1241.85 364.803C1243.51 367.033 1245.59 368.148 1248.09 368.147C1249.62 368.147 1251.23 367.524 1252.92 366.279C1253.72 365.718 1254.39 364.991 1254.89 364.148C1255.38 363.305 1255.68 362.365 1255.78 361.393C1255.91 360.432 1256.01 359.678 1256.08 359.131C1256.14 358.585 1256.17 358.246 1256.17 358.115H1259Z" fill="#6C63FF"/>
<path d="M869.454 602L738.966 601.366L726 571.086L771.847 567.772L763.856 534.573L854.536 522.87L767.703 492.814L775.373 491L915 513.681L907.311 565.491L896.32 593.964L869.454 602Z" fill="#6C63FF"/>
<path d="M741 588.137C741 588.137 749.125 586.731 754 592.937C754 592.937 750.425 595.981 742.733 591.766L741 588.137Z" fill="#6C63FF"/>
<path d="M739.476 588C739.476 588 735.63 594.624 737.524 602C737.524 602 740.658 600.244 741 591.302L739.476 588Z" fill="#6C63FF"/>
<path d="M735 578.026C735 578.026 738.2 572.172 751 580.366C751 580.366 749.293 584.301 743.64 583.982C737.987 583.663 736.493 581.11 735 578.026Z" fill="#6C63FF"/>
<path d="M734.269 578.006C734.269 578.006 727.642 577.271 727 591.94C727 591.94 731.201 592.782 734.185 588.142C737.169 583.503 735.945 580.9 734.269 578.006Z" fill="#6C63FF"/>
<path d="M731 566.207C731 566.207 734.673 556.638 748 563.445C748 563.445 744.957 572.225 732.364 569.462L731 566.207Z" fill="#6C63FF"/>
<path d="M726 550.791C726 550.791 733.213 540.529 746 550.043C746 550.043 741.519 559.677 727.093 554.441L726 550.791Z" fill="#6C63FF"/>
<path d="M725 535.335C725 535.335 733.384 525.581 746 535.335C746 535.335 738.051 543.893 725 537.826V535.335Z" fill="#6C63FF"/>
<path d="M723 520.601C723 520.601 731.667 510.613 744 520.069C744 520.069 734.222 528.888 723 522.938V520.601Z" fill="#6C63FF"/>
<path d="M724 508.717C724 508.717 732.833 496.677 744 504.836C744 504.836 734.538 515.185 724 511.006V508.717Z" fill="#6C63FF"/>
<path d="M726 493.88C726 493.88 735.255 480.714 746 490.808C746 490.808 735.043 502.219 726 496.294V493.88Z" fill="#6C63FF"/>
<path d="M729.479 480.475C729.479 480.475 740.439 468.288 750 473.143C750 473.143 738.58 486.086 729 483.709L729.479 480.475Z" fill="#6C63FF"/>
<path d="M732.901 468.156C732.901 468.156 745.608 452.962 753 458.037C753 458.037 743.638 469.822 732 471L732.901 468.156Z" fill="#6C63FF"/>
<path d="M738.512 453.322C738.512 453.322 749.773 441.542 758 444.467C758 444.467 748.366 456.687 737 457L738.512 453.322Z" fill="#6C63FF"/>
<path d="M743.529 439.477C743.529 439.477 755.706 428.259 761 430.233C761 430.233 752.212 442.696 743 441.969L743.529 439.477Z" fill="#6C63FF"/>
<path d="M749 426.617C749 426.617 759.351 413.003 765 414.058C765 414.058 758.723 426.195 749 428V426.617Z" fill="#6C63FF"/>
<path d="M754.365 409.797C754.365 409.797 763.217 399.979 768 400C768 400 761.013 413.12 754 412.999L754.365 409.797Z" fill="#6C63FF"/>
<path d="M757.128 398.932L765.997 377C765.997 377 766.439 396.825 756 403L757.128 398.932Z" fill="#6C63FF"/>
<path d="M761.056 374.169C761.056 374.169 762.417 356.443 761.542 355C761.542 355 767.418 369.738 761 382L761.056 374.169Z" fill="#6C63FF"/>
<path d="M729.866 566.062C729.866 566.062 720.236 560.811 714 573.658C714 573.658 722.571 578.664 731 569.339L729.866 566.062Z" fill="#6C63FF"/>
<path d="M725.96 549.895C725.96 549.895 714.54 544.675 709 559.445C709 559.445 717.822 565.528 727 553.629L725.96 549.895Z" fill="#6C63FF"/>
<path d="M724 536.335C724 536.335 716.015 526.581 704 536.335C704 536.335 711.57 544.893 724 538.826V536.335Z" fill="#6C63FF"/>
<path d="M723 520.601C723 520.601 714.746 510.613 703 520.069C703 520.069 712.312 528.888 723 522.938V520.601Z" fill="#6C63FF"/>
<path d="M724 509.232C724 509.232 718.013 494.127 705 500.623C705 500.623 712.034 514.016 723.469 511.739L724 509.232Z" fill="#6C63FF"/>
<path d="M727 494.089C727 494.089 721.094 478.781 708 485.878C708 485.878 716.019 499.909 726.418 496.452L727 494.089Z" fill="#6C63FF"/>
<path d="M731 481.019C731 481.019 728.706 464.481 718 463C718 463 720.271 480.441 729.559 484L731 481.019Z" fill="#6C63FF"/>
<path d="M733 468.232C733 468.232 732.082 448.682 723 448C723 448 723.306 462.839 731.976 471L733 468.232Z" fill="#6C63FF"/>
<path d="M740 453.051C740 453.051 737.145 436.965 728 435C728 435 729.134 450.578 739.094 457L740 453.051Z" fill="#6C63FF"/>
<path d="M745 439.897C745 439.897 744.912 423.42 739.737 421C739.737 421 736.528 435.917 743.501 442L745 439.897Z" fill="#6C63FF"/>
<path d="M749 426.86C749 426.86 748.309 409.453 743.202 407C743.202 407 741.455 420.776 748.236 428L749 426.86Z" fill="#6C63FF"/>
<path d="M755 411.199C755 411.199 754.97 397.268 751.224 394C751.224 394 747.5 409.26 753.044 414L755 411.199Z" fill="#6C63FF"/>
<path d="M756.801 398.717L752.604 375C752.604 375 746.902 394.434 757 403L756.801 398.717Z" fill="#6C63FF"/>
<path d="M757.334 374.692C757.334 374.692 747.808 358.769 748.003 357C748.003 357 749.016 373.688 761 382L757.334 374.692Z" fill="#6C63FF"/>
<path d="M758.295 370C758.295 370 749.829 347.797 746 346C746 346 758.093 352.449 759 369.366L758.295 370Z" fill="#6C63FF"/>
<path d="M753.606 413L753 412.813C760.468 388.141 762.33 372.41 758.248 368.465L758.681 368C763.011 372.162 761.254 387.721 753.606 413Z" fill="#444053"/>
<path d="M732.895 471L732 470.679C732.794 468.441 733.647 466.168 734.542 463.929C742.334 444.435 748.968 426.3 753.222 412.378L754 412C749.739 425.949 743.222 444.779 735.422 464.299C734.531 466.496 733.681 468.758 732.895 471Z" fill="#444053"/>
<path d="M752.046 607C751.925 606.867 739.749 593.051 731.26 569.467C726.286 555.659 723.517 541.143 723.058 526.461C722.475 508.108 726.298 487.616 732.846 469L733.557 469.839C718.857 511.62 724.697 547.422 732.445 568.982C740.843 592.353 752.883 606.016 753 606.153L752.046 607Z" fill="#444053"/>
<path d="M943 578C943 578 934.406 588.583 941.23 604.583L872.617 634.608L866.033 636L863 622.613L865.028 605.719V596.485L943 578Z" fill="#D5D6DB"/>
<path d="M726 571.246L821.052 554L947 573.969L868.771 602L726 571.246Z" fill="#6C63FF"/>
<path d="M726 571.246L821.052 554L947 573.969L868.771 602L726 571.246Z" fill="#6C63FF"/>
<path d="M725.594 571C725.594 571 716.665 587.858 726.955 603.429L868.546 634C868.546 634 859.758 620.571 869 601.932L725.594 571Z" fill="#6C63FF"/>
<path opacity="0.1" d="M725.594 571C725.594 571 716.665 587.858 726.955 603.429L868.546 634C868.546 634 859.758 620.571 869 601.932L725.594 571Z" fill="black"/>
<path opacity="0.1" d="M730 577C730 577 725.5 589.142 730 597V577Z" fill="black"/>
<path d="M868.488 633.845L947.477 601C947.477 601 951.895 601.928 949.039 605.082C946.182 608.237 870.011 637 870.011 637L727 603.969L868.488 633.845Z" fill="#6C63FF"/>
<path opacity="0.1" d="M868.488 633.845L947.477 601C947.477 601 951.895 601.928 949.039 605.082C946.182 608.237 870.011 637 870.011 637L727 603.969L868.488 633.845Z" fill="black"/>
<path opacity="0.1" d="M862 606C862 606 853 614.8 862 628V606Z" fill="black"/>
<path opacity="0.1" d="M898.94 605.444L864.746 616.852L864.867 617.214L899.061 605.806L898.94 605.444Z" fill="black"/>
<path opacity="0.1" d="M905.789 604.309L864.735 619.92L864.871 620.276L905.924 604.665L905.789 604.309Z" fill="black"/>
<path opacity="0.1" d="M912.079 604.254L864.965 623.539L865.109 623.891L912.224 604.607L912.079 604.254Z" fill="black"/>
<path opacity="0.1" d="M918.918 602.603L865.514 626.727L865.671 627.074L919.075 602.95L918.918 602.603Z" fill="black"/>
<path opacity="0.1" d="M924.665 602.611L865.937 628.28L866.09 628.63L924.817 602.96L924.665 602.611Z" fill="black"/>
<path opacity="0.1" d="M937.234 600.476L866.823 630.887L866.974 631.237L937.385 600.826L937.234 600.476Z" fill="black"/>
<path opacity="0.3" d="M761 572.806L828.114 559L869 566.649L814.005 584L761 572.806Z" fill="white"/>
<path d="M947.918 574C947.918 574 951.401 575.384 949.357 577.523C947.314 579.662 869 602 869 602L947.918 574Z" fill="#6C63FF"/>
<path d="M981 541C981 541 972.41 551.578 979.233 567.579L910.618 597.6L904.033 599L901 585.615L903.058 568.726V559.483L981 541Z" fill="#D5D6DB"/>
<path d="M764 534.242L859.048 517L985 536.969L906.771 565L764 534.242Z" fill="#3A3768"/>
<path d="M762.621 534C762.621 534 753.628 550.858 763.987 566.429L906.528 597C906.528 597 897.684 583.56 907 564.928L762.621 534Z" fill="#3A3768"/>
<path opacity="0.1" d="M762.621 534C762.621 534 753.628 550.858 763.987 566.429L906.528 597C906.528 597 897.684 583.56 907 564.928L861.924 555.271L762.621 534Z" fill="black"/>
<path opacity="0.1" d="M768 540C768 540 761.25 552.745 768 561V540Z" fill="black"/>
<path d="M906.487 597.758L985.48 564C985.48 564 989.894 564.954 987.038 568.196C984.182 571.438 908.011 601 908.011 601L765 567.052L906.487 597.758Z" fill="#3A3768"/>
<path opacity="0.1" d="M906.487 597.758L985.48 564C985.48 564 989.894 564.954 987.038 568.196C984.182 571.438 908.011 601 908.011 601L765 567.052L906.487 597.758Z" fill="black"/>
<path opacity="0.1" d="M900 569C900 569 893.25 578.2 900 592V569Z" fill="black"/>
<path opacity="0.1" d="M936.789 568.788L902.595 580.196L902.716 580.557L936.91 569.149L936.789 568.788Z" fill="black"/>
<path opacity="0.1" d="M943.642 567.651L902.589 583.262L902.724 583.618L943.778 568.007L943.642 567.651Z" fill="black"/>
<path opacity="0.1" d="M949.927 567.591L902.812 586.875L902.957 587.228L950.071 567.943L949.927 567.591Z" fill="black"/>
<path opacity="0.1" d="M956.771 565.94L903.367 590.064L903.524 590.411L956.928 566.287L956.771 565.94Z" fill="black"/>
<path opacity="0.1" d="M962.512 565.943L903.784 591.613L903.937 591.962L962.665 566.292L962.512 565.943Z" fill="black"/>
<path opacity="0.1" d="M975.084 563.808L904.673 594.22L904.824 594.57L975.235 564.158L975.084 563.808Z" fill="black"/>
<path opacity="0.45" d="M799 535.806L866.114 522L907 529.649L852.005 547L799 535.806Z" fill="white"/>
<path d="M985.919 537C985.919 537 989.399 538.385 987.359 540.52C985.318 542.655 907 565 907 565L985.919 537Z" fill="#3A3768"/>
<path d="M985 499C985 499 976.297 517.994 983.207 533.99L913.724 555.597L907.071 557L904 543.616L906.054 526.725V517.482L985 499Z" fill="#D5D6DB"/>
<path d="M767 493.246L862.48 476L989 495.969L910.415 524L767 493.246Z" fill="#6C63FF"/>
<path d="M767.605 493C767.605 493 758.66 509.858 768.95 525.429L910.535 556C910.535 556 901.746 542.56 911 523.932L767.605 493Z" fill="#6C63FF"/>
<path opacity="0.1" d="M767.605 493C767.605 493 758.66 509.858 768.95 525.429L910.535 556C910.535 556 901.746 542.56 911 523.932L767.605 493Z" fill="black"/>
<path opacity="0.1" d="M771 498C771 498 766.5 510.749 771 519V498Z" fill="black"/>
<path d="M910.122 555.753L989.466 530.348C989.466 530.348 993.903 531.303 991.034 534.551C988.165 537.798 911.652 559 911.652 559L768 525L910.122 555.753Z" fill="#6C63FF"/>
<path opacity="0.1" d="M910.122 555.753L989.466 530.348C989.466 530.348 993.903 531.303 991.034 534.551C988.165 537.798 911.652 559 911.652 559L768 525L910.122 555.753Z" fill="black"/>
<path opacity="0.1" d="M903 527C903 527 896.25 536.2 903 550V527Z" fill="black"/>
<path opacity="0.1" d="M940.388 526.847L906.194 538.255L906.315 538.617L940.509 527.209L940.388 526.847Z" fill="black"/>
<path opacity="0.1" d="M947.239 525.712L906.186 541.323L906.321 541.68L947.375 526.069L947.239 525.712Z" fill="black"/>
<path opacity="0.1" d="M953.52 525.654L906.406 544.939L906.55 545.291L953.664 526.007L953.52 525.654Z" fill="black"/>
<path opacity="0.1" d="M960.37 524L906.965 548.124L907.122 548.472L960.526 524.347L960.37 524Z" fill="black"/>
<path opacity="0.1" d="M966.112 524.007L907.385 549.677L907.537 550.026L966.265 524.356L966.112 524.007Z" fill="black"/>
<path opacity="0.1" d="M978.683 521.875L908.271 552.286L908.423 552.636L978.834 522.225L978.683 521.875Z" fill="black"/>
<path opacity="0.3" d="M803 494.358L870.114 480L911 487.955L856.005 506L803 494.358Z" fill="white"/>
<path d="M988.944 495C988.944 495 992.384 496.434 990.365 498.649C988.346 500.864 911 524 911 524L988.944 495Z" fill="#6C63FF"/>
<path d="M821.693 380.017C821.693 380.017 806.353 379.212 808.146 388.59C808.146 388.59 807.786 390.247 809.51 391C809.51 391 809.538 390.296 811.084 390.539C811.636 390.622 812.197 390.645 812.755 390.61C813.508 390.565 814.223 390.308 814.794 389.878C814.794 389.878 819.109 388.323 820.788 382.174C820.788 382.174 822.032 380.833 821.999 380.489L819.4 381.453C819.4 381.453 820.284 383.081 819.59 384.436C819.59 384.436 819.505 381.512 819.004 381.579C818.903 381.579 817.66 382.146 817.66 382.146C817.66 382.146 819.182 384.984 818.031 387.046C818.031 387.046 818.467 383.549 817.184 382.35L815.359 383.278C815.359 383.278 817.139 386.209 815.932 388.601C815.932 388.601 816.243 384.932 814.976 383.503L813.321 384.629C813.321 384.629 814.996 387.517 813.975 389.501C813.975 389.501 813.841 385.231 812.965 384.907C812.965 384.907 811.516 386.019 811.298 386.476C811.298 386.476 812.445 388.587 811.73 389.681C811.73 389.681 811.298 386.835 810.923 386.821C810.923 386.821 809.482 388.706 809.332 389.987C809.402 388.793 809.829 387.636 810.572 386.631C809.741 386.768 808.975 387.114 808.368 387.626C808.368 387.626 808.59 386.293 810.931 386.177C810.931 386.177 812.122 384.745 812.441 384.661C812.441 384.661 810.112 384.488 808.703 385.034C808.703 385.034 809.946 383.778 812.864 384.33L814.479 383.169C814.479 383.169 811.419 382.818 810.12 383.208C810.12 383.208 811.617 382.096 814.919 382.905L816.699 381.98C816.699 381.98 814.088 381.491 812.533 381.667C812.533 381.667 814.172 380.897 817.22 381.73L818.488 381.234C818.488 381.234 816.578 380.907 816.017 380.855C815.456 380.802 815.428 380.668 815.428 380.668C816.64 380.495 817.883 380.616 819.02 381.02C819.02 381.02 821.745 380.165 821.693 380.017Z" fill="#6C63FF"/>
<path opacity="0.1" d="M1024.73 422.017C1024.73 422.017 1010.47 421.212 1012.14 430.59C1012.14 430.59 1011.8 432.247 1013.4 433C1013.4 433 1013.43 432.296 1014.87 432.539C1015.38 432.62 1015.9 432.643 1016.42 432.61C1017.12 432.562 1017.77 432.305 1018.3 431.878C1018.3 431.878 1022.32 430.323 1023.87 424.174C1023.87 424.174 1025.03 422.833 1025 422.489L1022.59 423.453C1022.59 423.453 1023.41 425.081 1022.77 426.436C1022.77 426.436 1022.69 423.512 1022.23 423.579C1022.13 423.579 1020.97 424.146 1020.97 424.146C1020.97 424.146 1022.39 426.985 1021.32 429.046C1021.32 429.046 1021.73 425.549 1020.53 424.35L1018.83 425.278C1018.83 425.278 1020.49 428.209 1019.37 430.601C1019.37 430.601 1019.65 426.932 1018.48 425.503L1016.94 426.629C1016.94 426.629 1018.49 429.517 1017.54 431.501C1017.54 431.501 1017.42 427.231 1016.61 426.907C1016.61 426.907 1015.26 428.019 1015.06 428.476C1015.06 428.476 1016.12 430.587 1015.46 431.681C1015.46 431.681 1015.06 428.835 1014.71 428.821C1014.71 428.821 1013.37 430.706 1013.23 431.987C1013.3 430.793 1013.7 429.635 1014.39 428.631C1013.61 428.768 1012.9 429.114 1012.33 429.626C1012.33 429.626 1012.54 428.293 1014.72 428.177C1014.72 428.177 1015.83 426.745 1016.12 426.657C1016.12 426.657 1013.96 426.488 1012.65 427.034C1012.65 427.034 1013.8 425.778 1016.52 426.33L1018.02 425.169C1018.02 425.169 1015.17 424.818 1013.96 425.208C1013.96 425.208 1015.35 424.096 1018.43 424.905L1020.08 423.98C1020.08 423.98 1017.65 423.491 1016.2 423.667C1016.2 423.667 1017.73 422.897 1020.56 423.73L1021.74 423.234C1021.74 423.234 1019.97 422.907 1019.44 422.855C1018.92 422.802 1018.9 422.668 1018.9 422.668C1020.02 422.492 1021.18 422.614 1022.24 423.02C1022.24 423.02 1024.78 422.165 1024.73 422.017Z" fill="#6C63FF"/>
<path opacity="0.1" d="M846 442.896C846 442.896 839.688 429.075 831.653 435.887C831.653 435.887 829.919 436.499 830.003 438.419C830.003 438.419 830.67 438.053 831.146 439.535C831.324 440.058 831.56 440.558 831.848 441.024C832.238 441.656 832.812 442.136 833.483 442.393C833.483 442.393 836.94 445.284 843.53 443.311C843.53 443.311 845.371 443.645 845.672 443.412L843.568 441.693C843.568 441.693 842.425 443.371 840.832 443.52C840.832 443.52 843.561 441.817 843.267 441.423C843.206 441.342 842.124 440.565 842.124 440.565C842.124 440.565 840.138 443.476 837.66 443.625C837.66 443.625 841.167 442.055 841.708 440.263L839.993 439.192C839.993 439.192 838.038 442.381 835.221 442.663C835.221 442.663 838.834 440.887 839.6 438.987L837.778 438.182C837.778 438.182 835.816 441.25 833.468 441.471C833.468 441.471 837.447 438.971 837.348 438.025C837.348 438.025 835.629 437.389 835.095 437.449C835.095 437.449 833.639 439.619 832.267 439.619C832.267 439.619 834.756 437.65 834.603 437.332C834.603 437.332 832.156 437.131 830.868 437.735C832.029 437.126 833.321 436.848 834.615 436.93C834.102 436.283 833.421 435.809 832.656 435.565C832.656 435.565 834.02 435.017 835.206 436.986C835.206 436.986 837.111 437.224 837.336 437.453C837.336 437.453 836.425 435.335 835.263 434.414C835.263 434.414 837.024 434.788 837.828 437.634L839.677 438.407C839.677 438.407 838.613 435.541 837.634 434.635C837.634 434.635 839.372 435.315 840.13 438.661L841.823 439.692C841.823 439.692 841.087 437.143 840.203 435.891C840.203 435.891 841.685 436.89 842.299 440.006L843.355 440.835C843.355 440.835 842.783 438.987 842.592 438.472C842.402 437.956 842.497 437.852 842.497 437.852C843.222 438.808 843.682 439.958 843.824 441.173C843.824 441.173 845.863 443.017 846 442.896Z" fill="#6C63FF"/>
<path opacity="0.1" d="M992 403.005C992 403.005 985.692 390.568 977.653 396.698C977.653 396.698 975.923 397.249 976.003 398.977C976.003 398.977 976.674 398.651 977.146 399.98C977.324 400.454 977.561 400.905 977.851 401.324C978.24 401.892 978.813 402.323 979.483 402.553C979.483 402.553 982.944 405.154 989.53 403.382C989.53 403.382 991.371 403.679 991.676 403.469L989.583 401.919C989.583 401.919 988.44 403.433 986.851 403.567C986.851 403.567 989.576 402.031 989.282 401.676C989.221 401.603 988.139 400.904 988.139 400.904C988.139 400.904 986.157 403.523 983.675 403.657C983.675 403.657 987.186 402.245 987.727 400.636L985.985 399.68C985.985 399.68 984.034 402.545 981.213 402.802C981.213 402.802 984.827 401.201 985.596 399.491L983.771 398.767C983.771 398.767 981.808 401.531 979.464 401.727C979.464 401.727 983.439 399.477 983.34 398.629C983.34 398.629 981.625 398.053 981.091 398.111C981.091 398.111 979.635 400.06 978.259 400.06C978.259 400.06 980.752 398.288 980.599 398.002C980.599 398.002 978.152 397.821 976.86 398.365C978.021 397.816 979.313 397.566 980.607 397.64C980.096 397.058 979.416 396.631 978.652 396.412C978.652 396.412 980.016 395.919 981.202 397.691C981.202 397.691 983.108 397.908 983.332 398.115C983.332 398.115 982.421 396.205 981.255 395.376C981.255 395.376 983.016 395.716 983.82 398.292L985.673 398.988C985.673 398.988 984.609 396.405 983.63 395.589C983.63 395.589 985.368 396.202 986.122 399.212L987.819 400.14C987.819 400.14 987.079 397.85 986.195 396.72C986.195 396.72 987.681 397.618 988.291 400.422L989.347 401.169C989.347 401.169 988.779 399.506 988.585 399.042C988.39 398.578 988.49 398.488 988.49 398.488C989.213 399.349 989.67 400.383 989.812 401.477C989.812 401.477 991.882 403.121 992 403.005Z" fill="#6C63FF"/>
<path opacity="0.1" d="M1012 467.897C1012 467.897 1006.09 454.076 998.549 460.886C998.549 460.886 996.928 461.498 997.003 463.418C997.003 463.418 997.631 463.055 998.074 464.533C998.239 465.058 998.46 465.559 998.731 466.026C999.095 466.656 999.631 467.135 1000.26 467.39C1000.26 467.39 1003.5 470.284 1009.68 468.312C1009.68 468.312 1011.4 468.646 1011.68 468.408L1009.71 466.69C1009.71 466.69 1008.64 468.372 1007.15 468.521C1007.15 468.521 1009.7 466.815 1009.43 466.42C1009.37 466.34 1008.35 465.563 1008.35 465.563C1008.35 465.563 1006.5 468.473 1004.17 468.626C1004.17 468.626 1007.46 467.052 1007.97 465.265L1006.36 464.194C1006.36 464.194 1004.53 467.382 1001.89 467.664C1001.89 467.664 1005.27 465.885 1005.99 463.985L1004.28 463.18C1004.28 463.18 1002.44 466.247 1000.25 466.469C1000.25 466.469 1003.98 463.969 1003.88 463.023C1003.88 463.023 1002.27 462.383 1001.77 462.448C1001.77 462.448 1000.41 464.613 999.12 464.613C999.12 464.613 1001.46 462.645 1001.31 462.327C1001.31 462.327 999.02 462.126 997.81 462.729C998.898 462.12 1000.11 461.843 1001.32 461.924C1000.84 461.277 1000.21 460.802 999.488 460.56C999.488 460.56 1000.77 460.009 1001.88 461.981C1001.88 461.981 1003.66 462.218 1003.87 462.448C1003.87 462.448 1003.02 460.331 1001.93 459.405C1001.93 459.405 1003.58 459.783 1004.33 462.645L1006.07 463.418C1006.07 463.418 1005.07 460.548 1004.15 459.646C1004.15 459.646 1005.78 460.323 1006.49 463.671L1008.08 464.698C1008.08 464.698 1007.38 462.154 1006.55 460.898C1006.55 460.898 1007.95 461.896 1008.52 465.016L1009.51 465.821C1009.51 465.821 1008.98 463.973 1008.8 463.458C1008.62 462.943 1008.71 462.842 1008.71 462.842C1009.39 463.798 1009.82 464.947 1009.95 466.163C1009.95 466.163 1011.89 468.018 1012 467.897Z" fill="#6C63FF"/>
<path opacity="0.1" d="M780 638C784.971 638 789 637.552 789 637C789 636.448 784.971 636 780 636C775.029 636 771 636.448 771 637C771 637.552 775.029 638 780 638Z" fill="#6C63FF"/>
<path opacity="0.1" d="M723 621C727.971 621 732 620.552 732 620C732 619.448 727.971 619 723 619C718.029 619 714 619.448 714 620C714 620.552 718.029 621 723 621Z" fill="#6C63FF"/>
<path opacity="0.1" d="M823.5 649C828.194 649 832 648.552 832 648C832 647.448 828.194 647 823.5 647C818.806 647 815 647.448 815 648C815 648.552 818.806 649 823.5 649Z" fill="#6C63FF"/>
<path opacity="0.1" d="M1048 625C1052.97 625 1057 624.552 1057 624C1057 623.448 1052.97 623 1048 623C1043.03 623 1039 623.448 1039 624C1039 624.552 1043.03 625 1048 625Z" fill="#6C63FF"/>
<path opacity="0.1" d="M975 620C979.971 620 984 619.552 984 619C984 618.448 979.971 618 975 618C970.029 618 966 618.448 966 619C966 619.552 970.029 620 975 620Z" fill="#6C63FF"/>
<path opacity="0.1" d="M928 643C933.523 643 938 642.328 938 641.5C938 640.672 933.523 640 928 640C922.477 640 918 640.672 918 641.5C918 642.328 922.477 643 928 643Z" fill="#6C63FF"/>
<path d="M932.682 624C932.682 624 918.935 631.449 926.037 640.223C926.037 640.223 926.705 642.127 928.637 641.993C928.637 641.993 928.252 641.255 929.726 640.664C930.251 640.452 930.749 640.174 931.211 639.838C931.836 639.385 932.302 638.732 932.54 637.976C932.54 637.976 935.351 634.031 933.172 626.73C933.172 626.73 933.455 624.666 933.208 624.331L931.538 626.734C931.538 626.734 933.263 627.949 933.463 629.735C933.463 629.735 931.647 626.738 931.284 627.069C931.204 627.138 930.456 628.383 930.456 628.383C930.456 628.383 933.448 630.512 933.67 633.277C933.67 633.277 931.985 629.404 930.166 628.852L929.124 630.801C929.124 630.801 932.392 632.888 932.755 636.026C932.755 636.026 930.856 632.047 928.917 631.243L928.151 633.303C928.151 633.303 931.302 635.405 931.593 638.018C931.593 638.018 928.957 633.65 928.009 633.787C928.009 633.787 927.413 635.721 927.493 636.319C927.493 636.319 929.719 637.881 929.759 639.415C929.759 639.415 927.704 636.692 927.388 636.871C927.388 636.871 927.257 639.609 927.889 641.034C927.889 641.034 926.8 639 926.978 636.871C926.341 637.462 925.883 638.235 925.66 639.095C925.66 639.095 925.068 637.591 927.018 636.205C927.018 636.205 927.203 634.076 927.428 633.813C927.428 633.813 925.318 634.895 924.422 636.22C924.422 636.22 924.752 634.244 927.613 633.261L928.339 631.174C928.339 631.174 925.478 632.446 924.596 633.566C924.596 633.566 925.231 631.605 928.564 630.664L929.552 628.76C929.552 628.76 927.01 629.659 925.769 630.664C925.769 630.664 926.731 628.977 929.857 628.2L930.66 627.001C930.66 627.001 928.815 627.69 928.299 627.938C927.784 628.185 927.682 628.063 927.682 628.063C928.625 627.227 929.77 626.681 930.99 626.487C930.99 626.487 932.809 624.129 932.682 624Z" fill="#6C63FF"/>
<path d="M1065.06 574C1065.06 574 1067.26 577.046 1064.04 581.647C1060.82 586.249 1058.17 590.131 1059.24 593C1059.24 593 1064.1 584.457 1068.05 584.335C1072 584.213 1069.4 579.136 1065.06 574Z" fill="#6C63FF"/>
<path opacity="0.1" d="M1065 574C1065.2 574.294 1065.35 574.615 1065.46 574.954C1069.36 579.744 1071.44 584.217 1067.69 584.327C1064.19 584.433 1060 590.962 1059 592.607C1059.03 592.74 1059.07 592.871 1059.12 593C1059.12 593 1064.03 584.464 1068.03 584.342C1072.03 584.22 1069.4 579.132 1065 574Z" fill="black"/>
<path d="M1069 578.522C1069 579.339 1068.77 580 1068.5 580C1068.23 580 1068 579.339 1068 578.522C1068 577.705 1068.28 578.091 1068.55 578.091C1068.83 578.091 1069 577.705 1069 578.522Z" fill="#FFD037"/>
<path d="M1070.29 579.512C1069.12 579.858 1068.09 580.068 1068.01 579.98C1067.92 579.892 1068.79 579.538 1069.96 579.182C1071.13 578.825 1070.67 579.086 1070.76 579.182C1070.85 579.278 1071.46 579.163 1070.29 579.512Z" fill="#FFD037"/>
<path d="M1052.94 574C1052.94 574 1050.74 577.046 1053.96 581.647C1057.18 586.249 1059.83 590.131 1058.76 593C1058.76 593 1053.9 584.457 1049.95 584.335C1045.99 584.213 1048.61 579.136 1052.94 574Z" fill="#6C63FF"/>
<path opacity="0.1" d="M1053 574C1052.8 574.294 1052.65 574.615 1052.54 574.954C1048.64 579.744 1046.56 584.217 1050.31 584.327C1053.8 584.433 1058 590.962 1059 592.607C1058.97 592.741 1058.93 592.872 1058.88 593C1058.88 593 1053.97 584.464 1049.97 584.342C1045.97 584.22 1048.62 579.132 1053 574Z" fill="black"/>
<path d="M1049 578.522C1049 579.339 1049.22 580 1049.5 580C1049.77 580 1050 579.339 1050 578.522C1050 577.705 1049.72 578.091 1049.45 578.091C1049.18 578.091 1049 577.705 1049 578.522Z" fill="#FFD037"/>
<path d="M1046.71 579.512C1047.88 579.858 1048.91 580.068 1048.99 579.98C1049.08 579.892 1048.21 579.538 1047.04 579.182C1045.87 578.825 1046.33 579.086 1046.24 579.182C1046.15 579.278 1045.54 579.163 1046.71 579.512Z" fill="#FFD037"/>
<path opacity="0.1" d="M1058.5 615C1071.48 615 1082 613.657 1082 612C1082 610.343 1071.48 609 1058.5 609C1045.52 609 1035 610.343 1035 612C1035 613.657 1045.52 615 1058.5 615Z" fill="#6C63FF"/>
<path d="M1070.99 589.353L1070.88 590.257L1070.71 591.535L1070.65 592.069L1070.48 593.347L1070.41 593.881L1070.25 595.156L1068.39 609.691C1068.23 610.987 1066.01 612 1063.33 612H1053.67C1050.99 612 1048.78 610.987 1048.61 609.691L1046.75 595.156L1046.58 593.881L1046.52 593.347L1046.35 592.069L1046.28 591.535L1046.12 590.257L1046 589.353C1045.91 588.605 1047.11 588 1048.63 588H1068.37C1069.89 588 1071.09 588.617 1070.99 589.353Z" fill="#65617D"/>
<path d="M1071 590L1070.84 592H1047.16L1047 590H1071Z" fill="#9D9CB5"/>
<path d="M1071 592L1070.84 593H1047.16L1047 592H1071Z" fill="#9D9CB5"/>
<path d="M1070 594L1069.84 595H1047.15L1047 594H1070Z" fill="#9D9CB5"/>
</svg>
