<svg width="191" height="299" viewBox="0 0 191 299" fill="none" xmlns="http://www.w3.org/2000/svg">
<path opacity="0.1" d="M67.5 291C104.779 291 135 287.418 135 283C135 278.582 104.779 275 67.5 275C30.2208 275 0 278.582 0 283C0 287.418 30.2208 291 67.5 291Z" fill="black"/>
<path d="M67.5 289C102.57 289 131 258.555 131 221C131 183.445 102.57 153 67.5 153C32.4299 153 4 183.445 4 221C4 258.555 32.4299 289 67.5 289Z" fill="#3F3D56"/>
<path d="M88 261H48V297H88V261Z" fill="#6C63FF"/>
<path d="M139.233 270L137 282.692L151.512 285L161 279.231L160.442 270H139.233Z" fill="#575A89"/>
<path d="M65.4936 36.3275C65.4936 36.3275 64.3657 49.3039 61.5458 49.8681C58.726 50.4323 67.7495 73 67.7495 73H81.2846L92 70.179L86.9243 57.7668C86.9243 57.7668 80.1567 48.7397 85.2324 41.4052C90.3081 34.0707 65.4936 36.3275 65.4936 36.3275Z" fill="#A0616A"/>
<path opacity="0.1" d="M65.4936 36.3275C65.4936 36.3275 64.3657 49.3039 61.5458 49.8681C58.726 50.4323 67.7495 73 67.7495 73H81.2846L92 70.179L86.9243 57.7668C86.9243 57.7668 80.1567 48.7397 85.2324 41.4052C90.3081 34.0707 65.4936 36.3275 65.4936 36.3275Z" fill="black"/>
<path d="M36.4973 135.265C36.4973 135.265 21.7217 163.573 33.6559 169.235C45.59 174.896 48.4315 174.33 48.4315 176.029C48.4315 177.727 46.1583 177.161 47.2949 179.992C48.4315 182.823 45.0217 194.146 48.4315 200.94C51.8413 207.734 50.7047 212.83 50.7047 212.83C50.7047 212.83 50.7047 213.396 51.8413 215.66C52.9778 217.925 53.5461 219.624 52.9778 220.756C52.4095 221.888 48.9998 229.248 52.4095 230.947C55.8193 232.645 73.4364 233.778 75.1413 230.947C76.8462 228.116 73.4364 226.418 75.1413 224.719C76.8462 223.021 77.9828 222.454 76.8462 221.322C75.7096 220.19 74.573 206.036 74.573 206.036C74.573 206.036 77.4145 189.617 76.2779 187.352C75.1413 185.087 73.4364 182.823 74.573 181.124C75.7096 179.426 76.8462 179.992 77.4145 177.727C77.9828 175.463 79.1193 170.367 79.1193 170.367L85.3706 169.801L100.146 172.632C100.146 172.632 116.627 190.749 134.812 196.411C134.812 196.411 139.927 201.506 141.632 201.506C143.336 201.506 143.336 201.506 142.768 202.639C142.2 203.771 140.495 203.771 141.632 204.903C142.768 206.036 144.473 204.337 143.336 206.036C142.2 207.734 141.063 207.734 142.2 208.866C143.336 209.999 141.632 216.227 141.632 216.793C141.632 217.359 136.517 270.579 138.222 271.711C139.927 272.843 163.795 276.24 165.5 271.711C167.205 267.182 164.363 261.52 164.363 261.52C164.363 261.52 172.888 193.58 170.615 189.051C168.341 184.521 160.385 164.139 117.763 151.117C117.763 151.117 105.829 148.853 105.829 147.154C105.829 145.456 104.693 134.699 102.419 134.132C100.146 133.566 87.0754 133 87.0754 133L70.5949 138.096L47.8632 134.132L36.4973 135.265Z" fill="#2F2E41"/>
<path d="M56.7429 230.703L53.8703 240.918C53.8703 240.918 51.5722 257.377 54.4448 261.35C56.7011 264.47 60.7298 268.291 68.2013 268.962C70.2952 269.152 72.392 268.63 74.1448 267.482C75.8976 266.335 77.2015 264.631 77.8408 262.652C77.9266 262.415 77.9801 262.168 78 261.917C78 260.782 76.2765 247.161 76.2765 247.161L73.4039 232.973L72.8294 229L56.7429 230.703Z" fill="#2F2E41"/>
<path d="M139.524 279.235C139.524 279.235 136.712 276.407 136.15 279.235C135.587 282.064 133.337 293.943 137.275 294.509C141.212 295.074 178.897 300.731 182.834 298.468C186.771 296.206 194.083 292.812 189.583 291.115C185.084 289.417 172.147 284.326 172.147 284.326C172.147 284.326 164.835 274.71 163.71 274.144C162.585 273.578 156.398 274.71 153.586 276.973C150.774 279.235 139.524 279.235 139.524 279.235Z" fill="#2F2E41"/>
<path d="M78.5 48C88.165 48 96 40.165 96 30.5C96 20.835 88.165 13 78.5 13C68.835 13 61 20.835 61 30.5C61 40.165 68.835 48 78.5 48Z" fill="#A0616A"/>
<path d="M76.7138 70.3794L69.9307 63.0865L62.4119 48.5007C62.4119 48.5007 56.9296 46.8177 55.7991 49.6227C54.6686 52.4277 34.3191 61.4035 34.3191 61.4035C34.3191 61.4035 39.4065 108.527 37.1455 113.015C34.8844 117.503 30.9276 135.454 34.3191 137.137C37.7107 138.82 53.5381 137.137 58.6254 139.381C63.7128 141.625 78.4096 141.625 82.3665 138.82C86.3233 136.015 87.4538 133.771 91.4107 135.454C94.7792 136.887 102.654 87.9042 104.921 73.3072C105.112 72.0812 104.954 70.8266 104.463 69.6855C103.973 68.5444 103.171 67.5623 102.147 66.8503C97.0751 63.3196 87.9404 57.2352 86.3233 58.0376C84.0623 59.1596 76.7138 70.3794 76.7138 70.3794Z" fill="#575A89"/>
<path d="M101.59 68C102.89 68.329 104.059 69.053 104.941 70.0745C105.823 71.0961 106.374 72.3663 106.522 73.7147L111 114.521C111 114.521 99.9296 138.623 94.3944 122.368C88.8592 106.114 101.59 68 101.59 68Z" fill="#575A89"/>
<path d="M100.303 118.415L113.038 115C113.038 115 115.354 130.934 117.669 130.934C119.985 130.934 109.565 140.04 104.355 138.902C99.145 137.763 91.6196 133.78 91.0407 130.934C90.4618 128.089 96.2506 116.138 96.2506 116.138L100.303 118.415Z" fill="#575A89"/>
<path d="M65.5038 38C66.7007 35.3456 66.4929 32.2494 67.4824 29.51C68.0123 28.0432 68.8722 26.7194 69.9949 25.6421C71.1177 24.5648 72.4728 23.7632 73.9546 23.2998C75.4363 22.8364 77.0046 22.7239 78.5367 22.9709C80.0689 23.218 81.5235 23.818 82.787 24.724C84.0599 25.6368 85.3361 26.9193 86.8898 26.745C88.563 26.5574 90.0554 24.6801 91.5937 25.3681C93.2988 26.1307 92.8383 29.2039 94.5657 29.9137C95.4749 30.2873 96.5493 29.712 97.0738 28.8768C97.5324 27.9991 97.7823 27.0263 97.8039 26.035C98.0422 23.5993 98.2576 21.0215 97.2073 18.8137C96.7656 18.0654 96.3806 17.2847 96.0556 16.4781C95.8719 15.7248 95.7981 14.9487 95.8367 14.1741C95.8271 11.3112 95.6193 8.32505 94.1868 5.85112C92.5971 3.10589 89.6587 1.35045 86.5932 0.584481C83.5276 -0.181489 80.316 -0.064042 77.1685 0.203942C71.9654 0.646951 66.5393 1.59656 62.4401 4.84966C61.8829 5.25903 61.4034 5.76573 61.0243 6.34563C60.6645 7.03451 60.4102 7.77412 60.2702 8.53941C59.3839 12.1693 58.0551 15.6751 56.3138 18.9771C55.4763 20.3769 54.7917 21.8638 54.2723 23.4118C53.8375 24.9848 53.8669 26.7774 54.7769 28.1294C55.5177 29.2301 56.7022 29.8167 57.6327 30.7166C58.5548 31.6083 58.9862 33.3232 60.0076 33.9984C60.8993 34.5879 61.9673 34.1718 62.8767 34.7965C64.0443 35.5986 64.1287 37.3574 65.5038 38Z" fill="#2F2E41"/>
<path d="M80 78.375L81.7059 75C81.7059 75 106.725 82.3125 111.843 89.0625C111.843 89.0625 124.353 81.1875 131.176 82.3125L138 83.4375L116.961 102L90.2353 99.75L80 78.375Z" fill="#F2F2F2"/>
<path d="M79.1862 75L56 107.634L89.3655 124.237C89.3655 124.237 92.4848 125.954 94.8838 124.237L117.076 113.931L138 83.5878L117.076 94.4656C117.076 94.4656 114.814 89.8855 110.29 92.1756L79.1862 75Z" fill="#6C63FF"/>
<path d="M114.706 132L119.034 120.169C119.034 120.169 128.774 107.211 123.363 101.014C117.952 94.8172 112 119.042 112 119.042L114.706 132Z" fill="#A0616A"/>
<path d="M62 130L72.05 122.167C72.05 122.167 87.6579 116.154 85.855 108.111C84.0521 100.068 66.1534 117.6 66.1534 117.6L62 130Z" fill="#A0616A"/>
<path opacity="0.1" d="M37.6231 72.7581H37.0532C37.0532 72.7581 28.2199 62.2057 26.5103 76.4657C24.8006 90.7257 19.1018 138.069 33.9188 139.78C48.7359 141.491 59.2788 132.65 59.2788 132.65C59.2788 132.65 70.1067 116.109 66.1175 116.109C64.1873 116.109 58.9378 115.241 54.1498 115.538C49.0421 115.855 44.4525 117.295 44.7467 115.823C45.3166 112.971 53.5799 76.7509 37.6231 72.7581Z" fill="black"/>
<path d="M36.8009 62.1306L34.4946 61C34.4946 61 25.2695 62.6959 23.5397 76.8286C21.81 90.9612 16.0443 137.882 31.0352 139.577C46.0261 141.273 66.2062 137.316 66.2062 137.316C66.2062 137.316 70.2422 115.835 66.2062 115.835C62.1702 115.835 41.4135 118.661 41.9901 115.835C42.5667 113.008 52.945 66.0878 36.8009 62.1306Z" fill="#575A89"/>
<path d="M106 125.886L112.126 116L116 132.32L106 137V125.886Z" fill="#575A89"/>
</svg>
