<svg width="121" height="79" viewBox="0 0 121 79" fill="none" xmlns="http://www.w3.org/2000/svg">
<path d="M116.85 34.12L101.3 43.96L110.72 26.83C108.053 24.7018 104.752 23.523 101.34 23.48H101.09C100.012 23.5011 98.9336 23.4207 97.8701 23.24L92.6101 26.58L94.8601 22.48C91.1337 21.172 87.9145 18.7226 85.6601 15.48L76.2501 21.48L82.1901 10.66C76.6901 4.05 69.2701 0 61.1001 0C51.3101 0 42.5901 5.81999 36.9601 14.9C35.2906 17.6191 32.9305 19.8473 30.12 21.358C27.3095 22.8686 24.149 23.6077 20.9601 23.5H20.4401C9.63012 23.5 0.870117 35.75 0.870117 50.87C0.870117 65.99 9.63012 78.24 20.4401 78.24C22.8154 78.2325 25.153 77.6455 27.2501 76.53C30.9306 74.7445 34.9547 73.7787 39.0446 73.6993C43.1346 73.6199 47.1931 74.4287 50.9401 76.07C54.1054 77.492 57.5347 78.2314 61.0048 78.24C64.4748 78.2486 67.9078 77.5263 71.0801 76.12C74.7961 74.5095 78.8148 73.7162 82.864 73.7938C86.9133 73.8714 90.8986 74.8182 94.5501 76.57C96.6345 77.6577 98.949 78.2304 101.3 78.24C112.11 78.24 120.87 65.99 120.87 50.87C120.956 45.0379 119.574 39.2778 116.85 34.12Z" fill="#F2F2F2"/>
<path opacity="0.03" d="M87.6004 74.17C81.9536 73.1016 76.1166 73.7351 70.8304 75.99C67.6643 77.4076 64.2344 78.1404 60.7654 78.1404C57.2964 78.1404 53.8666 77.4076 50.7004 75.99C46.9546 74.3442 42.8955 73.5328 38.8047 73.6122C34.714 73.6917 30.6895 74.66 27.0104 76.45C24.9084 77.5622 22.5685 78.1489 20.1904 78.16C10.5904 78.16 2.60043 68.48 0.94043 55.72C2.86129 54.3251 4.4917 52.569 5.74042 50.55C11.3704 41.48 20.0904 35.66 29.8804 35.66C39.6704 35.66 48.3004 41.36 53.9204 50.36C55.602 53.08 57.9599 55.3177 60.764 56.8547C63.5682 58.3918 66.7229 59.1757 69.9204 59.13H70.1704C77.7604 59.11 84.3804 65.23 87.6004 74.17Z" fill="black"/>
</svg>
