<svg width="60" height="40" viewBox="0 0 60 40" fill="none" xmlns="http://www.w3.org/2000/svg">
<path d="M57.8298 17.73L50.0798 22.64L54.7798 14.1C53.4516 13.0325 51.8038 12.441 50.0998 12.42H49.9798C49.4407 12.4256 48.9021 12.3854 48.3698 12.3L45.7498 13.96L46.8698 11.96C45.0107 11.3087 43.4044 10.0874 42.2798 8.47002L37.5898 11.47L40.5898 6.08002C39.3424 4.46666 37.7507 3.15191 35.9308 2.23158C34.1109 1.31125 32.1086 0.808512 30.0698 0.76001C25.1898 0.76001 20.8398 3.66002 18.0698 8.19002C17.2361 9.54986 16.056 10.6637 14.6503 11.4175C13.2446 12.1713 11.6638 12.538 10.0698 12.48H9.8098C4.4198 12.48 0.0498047 18.6 0.0498047 26.14C0.0498047 33.68 4.4198 39.79 9.8098 39.79C10.9952 39.7862 12.162 39.4945 13.2098 38.94C15.0454 38.0464 17.0534 37.5631 19.0945 37.5233C21.1356 37.4836 23.1609 37.8885 25.0298 38.71C26.6039 39.4097 28.3072 39.7712 30.0298 39.7712C31.7524 39.7712 33.4557 39.4097 35.0298 38.71C36.8838 37.9057 38.8893 37.51 40.9099 37.5497C42.9304 37.5893 44.9188 38.0635 46.7398 38.94C47.7787 39.4777 48.93 39.7621 50.0998 39.77C55.4898 39.77 59.8598 33.66 59.8598 26.12C59.8977 23.1973 59.1996 20.3121 57.8298 17.73Z" fill="#F2F2F2"/>
<path opacity="0.03" d="M43.24 37.71C40.4217 37.1702 37.5064 37.4872 34.87 38.62C33.2947 39.3156 31.5921 39.6765 29.87 39.68C28.1284 39.6795 26.4068 39.3079 24.82 38.59C22.9499 37.7721 20.9244 37.3699 18.8836 37.4113C16.8429 37.4528 14.8354 37.9368 13 38.83C11.9558 39.3844 10.7923 39.6761 9.61 39.68C4.82 39.68 0.83 34.85 0 28.49C0.955479 27.789 1.76979 26.9136 2.40001 25.91C5.20001 21.38 9.55001 18.48 14.4 18.48C19.25 18.48 23.58 21.35 26.4 25.82C27.2404 27.1792 28.4197 28.2967 29.8222 29.0628C31.2246 29.8289 32.8022 30.2173 34.4 30.19H34.53C38.3 30.19 41.63 33.25 43.24 37.71Z" fill="black"/>
</svg>
