<svg width="158" height="263" viewBox="0 0 158 263" fill="none" xmlns="http://www.w3.org/2000/svg">
<path d="M89.5 52C100.27 52 109 43.4934 109 33C109 22.5066 100.27 14 89.5 14C78.7304 14 70 22.5066 70 33C70 43.4934 78.7304 52 89.5 52Z" fill="#2F2E41"/>
<path d="M4.31087 118.564C5.21735 118.905 6.18979 119.049 7.15972 118.985C8.12965 118.922 9.07347 118.653 9.9247 118.198C10.7759 117.742 11.5139 117.111 12.0865 116.349C12.6592 115.587 13.0526 114.712 13.2391 113.786L66 81.4898L56.3969 71L7.53167 106.067C5.90812 105.866 4.26502 106.249 2.91369 107.145C1.56235 108.041 0.596684 109.387 0.199678 110.927C-0.197329 112.468 0.00189823 114.096 0.759617 115.504C1.51734 116.911 2.7809 118 4.31087 118.564Z" fill="#FFB8B8"/>
<path d="M55.8722 91C55.4066 91.0008 54.9484 90.8844 54.5395 90.6616C54.1305 90.4388 53.784 90.1166 53.5317 89.7247L47.4415 80.2451C47.0572 79.6467 46.9164 78.9235 47.0482 78.2244C47.18 77.5252 47.5743 76.9032 48.1499 76.4863L68.5297 61.7325C69.5186 61.0165 70.6408 60.5065 71.83 60.2325C73.0191 59.9586 74.2511 59.9263 75.4529 60.1376C76.6547 60.3489 77.802 60.7995 78.8269 61.4628C79.8518 62.126 80.7335 62.9884 81.4198 63.9989C82.1061 65.0094 82.5831 66.1475 82.8226 67.3459C83.062 68.5444 83.0591 69.7787 82.8139 70.976C82.5688 72.1732 82.0864 73.3091 81.3953 74.3163C80.7042 75.3235 79.8184 76.1817 78.7904 76.84L57.3621 90.5631C56.9175 90.8487 56.4004 91.0004 55.8722 91Z" fill="#2F2E41"/>
<path d="M63.998 256L55.8683 255.999L52 227L64 227.001L63.998 256Z" fill="#FFB8B8"/>
<path d="M51.2727 254H66V263H42C42 261.818 42.2398 260.648 42.7058 259.556C43.1718 258.464 43.8548 257.472 44.7159 256.636C45.577 255.8 46.5992 255.137 47.7242 254.685C48.8492 254.233 50.055 254 51.2727 254Z" fill="#2F2E41"/>
<path d="M100 250.829L92.5741 253L81 224.204L91.9595 221L100 250.829Z" fill="#FFB8B8"/>
<path d="M86.5063 251.62L100.591 247.666L103.081 256.535L80.1276 262.978C79.8007 261.813 79.7064 260.596 79.85 259.395C79.9936 258.194 80.3724 257.033 80.9647 255.978C81.5571 254.923 82.3513 253.996 83.3021 253.248C84.253 252.5 85.3418 251.947 86.5063 251.62Z" fill="#2F2E41"/>
<path d="M119.721 206L91 170.308L108.428 148.041C108.684 147.714 109.005 147.451 109.369 147.271C109.732 147.091 110.13 146.999 110.531 147C110.933 147.001 111.33 147.096 111.693 147.279C112.055 147.461 112.375 147.726 112.629 148.054L139 182.133L119.721 206Z" fill="#6C63FF"/>
<path d="M92 170.504C92.4307 169.763 92.9648 169.082 93.5876 168.479L110.51 152.09C111.173 151.445 112.066 151.061 113.012 151.017C114.945 150.93 118.116 151.116 119 153.143L96.1538 171L92 170.504Z" fill="#F2F2F2"/>
<path d="M121.168 212C119.836 211.962 118.542 211.565 117.43 210.856L117.348 210.773L90 170.34L94.5379 169.916L118.859 151.577C119.166 151.346 119.519 151.178 119.896 151.085C120.273 150.992 120.667 150.975 121.051 151.036C121.435 151.097 121.802 151.234 122.129 151.438C122.456 151.643 122.736 151.91 122.95 152.225L149.535 191.123C149.943 191.723 150.091 192.455 149.945 193.16C149.8 193.865 149.374 194.486 148.759 194.889L123.033 211.659C122.44 211.887 121.806 212.003 121.168 212Z" fill="#6C63FF"/>
<path d="M110.839 184C110.575 184 110.314 183.94 110.081 183.823C109.848 183.707 109.648 183.538 109.5 183.333L106.274 178.829C106.036 178.496 105.948 178.088 106.03 177.694C106.112 177.3 106.357 176.953 106.711 176.728L123.264 166.257C123.618 166.033 124.053 165.951 124.472 166.028C124.891 166.105 125.261 166.335 125.5 166.667L128.726 171.171C128.964 171.504 129.052 171.912 128.97 172.306C128.888 172.7 128.643 173.047 128.289 173.272L111.736 183.743C111.471 183.911 111.159 184 110.839 184Z" fill="#3F3D56"/>
<path d="M51.2467 252C50.4019 251.997 49.5887 251.675 48.9669 251.097C48.3452 250.518 47.9598 249.726 47.8865 248.876C46.5385 233.4 39.7763 155.406 39.0341 139.655C38.2096 122.154 52.6219 94.4677 52.7677 94.1902L52.8674 94L59.9909 94.8994V95.7366L66.7712 96.5426L79.893 97.8261L83.6497 144.229L85.3107 175.699L100.917 239.975C101.094 240.687 100.986 241.441 100.618 242.073C100.25 242.706 99.6498 243.166 98.9482 243.356L85.366 247.099C84.6599 247.29 83.9076 247.194 83.2708 246.831C82.634 246.468 82.1635 245.867 81.9604 245.157L69.1727 199.761C69.1108 199.541 68.9716 199.352 68.7812 199.228C68.5909 199.105 68.3625 199.057 68.1392 199.092C67.9158 199.127 67.7129 199.243 67.5685 199.419C67.4241 199.595 67.3482 199.818 67.3551 200.046L68.7076 244.312C68.7144 244.766 68.6294 245.217 68.4576 245.637C68.2857 246.057 68.0308 246.437 67.7084 246.754C64.5951 249.709 56.3689 251.287 51.7427 251.964C51.5785 251.988 51.4127 252 51.2467 252Z" fill="#2F2E41"/>
<path d="M92.4857 57.7692C90.3099 55.5149 75.9735 58.6129 72.7906 61.9342L51 97.3361L87.0381 104L95 59.0187L92.4857 57.7692Z" fill="#6C63FF"/>
<path d="M84.0248 148C83.2451 148 82.4708 147.872 81.7334 147.62C79.6304 146.902 77.053 146.151 74.0729 145.389C61.0207 142.05 56.4124 131.358 60.3763 113.61L60.4765 113.16C64.1986 96.3249 71.2143 80.3835 81.1237 66.2444L82.6586 64.0505C84.5115 61.4036 87.1054 59.3569 90.1178 58.1649C93.1302 56.9728 96.4283 56.688 99.6021 57.3458C105.475 58.5511 108.628 60.2976 108.975 62.5372C109.654 66.9317 96.5362 120.054 90.8647 142.689C90.4846 144.207 89.6045 145.555 88.3648 146.518C87.1252 147.48 85.5973 148.002 84.0248 148L84.0248 148Z" fill="#2F2E41"/>
<path d="M38.3741 142C38.0399 142 37.7077 141.947 37.3893 141.844L33.2465 140.499C32.8182 140.36 32.4233 140.131 32.0869 139.828C31.7506 139.525 31.4802 139.154 31.2931 138.739C31.106 138.324 31.0063 137.874 31.0003 137.417C30.9943 136.961 31.0822 136.508 31.2584 136.088L53.2411 83.7031C57.4531 73.71 64.8175 65.4219 74.176 60.1422H74.1762C74.3119 60.0663 74.4615 60.0196 74.6158 60.005C74.77 59.9903 74.9256 60.0081 75.0728 60.057C75.208 60.1008 75.3328 60.1728 75.439 60.2684C75.5451 60.3641 75.6304 60.4812 75.6893 60.6124C78.2747 66.3866 64.203 93.7133 52.8962 115.67C47.1063 126.913 42.1062 136.624 41.537 139.392C41.3852 140.13 40.9879 140.792 40.4118 141.267C39.8357 141.742 39.1162 142.001 38.3741 142Z" fill="#2F2E41"/>
<path d="M108.253 153.626C109.054 153.036 109.714 152.28 110.187 151.411C110.659 150.542 110.933 149.582 110.989 148.597C111.045 147.612 110.882 146.627 110.51 145.711C110.139 144.796 109.569 143.972 108.84 143.297L108.658 80L94 82.4278L98.7944 143.915C97.7276 145.199 97.175 146.825 97.2413 148.484C97.3076 150.143 97.9882 151.721 99.1542 152.918C100.32 154.115 101.89 154.848 103.567 154.979C105.244 155.11 106.912 154.628 108.253 153.626Z" fill="#FFB8B8"/>
<path d="M96.3284 96C95.6419 95.9998 94.9812 95.7276 94.4801 95.2384C93.979 94.7493 93.6751 94.0798 93.6299 93.3657L92.0186 67.8789C91.8664 65.4266 92.6533 63.0115 94.2069 61.1633C95.7604 59.3151 97.9537 58.1847 100.306 58.02C101.513 57.9371 102.724 58.1121 103.865 58.5342C105.005 58.9563 106.051 59.6166 106.938 60.4748C107.825 61.333 108.535 62.3709 109.024 63.525C109.513 64.6791 109.77 65.9251 109.781 67.1867L110 93.0206C110.005 93.7667 109.727 94.4847 109.226 95.0178C108.725 95.5509 108.042 95.8558 107.327 95.866L96.3612 96L96.3284 96Z" fill="#2F2E41"/>
<path d="M85.5 53C94.0604 53 101 45.8366 101 37C101 28.1634 94.0604 21 85.5 21C76.9396 21 70 28.1634 70 37C70 45.8366 76.9396 53 85.5 53Z" fill="#FFB8B8"/>
<path d="M98.3869 47C99.5289 43.3847 100.577 39.122 98.3174 36.0714C96.689 33.8732 93.7653 33.0223 91.0231 32.9005C88.2809 32.7787 85.5308 33.2411 82.7945 33.0247C80.0582 32.8083 77.1663 31.734 75.7763 29.3794C73.9739 26.3263 75.5005 22.1211 78.3981 20.065C81.2957 18.0089 85.1238 17.7218 88.6504 18.2007C93.1129 18.7277 97.3081 20.5945 100.678 23.5525C103.956 26.5621 106.092 30.9001 105.997 35.3366C105.902 39.773 103.4 44.1909 99.4143 46.1828" fill="#2F2E41"/>
<path d="M94.3185 14.2891C90.6746 13.1624 88.9938 8.32672 90.6234 4.86667C92.253 1.40662 96.4185 -0.405236 100.201 0.0767118C103.984 0.55866 107.317 2.99447 109.616 6.04772C111.915 9.10097 113.301 12.7406 114.457 16.3877C115.613 20.0348 116.574 23.7608 118.153 27.2446C120.658 32.5973 124.522 37.1939 129.358 40.5726C134.193 43.9513 139.83 45.9932 145.7 46.493C148.259 46.6791 150.915 46.5457 153.247 45.4721C155.579 44.3985 157.535 42.234 157.796 39.6721C159.123 48.7724 153.849 58.4437 145.497 62.2253C137.144 66.007 126.43 63.5742 120.513 56.5522C114.73 49.69 113.834 40.0017 113.973 31.0148C114.011 28.5505 114.102 26.0395 113.424 23.6708C112.745 21.302 111.14 19.0497 108.802 18.2973C106.915 17.6903 104.872 18.1279 102.938 18.5583C101.004 18.9886 98.9497 19.4028 97.077 18.7541C95.2043 18.1054 93.6963 15.9677 94.4509 14.129" fill="#2F2E41"/>
</svg>
