<svg width="130" height="191" viewBox="0 0 130 191" fill="none" xmlns="http://www.w3.org/2000/svg">
<path d="M129.032 143.581C126.544 136.819 112.849 136.183 106.906 137.907C102.683 139.136 93.7814 140.522 89.026 141.218L88.7178 140.925C89.3341 140.742 89.3493 140.293 89.2732 139.627C89.229 138.749 89.2417 137.87 89.3113 136.994C92.2254 137.899 94.8199 135.757 94.8199 135.757C98.2438 134.235 97.3232 127.719 97.9775 125.938C98.4683 124.606 98.9971 116.759 99.233 112.847H99.2824L99.309 111.534C99.3433 110.967 99.3585 110.636 99.3585 110.636C99.3585 110.636 99.6933 101.068 100.348 99.1311C100.956 97.35 101.451 88.3762 101.527 86.9529C101.527 86.8311 101.527 86.7664 101.527 86.7664L101.478 85.9368C101.512 85.3317 101.527 84.6581 101.523 83.9502C101.523 80.6964 101.185 76.5977 101.143 75.9355C101.143 75.8404 101.143 75.7262 101.143 75.5892C101.169 74.2001 100.994 67.2433 95.0786 64.6136C92.8988 63.6394 90.2776 62.4786 87.7401 61.3484C87.0857 55.6969 85.5906 50.076 85.72 44.3827C85.72 43.5264 85.7961 42.6701 85.8798 41.8176C85.8798 42.065 85.8531 42.3162 85.8493 42.5788C85.8493 43.1306 85.8493 43.6862 85.8493 44.2381C86.0738 37.1176 88.7635 29.9592 88.5124 22.991C88.4896 23.6722 88.4401 24.3572 88.3754 25.0423C88.5068 22.6853 88.2602 20.3226 87.645 18.0436C87.4167 17.2406 87.1086 16.411 86.4504 15.8744C85.8283 15.4422 85.1149 15.1596 84.3657 15.0486C82.5655 14.5876 80.7366 14.2469 78.8912 14.0286C78.6108 13.17 78.1947 12.3618 77.6586 11.6349C73.801 6.33738 68.0869 1.35956 61.3304 0.217861C57.9408 -0.35299 54.0413 0.122719 51.7359 2.54693C51.4952 2.75989 51.2689 2.98874 51.0588 3.23195C49.8186 4.71236 49.2859 6.65706 48.0153 8.13366C47.9316 8.2326 47.8365 8.32394 47.7452 8.41908C45.2571 10.6454 41.3805 11.1097 38.6148 13.1077C38.1275 13.4663 37.6707 13.8648 37.2491 14.2988C36.1346 15.4036 35.1353 16.6188 34.2664 17.9256C33.0224 19.6763 31.7442 21.4992 31.3485 23.5885C30.5534 27.7747 33.4029 31.744 33.9317 35.9569C35.111 45.3836 24.6833 53.7484 26.6578 63.0495C27.1846 65.3345 28.3481 67.4233 30.0132 69.0739C25.9464 72.7578 22.4844 76.3313 22.4844 76.3313V76.5444H21.8415L21.9062 77.3055H21.8415L22.1953 81.4347L21.8415 87.4476C21.8415 87.4476 21.8415 87.5123 21.8415 87.6341V87.6646V87.8282C21.8415 87.8282 21.8415 87.8929 21.8415 88.0147H21.8643C21.9823 90.2182 22.4502 98.1416 23.0056 99.8123C23.66 101.749 23.991 111.317 23.991 111.317C23.991 111.317 24.7138 124.838 25.3757 126.627C26.0377 128.416 25.098 134.912 28.5333 136.446C29.5383 137.217 30.7282 137.71 31.9839 137.877C31.8089 139.3 31.9192 140.331 32.486 140.655C32.7286 140.797 33.0036 140.876 33.2849 140.883C33.0518 141.229 32.8446 141.591 32.6648 141.968C31.3013 141.825 29.9615 141.509 28.6779 141.028C24.9877 139.505 12.7416 136.08 9.18451 138.489C5.62746 140.898 -2.93228 143.083 1.02042 152.78C4.97311 162.476 6.81441 162.72 6.81441 162.72C8.0311 163.604 9.09842 164.676 9.97581 165.898C11.1628 167.683 22.2219 171.766 24.9877 171.766C26.1632 171.748 27.3387 171.806 28.5067 171.941C28.5067 171.941 25.5051 174.575 25.9045 176.105C26.304 177.634 24.9915 189.881 24.9915 189.881C24.9915 189.881 28.035 192.948 29.336 188.926L29.3817 188.987C29.6252 189.318 30.9415 190.813 33.4181 188.926C34.4317 188.157 35.5083 187.474 36.6365 186.886L48.6278 185.189C49.878 185.111 51.1315 185.102 52.3827 185.162C54.2848 185.318 56.1527 184.192 57.3283 183.32C59.8125 184.264 62.6049 185.295 63.9326 185.672C66.6261 186.433 79.0054 189.755 81.9005 188.717C82.5022 188.477 83.0373 188.096 83.4602 187.605L86.2222 187.693L84.9287 187.952C84.9287 187.952 87.4471 187.993 90.871 188.039L90.7265 188.123L95.0216 188.085C101.306 188.142 108.367 188.161 109.295 187.952C110.749 187.628 118.3 187.856 120.526 187.952H121.146C121.146 187.952 129.443 186.296 126.019 177.874C123.387 171.405 115.295 169.525 111.704 169.007C112.715 168.805 113.587 168.649 114.165 168.558C116.672 168.177 121.542 165.894 121.937 165.114C122.333 164.334 126.415 162.069 127.469 160.779C128.522 159.489 131.532 150.344 129.032 143.581ZM60.3071 162.507L59.9 162.64L59.6261 162.731L59.1011 163.249C58.6826 162.967 58.2337 162.671 57.7658 162.366C58.5913 162.416 59.4397 162.465 60.3071 162.507Z" fill="url(#paint0_linear)"/>
<path d="M85 122.907C85 122.907 90.9707 138.445 94.3659 136.891C97.761 135.337 96.84 128.733 97.4878 126.923C98.1356 125.113 98.8537 111.386 98.8537 111.386C98.8537 111.386 99.1815 101.674 99.8293 99.7089C100.43 97.9027 100.918 88.7936 101 87.3603C101 87.236 101 87.17 101 87.17L100.356 75.9051L96.7112 75L88.2585 78.1076L87.0878 84.7616L86.6312 87.3603L86.4361 88.4674L85 122.907Z" fill="#BE6F72"/>
<path opacity="0.1" d="M87 120C87 120 92.5939 124.602 94.2797 125.006C95.9655 125.411 97 129 97 129" fill="black"/>
<path d="M39 123.134C39 123.134 33.4024 138.421 30.2195 136.893C27.0366 135.364 27.9 128.867 27.2927 127.086C26.6854 125.305 26.0122 111.799 26.0122 111.799C26.0122 111.799 25.7049 102.244 25.0976 100.31C24.5341 98.5333 24.0768 89.5712 24 88.1609C24 88.0386 24 87.9737 24 87.9737L24.6073 76.8905L28.0244 76L35.9488 79.0574L37.0463 85.6041L37.4744 88.1609L37.6573 89.2501L39 123.134Z" fill="#BE6F72"/>
<path d="M77 42H65V62H77V42Z" fill="#3E373A"/>
<path opacity="0.1" d="M77 42H65V62H77V42Z" fill="black"/>
<path d="M37.1725 138.263C37.1725 138.263 32.7137 143.354 34.3681 144.279C36.0225 145.203 46.7244 162.532 46.7244 162.532C46.7244 162.532 81.8755 167.028 88.5045 160.282C95.1335 153.536 94.9998 141.485 94.9998 141.485C94.9998 141.485 89.6737 142.675 89.0929 142.029C88.5121 141.382 85.3218 138.263 85.3218 138.263C85.3218 138.263 40.2291 135.422 37.1725 138.263Z" fill="#4B4B5B"/>
<path opacity="0.02" d="M37.1725 138.263C37.1725 138.263 32.7137 143.354 34.3681 144.279C36.0225 145.203 46.7244 162.532 46.7244 162.532C46.7244 162.532 81.8755 167.028 88.5045 160.282C95.1335 153.536 94.9998 141.485 94.9998 141.485C94.9998 141.485 89.6737 142.675 89.0929 142.029C88.5121 141.382 85.3218 138.263 85.3218 138.263C85.3218 138.263 40.2291 135.422 37.1725 138.263Z" fill="black"/>
<path d="M99.9895 76.2183L88.6823 85.1411L85.2637 85.3865L84.0086 85.4757L62.9282 87L41.0676 85.4236L37.8148 85.1894L33.6689 84.892L25 76.7128C25 76.7128 31.1361 70.2289 36.5108 65.853C38.629 64.1242 40.6304 62.7263 42.089 62.176L42.3377 62.0905C43.2552 61.7376 44.0743 61.1743 44.7273 60.4472C48.9713 56.1308 52.8949 45.4793 52.8949 45.4793C52.8949 45.4793 71.6159 35.9393 69.3545 48.4535C67.093 60.9677 77.7708 57.8745 77.7708 57.8745L81.2911 59.4583L82.6819 60.0866L86.2286 61.689L94.2304 65.3102C100.51 68.1617 99.9895 76.2183 99.9895 76.2183Z" fill="#BE6F72"/>
<path opacity="0.1" d="M62 56C71.3888 56 79 48.165 79 38.5C79 28.835 71.3888 21 62 21C52.6112 21 45 28.835 45 38.5C45 48.165 52.6112 56 62 56Z" fill="black"/>
<path opacity="0.1" d="M100.632 89H24C24 88.8764 24 88.8107 24 88.8107L24.6338 77.6058C24.6338 77.6058 30.8502 70.8673 36.2953 66.3197L84.4073 64.3878L86.6449 62L94.7514 65.7633C101.117 68.723 100.605 77.0957 100.605 77.0957C100.605 77.0957 101.476 86.7977 100.632 89Z" fill="black"/>
<path d="M100.632 88H24C24 87.8764 24 87.8107 24 87.8107L24.6338 76.6058C24.6338 76.6058 30.8502 69.8673 36.2953 65.3197L84.4073 63.3878L86.6449 61L94.7514 64.7633C101.117 67.723 100.605 76.0957 100.605 76.0957C100.605 76.0957 101.476 85.7977 100.632 88Z" fill="#E7C7CA"/>
<path opacity="0.1" d="M49.7008 57.3198C49.7008 57.3198 61.607 72.6475 77.4657 57.0045C93.3244 41.3614 79.2219 91.8964 79.2219 91.8964L45 96L49.7008 57.3198Z" fill="black"/>
<path d="M49.7008 58.3198C49.7008 58.3198 61.607 73.6475 77.4657 58.0045C93.3244 42.3614 79.2219 92.8964 79.2219 92.8964L45 97L49.7008 58.3198Z" fill="#E7C7CA"/>
<path opacity="0.1" d="M82.8615 61.6206L84.1293 80.8357L85.4879 87.2294L86.5248 92.1188C86.5248 92.1188 89.1739 129.729 88.417 131.61C87.6602 133.49 88.7955 134.995 88.9544 135.995C89.1134 136.995 88.7955 139.508 88.9204 140.636C89.0452 141.764 88.9204 142.265 86.0215 141.862C83.1226 141.46 79.0809 140.76 79.0809 140.76C79.0809 140.76 68.8629 141.512 65.3321 140.26C61.8012 139.008 55.1141 139.004 55.1141 139.004C55.1141 139.004 45.0211 139.256 41.7438 138.88C38.4665 138.504 36.6953 142.893 34.5534 141.637C32.4114 140.38 37.0738 128.225 38.5875 124.712C40.1013 121.199 36.5705 112.301 36.5705 112.301L41.1118 87.2633L42.1222 81.5879V63.7456L42.372 63.659C43.2932 63.302 44.1156 62.7322 44.7713 61.9967L45.9066 79.9519L81.4802 81.208V61" fill="black"/>
<path d="M82.8615 60.6206L84.1293 79.8357L85.4879 86.2294L86.5248 91.1188C86.5248 91.1188 89.1739 128.729 88.417 130.61C87.6602 132.49 88.7955 133.995 88.9544 134.995C89.1134 135.995 88.7955 138.508 88.9204 139.636C89.0452 140.764 88.9204 141.265 86.0215 140.862C83.1226 140.46 79.0809 139.76 79.0809 139.76C79.0809 139.76 68.8629 140.512 65.3321 139.26C61.8012 138.008 55.1141 138.004 55.1141 138.004C55.1141 138.004 45.0211 138.256 41.7438 137.88C38.4665 137.504 36.6953 141.893 34.5534 140.637C32.4114 139.38 37.0738 127.225 38.5875 123.712C40.1013 120.199 36.5705 111.301 36.5705 111.301L41.1118 86.2633L42.1222 80.5879V62.7456L42.372 62.659C43.2932 62.302 44.1156 61.7322 44.7713 60.9967L45.9066 78.9519L81.4802 80.208V60" fill="#E7C7CA"/>
<path opacity="0.1" d="M87.2611 19.7097C87.0416 18.9242 86.7374 18.1086 86.106 17.5825C85.503 17.1598 84.8065 16.8817 84.073 16.7707C82.3167 16.3199 80.5312 15.9859 78.7286 15.7709C78.4711 14.9364 78.0814 14.1463 77.5735 13.4295C73.8002 8.22785 68.2171 3.32316 61.6484 2.21444C58.21 1.63189 54.2248 2.15431 52.0224 4.80021C50.8134 6.2547 50.2936 8.18275 49.073 9.61094C46.7204 12.3846 42.4735 12.7266 39.5087 14.8727C37.9262 16.0002 36.7787 17.6351 35.6583 19.2211C34.4454 20.9387 33.1979 22.7277 32.8128 24.7798C32.0428 28.8802 34.8189 32.7889 35.331 36.9269C36.4861 46.1838 26.3211 54.3958 28.2424 63.5287C29.3629 68.8543 34.403 72.6052 39.6165 74.5069C41.4531 75.1797 43.5516 75.8487 44.4102 77.57C44.7952 78.3217 44.8607 79.1899 45.2226 79.9491C46.4394 82.4822 50.4399 82.58 52.5884 80.7346C54.7369 78.8892 55.4146 75.9051 55.6687 73.1201C56.7006 60.958 51.7105 48.9424 52.2919 36.7502C52.4652 33.0632 53.5279 28.8802 56.9124 27.2114C61.4674 24.9564 66.9465 28.7148 71.9597 27.997C74.332 33.6313 74.8356 39.8497 73.3997 45.7779C72.6027 49.0213 71.2242 52.1671 71.1241 55.5121C70.974 60.6047 73.7886 65.2576 76.222 69.7601C76.7442 70.6021 77.0934 71.5352 77.2501 72.5075C77.2884 73.494 77.1003 74.4763 76.6995 75.3826C75.3249 78.9945 72.9531 82.3469 72.6835 86.1918C72.6046 86.6406 72.7082 87.1018 72.9723 87.4771C73.2436 87.7277 73.5937 87.8813 73.9657 87.9131C78.1241 88.6084 81.7204 85.0116 83.7496 81.3998C86.0119 77.4106 87.3302 72.9775 87.6076 68.4259C88.0273 60.7738 85.2165 53.2458 85.3898 45.5862C85.59 36.878 89.6214 28.1097 87.2611 19.7097Z" fill="black"/>
<path d="M87.2734 18.9156C87.0576 18.121 86.7585 17.296 86.1376 16.7637C85.5446 16.3361 84.8598 16.0548 84.1384 15.9424C82.4114 15.4864 80.6557 15.1485 78.8832 14.9311C78.63 14.0868 78.2467 13.2876 77.7473 12.5624C74.0368 7.30027 68.5468 2.33855 62.0875 1.21693C58.7065 0.627612 54.7877 1.1561 52.622 3.83277C51.4332 5.30418 50.922 7.25465 49.7218 8.69944C47.4084 11.5054 43.2322 11.8514 40.3168 14.0224C38.7607 15.163 37.6324 16.8169 36.5306 18.4214C35.338 20.1589 34.1112 21.9687 33.7326 24.0447C32.9754 28.1927 35.7053 32.1469 36.2088 36.333C37.3447 45.6975 27.3491 54.0051 29.2384 63.2442C30.3402 68.6317 35.2963 72.4262 40.4228 74.35C42.2289 75.0306 44.2924 75.7074 45.1367 77.4488C45.5153 78.2092 45.5797 79.0874 45.9356 79.8555C47.132 82.4181 51.0659 82.5169 53.1786 80.6501C55.2913 78.7833 55.9577 75.7644 56.2076 72.9471C57.2223 60.6435 52.3153 48.4883 52.8871 36.1543C53.0574 32.4245 54.1024 28.1927 57.4305 26.5046C61.9096 24.2234 67.2974 28.0254 72.227 27.2992C74.5598 32.9991 75.055 39.2898 73.6431 45.2869C72.8593 48.5681 71.5038 51.7505 71.4054 55.1343C71.2577 60.2861 74.0255 64.9931 76.4183 69.548C76.9318 70.3998 77.2752 71.3438 77.4293 72.3273C77.4669 73.3253 77.282 74.319 76.8878 75.2359C75.5362 78.8897 73.2038 82.2812 72.9388 86.1707C72.8611 86.6248 72.963 87.0913 73.2228 87.471C73.4895 87.7245 73.8338 87.8799 74.1996 87.9121C78.2887 88.6155 81.8251 84.9769 83.8204 81.3231C86.045 77.2875 87.3413 72.8028 87.6142 68.1983C88.0269 60.4572 85.2629 52.8416 85.4333 45.093C85.6302 36.2836 89.5944 27.4133 87.2734 18.9156Z" fill="#3E373A"/>
<path d="M79 187.525L94 188L91.8485 177L80.3575 178.081L79 187.525Z" fill="#C3C7D9"/>
<path d="M125.566 161.311C124.558 162.617 120.66 164.97 120.282 165.754C119.905 166.539 115.251 168.892 112.859 169.284C110.466 169.676 102.922 171.378 101.537 172.292C100.544 172.951 92.5774 175.038 87.3429 176.195C85.9251 176.543 84.4901 176.812 83.0443 176.999C80.7799 177.128 56 168.37 56 168.37L60.7778 163.272L61.042 163.178C62.3931 162.703 68.6353 160.511 72.0998 159.467C76.0021 158.291 80.5309 153.455 80.5309 153.455C80.5309 153.455 87.1957 151.102 88.0788 150.839C88.9619 150.576 85.8144 141.689 85.8144 141.689C85.8144 141.689 100.28 139.603 105.941 137.834C111.602 136.065 124.686 136.72 127.075 143.65C129.464 150.58 126.588 160.005 125.566 161.311Z" fill="#4B4B5B"/>
<path d="M59 182.419C59 182.419 56.1046 185.458 53.2055 185.207C50.3064 184.957 40.1689 185.967 40.1689 185.967C38.3318 186.703 36.6115 187.705 35.0624 188.941C32.6924 190.817 31.4337 189.321 31.1994 189.002L31.1578 188.941C29.8953 192.933 27 189.891 27 189.891C27 189.891 28.2587 177.736 27.8731 176.217C27.4876 174.697 30.364 172.088 30.364 172.088L33.7659 171.218L42.3839 169L54.7326 173.303L59 182.419Z" fill="#E7C7CA"/>
<path opacity="0.1" d="M34 172L31.3544 189.081L31.3113 189.022C30.0022 192.857 27 189.934 27 189.934C27 189.934 28.3052 178.26 27.9054 176.801C27.5056 175.342 30.4882 172.835 30.4882 172.835L34 172Z" fill="black"/>
<path opacity="0.1" d="M52 121C52 121 58.4218 123.25 64 121H52Z" fill="black"/>
<path opacity="0.1" d="M74 125C74 125 76.8192 127.25 79 125H74Z" fill="black"/>
<path opacity="0.1" d="M73 136C73 136 81.8122 134.286 84 132L73 136Z" fill="black"/>
<path opacity="0.1" d="M46 132C46 132 51.161 136.182 55 135.994L46 132Z" fill="black"/>
<path opacity="0.1" d="M86.9681 176.184C85.5672 176.537 84.1494 176.809 82.7209 176.999C80.4836 177.13 56 168.259 56 168.259L60.7207 163.095L60.9817 163C61.7275 163.56 62.339 164.041 62.7753 164.406C64.8299 166.13 66.8137 163.878 67.5594 163.878C68.3052 163.878 74.7673 169.57 74.7673 169.57C74.7673 169.57 80.7334 171.028 81.729 172.351C82.7246 173.674 86.2036 173.412 86.8226 174.337C87.0091 174.623 87.0314 175.326 86.9681 176.184Z" fill="black"/>
<path d="M40.2194 142.504C40.2194 142.504 34.08 142.857 30.5399 141.362C26.9997 139.866 15.237 136.415 11.8221 138.839C8.40713 141.263 0.184673 143.405 3.97907 153.049C7.77347 162.692 9.54545 162.943 9.54545 162.943C10.7195 163.826 11.7444 164.892 12.581 166.101C13.7193 167.878 24.3436 171.935 26.9997 171.935C29.6558 171.935 34.3343 171.935 40.91 176.502C47.4856 181.068 53.4315 181.578 53.4315 181.578C53.4315 181.578 61.7791 185.003 64.3783 185.764C66.9775 186.525 78.854 189.821 81.639 188.809C84.4241 187.796 86.1923 181.449 86.1923 181.449C86.1923 181.449 87.4558 175.741 86.8222 174.854C86.1885 173.967 82.6483 174.218 81.639 172.951C80.6297 171.684 74.5549 170.287 74.5549 170.287C74.5549 170.287 67.9944 164.83 67.2355 164.83C66.4766 164.83 64.458 166.984 62.3673 165.336C58.2026 162.243 53.8271 159.445 49.2728 156.964C44.4691 154.426 40.2194 142.504 40.2194 142.504Z" fill="#4B4B5B"/>
<path opacity="0.1" d="M28 146.14C29.1229 145.927 30.2837 145.957 31.3918 146.23C32.4999 146.503 33.5255 147.011 34.3886 147.713C37.5069 150.136 48 155 48 155" fill="black"/>
<path opacity="0.1" d="M104 146C104 146 90.5174 148.121 88 151L104 146Z" fill="black"/>
<path d="M119.426 188.824H118.819C116.639 188.744 109.254 188.507 107.832 188.824C106.159 189.22 84 188.824 84 188.824L88.3321 187.9C88.3321 187.9 86.7245 182.119 87.7447 181.64C87.7447 181.64 81.948 177.722 86.3187 175.078C90.6894 172.433 95.4002 173.548 95.4002 173.548L106.371 169.733L108.478 169C108.478 169 120.844 169.662 124.19 178.385C127.537 187.107 119.426 188.824 119.426 188.824Z" fill="#E7C7CA"/>
<path opacity="0.1" d="M119.314 188H118.696C122.365 185.079 130.666 176.185 106 169.704L108.148 169C108.148 169 120.761 169.635 124.174 178.004C127.588 186.372 119.314 188 119.314 188Z" fill="black"/>
<path d="M93 180C93.5523 180 94 179.552 94 179C94 178.448 93.5523 178 93 178C92.4477 178 92 178.448 92 179C92 179.552 92.4477 180 93 180Z" fill="#4B4B5B"/>
<g opacity="0.1">
<path opacity="0.1" d="M74.3248 37.8887C74.4727 33.6963 73.7269 29.5203 72.137 25.6381C67.1818 26.3776 61.754 22.5545 57.2411 24.8415C53.9021 26.5339 52.8539 30.7762 52.6671 34.5154C52.6213 35.5027 52.6137 36.4899 52.6328 37.4771C52.6328 37.1264 52.6328 36.7719 52.6671 36.4213C52.8424 32.682 53.8906 28.4397 57.2411 26.7473C61.754 24.4603 67.1742 28.272 72.137 27.544C73.4834 30.8323 74.2246 34.3368 74.3248 37.8887Z" fill="black"/>
<path opacity="0.1" d="M35.9265 37.1912C35.9918 36.3607 35.9752 35.5257 35.8769 34.6984C35.4729 31.3442 33.6395 28.1386 33.3079 24.8682C32.881 28.8132 35.3929 32.602 35.8769 36.6042C35.9265 36.8101 35.9265 36.993 35.9265 37.1912Z" fill="black"/>
<path opacity="0.1" d="M56.0098 71.3969C55.7735 74.2251 55.1065 77.2477 52.9605 79.1231C50.8146 80.9984 46.8619 80.8955 45.6688 78.3264C45.2877 77.5641 45.2305 76.676 44.8608 75.9137C44.0146 74.1679 41.9334 73.4895 40.1153 72.8072C34.9505 70.8747 29.9687 67.0897 28.8595 61.6734C28.7604 61.1827 28.6929 60.6862 28.6575 60.1868C28.5638 61.3215 28.6318 62.4637 28.8595 63.5792C29.9687 68.9803 34.9581 72.7805 40.1153 74.713C41.9334 75.3953 44.0146 76.0738 44.8608 77.8195C45.2419 78.5818 45.3067 79.4623 45.6688 80.2323C46.8695 82.8013 50.8298 82.9004 52.9605 81.0289C55.0912 79.1574 55.7545 76.1309 56.0098 73.3027C56.1259 71.8141 56.1653 70.3205 56.128 68.8278C56.128 69.6931 56.0784 70.5469 56.0098 71.3969Z" fill="black"/>
<path opacity="0.1" d="M85.4512 43.4766C85.4512 44.0293 85.4512 44.5782 85.4512 45.1271C85.6646 38.0374 88.2642 30.9096 88.0088 23.9686C87.8106 30.3874 85.596 36.9511 85.4512 43.4766Z" fill="black"/>
<path opacity="0.1" d="M77.2713 72.1554C77.3651 71.7031 77.3946 71.2399 77.359 70.7794C77.2055 69.793 76.8597 68.8463 76.3413 67.9931C74.1382 63.8003 71.6263 59.5084 71.329 54.8544C71.329 55.0526 71.3023 55.2355 71.2985 55.449C71.146 60.6099 73.9323 65.3326 76.3413 69.8989C76.7507 70.6062 77.0635 71.3651 77.2713 72.1554Z" fill="black"/>
<path opacity="0.1" d="M87.6428 66.64C87.3583 71.2578 86.0442 75.7536 83.7969 79.7977C81.7843 83.4607 78.228 87.1085 74.1077 86.4033C73.7385 86.3715 73.3914 86.2141 73.1243 85.9574C73.0469 85.8701 72.9861 85.7693 72.9451 85.66C72.8994 85.9574 72.8613 86.2585 72.8384 86.5634C72.7596 87.0174 72.8623 87.4842 73.1243 87.8632C73.3914 88.1199 73.7385 88.2773 74.1077 88.3091C78.228 89.0143 81.7843 85.3666 83.7969 81.7036C86.0442 77.6594 87.3583 73.1637 87.6428 68.5458C87.6885 67.6538 87.6924 66.7657 87.6657 65.8776C87.6581 66.133 87.6581 66.3846 87.6428 66.64Z" fill="black"/>
</g>
<path opacity="0.1" d="M88 181.216C88 181.216 97.6419 184.693 104 177" stroke="black" stroke-miterlimit="10"/>
<path opacity="0.1" d="M90 189C90 189 97.9162 182.397 108 188.784" stroke="black" stroke-miterlimit="10"/>
<path opacity="0.1" d="M38 187C38 187 41.2693 179.369 50 185.188" stroke="black" stroke-miterlimit="10"/>
<path opacity="0.1" d="M27 76.5757L33.6499 70.3803C33.6499 70.3803 59.434 68.6379 60.501 77.6715C60.501 77.6715 69.6417 66.9613 88.8662 69.3465L97 76.022L74.5183 86.19L52.6714 94L36.5803 86.5772L27 76.5757Z" fill="black"/>
<path d="M27 76.8787L33.6499 70.4356C33.6499 70.4356 59.434 68.6234 60.501 78.0183C60.501 78.0183 69.6417 66.8798 88.8662 69.3604L97 76.3028L74.5183 86.8776L52.6714 95L36.5803 87.2803L27 76.8787Z" fill="#D5D6DB"/>
<path opacity="0.1" d="M24 78L26.931 113.423L58 115L56.6524 79.7282L56.6262 79.1345L24 78Z" fill="black"/>
<path d="M24 78L26.931 112.466L58 114L56.6524 79.6815L56.6262 79.1038L24 78Z" fill="#6C63FF"/>
<path opacity="0.1" d="M99 78L66 82.8031V118L98.2484 113.477L99 78Z" fill="black"/>
<path d="M99 77L66 81.8031V117L98.2484 112.477L99 77Z" fill="#6C63FF"/>
<path opacity="0.3" d="M92 85L74 86.9675L74.3931 93L91.9883 91.1091L92 85Z" fill="white"/>
<path d="M28.7411 131.887L30.4781 136.578C30.4781 136.578 33.0594 138.8 35.8842 137.689C38.709 136.578 41.1724 136.027 42.4004 134.945C43.6284 133.864 45.3506 128.433 45.3506 128.433C45.3506 128.433 47.0727 122.508 48.7912 121.027C50.5097 119.546 55.0603 99.1416 48.7912 101.137C42.5221 103.133 37.7281 121.646 37.7281 121.646C37.7281 121.646 36.6218 123.001 35.025 123.127C33.4282 123.253 30.231 122.879 29.6151 124.238C28.9993 125.596 26.8973 129.173 28.7411 131.887Z" fill="#BE6F72"/>
<path opacity="0.1" d="M66 82.4251C64.4288 82.8078 62.7966 82.7878 61.2338 82.3667C59.671 81.9456 58.2211 81.1351 57 80L58.2939 116.129C58.2939 116.129 61.3405 119.693 66 118.879V82.4251Z" fill="black"/>
<path d="M66 81.4251C64.4288 81.8078 62.7966 81.7878 61.2338 81.3667C59.671 80.9456 58.2211 80.1351 57 79L58.2939 115.129C58.2939 115.129 61.3405 118.693 66 117.879V81.4251Z" fill="#6C63FF"/>
<path opacity="0.1" d="M66 81.4251C64.4288 81.8078 62.7966 81.7878 61.2338 81.3667C59.671 80.9456 58.2211 80.1351 57 79L58.2939 115.129C58.2939 115.129 61.3405 118.693 66 117.879V81.4251Z" fill="black"/>
<path opacity="0.1" d="M67 78C67 78 80.4846 73.4168 84 74.0623L67 78Z" fill="black"/>
<path opacity="0.1" d="M52 76C52 76 40.0041 73.3922 38 74.1322L52 76Z" fill="black"/>
<path opacity="0.1" d="M75 78C75 78 84.5481 74.9362 88 76.3927L75 78Z" fill="black"/>
<path opacity="0.1" d="M71 159C72.3939 158.072 73.8777 157.255 75.434 156.558C77.7514 155.568 82 153 82 153" fill="black"/>
<path opacity="0.1" d="M38 121C38 121 32.4023 125.602 30.7203 126.006C29.0383 126.411 28 130 28 130" fill="black"/>
<path d="M96.2244 130.876L94.4336 135.578C94.4336 135.578 91.7434 137.8 88.7958 136.689C85.8482 135.578 83.2887 135.027 82.0051 133.945C80.7215 132.864 78.9306 127.433 78.9306 127.433C78.9306 127.433 77.1398 121.508 75.345 120.027C73.5503 118.546 68.8118 98.1416 75.345 100.137C81.8783 102.133 86.8743 120.646 86.8743 120.646C86.8743 120.646 88.0272 122.001 89.6912 122.127C91.3553 122.253 94.6872 121.879 95.329 123.238C95.9708 124.596 98.146 128.173 96.2244 130.876Z" fill="#BE6F72"/>
<path opacity="0.1" d="M92 123C92 123 97.021 125.277 96.9999 128L92 123Z" fill="black"/>
<path d="M62 55C71.3888 55 79 47.165 79 37.5C79 27.835 71.3888 20 62 20C52.6112 20 45 27.835 45 37.5C45 47.165 52.6112 55 62 55Z" fill="#BE6F72"/>
<path d="M51.3188 33.9447C53.3572 33.6208 55.1437 32.4205 57.0918 31.7309C61.4508 30.1801 66.2723 31.2431 70.6839 32.6415C72.3763 33.1788 74.095 33.7846 75.8702 33.7846C77.6454 33.7846 79.5296 33.0492 80.436 31.4984C81.2709 30.0734 81.1092 28.2216 80.4059 26.7241C79.7026 25.2266 78.5254 24.0226 77.337 22.8871C73.4256 19.1454 68.574 15.6475 63.2071 16.0285C61.0484 16.1847 58.9836 16.9659 56.9978 17.8308C54.4974 18.9225 52.0635 20.1643 49.7091 21.5497C47.9001 22.6128 44.5491 24.034 43.5073 25.9773C41.138 30.3553 47.6331 34.5315 51.3188 33.9447Z" fill="#3E373A"/>
<path opacity="0.1" d="M80.4339 29.1616C79.5276 30.7864 77.6436 31.5568 75.8686 31.5568C74.0936 31.5568 72.375 30.9461 70.679 30.3832C66.2678 28.9181 61.4505 27.8004 57.0883 29.4291C55.144 30.1517 53.354 31.4251 51.3158 31.7445C48.3449 32.2395 43.5615 29.493 43.0425 26C42.4596 30.0359 48.0065 33.4929 51.3158 32.942C53.354 32.6027 55.144 31.3453 57.0883 30.6267C61.4505 28.998 66.2678 30.1157 70.679 31.5808C72.375 32.1437 74.0898 32.7784 75.8686 32.7544C77.6473 32.7305 79.5276 31.988 80.4339 30.3592C80.9037 29.4732 81.0885 28.4487 80.9604 27.4411C80.9017 28.0477 80.7223 28.6342 80.4339 29.1616Z" fill="black"/>
<defs>
<linearGradient id="paint0_linear" x1="64.9978" y1="191.011" x2="64.9978" y2="-0.0028691" gradientUnits="userSpaceOnUse">
<stop stop-color="#808080" stop-opacity="0.25"/>
<stop offset="0.54" stop-color="#808080" stop-opacity="0.12"/>
<stop offset="1" stop-color="#808080" stop-opacity="0.1"/>
</linearGradient>
</defs>
</svg>
