<svg width="218" height="56" viewBox="0 0 218 56" fill="none" xmlns="http://www.w3.org/2000/svg">
<path d="M35.6695 3.02604C23.9221 7.01574 13.9478 35.6087 9.73648 35.387C7.48675 35.2686 6.33074 33.3975 5.37094 31.3973C4.57345 29.7353 2.58912 28.8477 1.14105 29.9886C-0.671008 31.4163 -1.12736 33.6913 5.96842 36.9386C19.0458 42.9231 20.3756 13.6653 35.6695 6.7941C50.9634 -0.0770807 62.4893 3.46933 55.3964 12.7787C53.5338 15.2233 51.5247 16.9229 49.4177 18.0952C41.3772 22.5689 27.2723 22.8142 28.2842 31.9597C28.4195 33.1825 28.979 34.3527 30.1282 35.387C36.7778 41.3716 62.0457 35.387 66.0358 34.722C71.7987 33.3922 68.474 29.1808 67.3658 28.5159C62.089 25.3498 55.9131 34.7673 49.7709 35.1422C43.6621 35.515 39.3335 35.2749 36.3735 34.6193C25.8468 32.2876 41.9121 23.9008 52.2942 20.9923C68.6374 16.4138 68.3791 4.41949 63.8193 2.13945C58.0561 -0.742019 47.4169 -0.963666 35.6695 3.02604Z" fill="url(#paint0_linear)"/>
<path d="M92.9416 26.3062C92.9416 27.6602 92.6993 28.924 92.2139 30.0975C91.7286 31.2597 91.0693 32.2697 90.2337 33.1272C89.3989 33.9735 88.4176 34.6449 87.2888 35.1414C86.1715 35.6266 84.9698 35.8692 83.6831 35.8692C82.4085 35.8692 81.2068 35.6266 80.0781 35.1414C78.9615 34.6449 77.9794 33.9735 77.1332 33.1272C76.2984 32.2697 75.6384 31.2597 75.153 30.0975C74.6676 28.924 74.4253 27.6602 74.4253 26.3062C74.4253 24.9295 74.6676 23.6545 75.153 22.4809C75.6384 21.3074 76.2984 20.2975 77.1332 19.4512C77.9794 18.5936 78.9615 17.9222 80.0781 17.437C81.2068 16.9519 82.4085 16.7092 83.6831 16.7092C84.9698 16.7092 86.1715 16.9406 87.2888 17.4031C88.4176 17.8546 89.3989 18.5034 90.2337 19.3496C91.0693 20.1847 91.7286 21.1945 92.2139 22.3793C92.6993 23.5529 92.9416 24.8618 92.9416 26.3062ZM88.2869 26.3062C88.2869 25.5614 88.1631 24.89 87.9147 24.2919C87.6777 23.6826 87.3503 23.1637 86.9326 22.7348C86.5156 22.2948 86.0249 21.9618 85.4605 21.7362C84.9075 21.4993 84.3151 21.3808 83.6831 21.3808C83.0511 21.3808 82.4533 21.4993 81.8889 21.7362C81.3367 21.9618 80.8514 22.2948 80.4336 22.7348C80.0272 23.1637 79.7059 23.6826 79.4689 24.2919C79.2319 24.89 79.1134 25.5614 79.1134 26.3062C79.1134 27.0058 79.2319 27.6546 79.4689 28.2526C79.7059 28.8506 80.0272 29.3697 80.4336 29.8098C80.8514 30.2498 81.3367 30.5997 81.8889 30.8592C82.4533 31.1074 83.0511 31.2316 83.6831 31.2316C84.3151 31.2316 84.9075 31.113 85.4605 30.8761C86.0249 30.6392 86.5156 30.3063 86.9326 29.8775C87.3503 29.4487 87.6777 28.9296 87.9147 28.3203C88.1631 27.7111 88.2869 27.0396 88.2869 26.3062ZM108.818 33.415C108.446 33.7534 108.045 34.0751 107.617 34.3797C107.199 34.6731 106.758 34.9326 106.296 35.1583C105.833 35.3727 105.354 35.542 104.857 35.6661C104.372 35.8015 103.876 35.8692 103.368 35.8692C102.251 35.8692 101.201 35.6718 100.22 35.2768C99.2386 34.8819 98.3749 34.3234 97.6298 33.6011C96.8968 32.8677 96.3157 31.9819 95.8873 30.9438C95.4695 29.8944 95.2606 28.7208 95.2606 27.4232V17.4031H99.8645V27.4232C99.8645 28.0326 99.9548 28.5799 100.136 29.0651C100.327 29.5389 100.581 29.9396 100.897 30.2668C101.213 30.594 101.58 30.8422 101.997 31.0115C102.426 31.1808 102.882 31.2654 103.368 31.2654C103.842 31.2654 104.288 31.1582 104.705 30.9438C105.134 30.7181 105.507 30.4247 105.822 30.0636C106.139 29.7025 106.386 29.2964 106.567 28.845C106.748 28.3824 106.837 27.9084 106.837 27.4232V17.4031H111.458V35.5306H110.341L108.818 33.415ZM124.085 35.5306C122.969 35.5306 121.919 35.3219 120.937 34.9044C119.955 34.4757 119.093 33.8945 118.347 33.161C117.614 32.4163 117.033 31.5532 116.604 30.5714C116.186 29.5897 115.977 28.5404 115.977 27.4232V22.0408H113.726V17.437H115.977V10.1928H120.582V17.437H127.589V22.0408H120.582V27.4232C120.582 27.9084 120.672 28.3655 120.852 28.7943C121.032 29.2117 121.281 29.5785 121.597 29.8944C121.913 30.2104 122.286 30.4642 122.714 30.656C123.143 30.8366 123.6 30.9269 124.085 30.9269H127.589V35.5306H124.085ZM137.406 31.0961C137.586 31.1526 137.767 31.1921 137.948 31.2146C138.128 31.2259 138.308 31.2316 138.489 31.2316C138.94 31.2316 139.375 31.1694 139.793 31.0453C140.21 30.9213 140.599 30.7463 140.96 30.5207C141.332 30.2837 141.66 30.0016 141.941 29.6743C142.235 29.3359 142.472 28.9635 142.652 28.5572L146.038 31.9593C145.61 32.5686 145.113 33.1159 144.548 33.6011C143.995 34.0863 143.392 34.4982 142.738 34.8367C142.094 35.1752 141.411 35.4291 140.69 35.5983C139.978 35.7789 139.245 35.8692 138.489 35.8692C137.214 35.8692 136.012 35.6323 134.884 35.1583C133.766 34.6844 132.785 34.0242 131.939 33.1781C131.104 32.3317 130.444 31.3274 129.958 30.1653C129.473 28.9917 129.231 27.7053 129.231 26.3062C129.231 24.8731 129.473 23.5642 129.958 22.3793C130.444 21.1945 131.104 20.1847 131.939 19.3496C132.785 18.5146 133.766 17.8659 134.884 17.4031C136.012 16.9406 137.214 16.7092 138.489 16.7092C139.245 16.7092 139.984 16.7995 140.706 16.9801C141.429 17.1606 142.111 17.4202 142.755 17.7586C143.409 18.0972 144.018 18.5146 144.583 19.0112C145.146 19.4963 145.643 20.0436 146.072 20.6529L137.406 31.0961ZM139.775 21.5669C139.561 21.4879 139.346 21.4372 139.133 21.4146C138.928 21.392 138.715 21.3808 138.489 21.3808C137.857 21.3808 137.259 21.4993 136.694 21.7362C136.141 21.9618 135.656 22.2892 135.24 22.7179C134.833 23.1466 134.511 23.6657 134.274 24.275C134.037 24.8731 133.919 25.5501 133.919 26.3062C133.919 26.4754 133.925 26.6672 133.936 26.8816C133.958 27.096 133.986 27.316 134.02 27.5417C134.066 27.7561 134.116 27.9648 134.172 28.1679C134.229 28.3711 134.302 28.5516 134.393 28.7096L139.775 21.5669Z" fill="#A3A3A3"/>
<path d="M92.2118 30.0975L92.6121 30.2644V30.2631L92.2118 30.0975ZM90.2316 33.1272L90.54 33.4315L90.5423 33.4295L90.2316 33.1272ZM87.2867 35.1414L87.4591 35.5388L87.4614 35.538L87.2867 35.1414ZM80.076 35.1414L79.9005 35.5374L79.9051 35.5394L80.076 35.1414ZM77.1311 33.1272L76.8212 33.4295L76.825 33.4335L77.1311 33.1272ZM75.1509 30.0975L74.7506 30.2631L74.7513 30.2644L75.1509 30.0975ZM77.1311 19.4512L76.8227 19.1469L77.1311 19.4512ZM80.076 17.4371L79.9051 17.0391L79.9036 17.0397L80.076 17.4371ZM87.2867 17.4033L87.1204 17.8036L87.1257 17.8056L87.2867 17.4033ZM90.2316 19.3497L89.9232 19.654L89.9255 19.6561L90.2316 19.3497ZM92.2118 22.3794L91.8115 22.5436V22.545L92.2118 22.3794ZM87.9126 24.292L87.5085 24.4491L87.5131 24.4581L87.9126 24.292ZM86.9312 22.7348L86.6168 23.0331L86.6206 23.0372L86.9312 22.7348ZM85.4592 21.7362L85.2883 22.1346L85.2981 22.1386L85.4592 21.7362ZM81.8876 21.7362L82.0509 22.1374L82.0555 22.1357L81.8876 21.7362ZM80.4315 22.7348L80.1178 22.4366L80.117 22.4369L80.4315 22.7348ZM79.4668 24.292L79.8702 24.4516L79.8709 24.4491L79.4668 24.292ZM80.4315 29.8097L80.1132 30.1037L80.1178 30.108L80.4315 29.8097ZM81.8876 30.8592L81.703 31.2515L81.7129 31.2558L81.8876 30.8592ZM85.4592 30.8761L85.2913 30.4766L85.2883 30.4778L85.4592 30.8761ZM87.9126 28.3203L87.5116 28.1568L87.5085 28.1633L87.9126 28.3203ZM92.5066 26.3062C92.5066 27.6072 92.2734 28.8144 91.8115 29.932L92.6121 30.2631C93.1211 29.0336 93.3732 27.7132 93.3732 26.3062H92.5066ZM91.8123 29.9306C91.3467 31.0452 90.7162 32.0085 89.9217 32.825L90.5423 33.4295C91.4173 32.5309 92.107 31.4744 92.6121 30.2644L91.8123 29.9306ZM89.9232 32.8229C89.1287 33.6288 88.1929 34.2695 87.112 34.7447L87.4614 35.538C88.638 35.0203 89.6657 34.3182 90.54 33.4315L89.9232 32.8229ZM87.1135 34.744C86.0547 35.2041 84.9123 35.4359 83.6817 35.4359V36.3024C85.0239 36.3024 86.2848 36.0489 87.4591 35.5388L87.1135 34.744ZM83.6817 35.4359C82.4634 35.4359 81.3202 35.2044 80.2477 34.7433L79.9051 35.5394C81.09 36.0488 82.3502 36.3024 83.6817 36.3024V35.4359ZM80.2522 34.7454C79.1827 34.27 78.2454 33.6287 77.438 32.8208L76.825 33.4335C77.7099 34.3183 78.7361 35.0197 79.9005 35.5374L80.2522 34.7454ZM77.4418 32.825C76.6465 32.0085 76.016 31.0452 75.5512 29.9306L74.7513 30.2644C75.2565 31.4744 75.9462 32.5309 76.8212 33.4295L77.4418 32.825ZM75.5512 29.932C75.0894 28.8144 74.8562 27.6072 74.8562 26.3062H73.9902C73.9902 27.7132 74.2424 29.0336 74.7506 30.2631L75.5512 29.932ZM74.8562 26.3062C74.8562 24.9815 75.0894 23.7632 75.5512 22.6466L74.7506 22.3155C74.2417 23.5457 73.9902 24.8775 73.9902 26.3062H74.8562ZM75.5512 22.6466C76.0168 21.5212 76.6465 20.5594 77.4395 19.7556L76.8227 19.1469C75.9462 20.0357 75.2557 21.0937 74.7506 22.3155L75.5512 22.6466ZM77.4395 19.7556C78.2469 18.9379 79.182 18.2979 80.2492 17.8345L79.9036 17.0397C78.7361 17.5467 77.7084 18.2494 76.8227 19.1469L77.4395 19.7556ZM80.2477 17.8352C81.3202 17.3741 82.4634 17.1426 83.6817 17.1426V16.276C82.3502 16.276 81.09 16.5297 79.9051 17.0391L80.2477 17.8352ZM83.6817 17.1426C84.9145 17.1426 86.06 17.3641 87.1204 17.8036L87.4523 17.003C86.2795 16.5171 85.0209 16.276 83.6817 16.276V17.1426ZM87.1257 17.8056C88.2005 18.2352 89.131 18.8512 89.9232 19.654L90.54 19.0454C89.6627 18.1557 88.6304 17.474 87.447 17.001L87.1257 17.8056ZM89.9255 19.6561C90.7162 20.4471 91.3459 21.4075 91.8115 22.5436L92.6129 22.2152C92.1078 20.9817 91.4173 19.9223 90.5385 19.0433L89.9255 19.6561ZM91.8115 22.545C92.2726 23.6593 92.5066 24.9109 92.5066 26.3062H93.3732C93.3732 24.8127 93.1218 23.4466 92.6121 22.2138L91.8115 22.545ZM88.7185 26.3062C88.7185 25.5129 88.5864 24.784 88.3129 24.1259L87.5131 24.4581C87.7356 24.9963 87.8518 25.6099 87.8518 26.3062H88.7185ZM88.3167 24.135C88.0607 23.4765 87.703 22.9067 87.2419 22.4326L86.6206 23.0372C86.9943 23.4205 87.2913 23.8889 87.5085 24.4491L88.3167 24.135ZM87.2457 22.4366C86.7854 21.9511 86.2415 21.5828 85.6194 21.3339L85.2981 22.1386C85.804 22.341 86.2423 22.6384 86.6168 23.0331L87.2457 22.4366ZM85.6293 21.338C85.0201 21.0767 84.3692 20.9475 83.6817 20.9475V21.8141C84.2575 21.8141 84.7915 21.9219 85.2883 22.1345L85.6293 21.338ZM83.6817 20.9475C82.9943 20.9475 82.3388 21.0767 81.7197 21.3367L82.0555 22.1357C82.5644 21.9219 83.1052 21.8141 83.6817 21.8141V20.9475ZM81.7235 21.3351C81.1128 21.5844 80.5766 21.9527 80.1178 22.4366L80.746 23.0331C81.122 22.6369 81.5564 22.3395 82.0509 22.1374L81.7235 21.3351ZM80.117 22.4369C79.6689 22.9105 79.3187 23.4789 79.0635 24.135L79.8709 24.4491C80.0897 23.8865 80.3829 23.4167 80.7467 23.0328L80.117 22.4369ZM79.0642 24.1324C78.8045 24.7886 78.6784 25.5153 78.6784 26.3062H79.5451C79.5451 25.6076 79.656 24.9915 79.8702 24.4516L79.0642 24.1324ZM78.6784 26.3062C78.6784 27.0556 78.8052 27.7591 79.0642 28.4122L79.8702 28.093C79.6544 27.55 79.5451 26.9559 79.5451 26.3062H78.6784ZM79.0642 28.4122C79.3195 29.0562 79.6681 29.6216 80.1132 30.1037L80.7505 29.5159C80.3829 29.1178 80.0889 28.6451 79.8702 28.093L79.0642 28.4122ZM80.1178 30.108C80.5728 30.5875 81.1022 30.9691 81.703 31.2514L82.0714 30.467C81.5671 30.2302 81.1265 29.9122 80.746 29.5115L80.1178 30.108ZM81.7129 31.2558C82.3335 31.5288 82.9913 31.6649 83.6817 31.6649V30.7983C83.1083 30.7983 82.5697 30.686 82.0623 30.4625L81.7129 31.2558ZM83.6817 31.6649C84.3692 31.6649 85.0201 31.5356 85.6293 31.2744L85.2883 30.4778C84.7915 30.6905 84.2575 30.7983 83.6817 30.7983V31.6649ZM85.6263 31.2756C86.2431 31.0166 86.7824 30.6511 87.2419 30.1798L86.6206 29.5753C86.2446 29.9614 85.8025 30.2617 85.2913 30.4766L85.6263 31.2756ZM87.2419 30.1798C87.703 29.7056 88.0607 29.1358 88.3167 28.4774L87.5085 28.1633C87.2913 28.7235 86.9943 29.1917 86.6206 29.5753L87.2419 30.1798ZM88.3137 28.4837C88.5864 27.8169 88.7185 27.0892 88.7185 26.3062H87.8518C87.8518 26.99 87.7371 27.605 87.5116 28.1568L88.3137 28.4837ZM108.816 33.4149L109.168 33.1618L108.885 32.7677L108.525 33.0943L108.816 33.4149ZM107.615 34.3798L107.864 34.7343L107.865 34.733L107.615 34.3798ZM106.294 35.1583L106.477 35.5516L106.484 35.5477L106.294 35.1583ZM104.856 35.666L104.751 35.2455L104.74 35.2487L104.856 35.666ZM97.6284 33.6011L97.3223 33.9075L97.3269 33.9122L97.6284 33.6011ZM95.8852 30.9438L95.4826 31.104L95.4841 31.1092L95.8852 30.9438ZM95.2585 17.4033V16.9699H94.8256V17.4033H95.2585ZM99.8624 17.4033H100.295V16.9699H99.8624V17.4033ZM100.134 29.0651L99.7272 29.2161L99.7294 29.222L99.7317 29.2277L100.134 29.0651ZM101.995 31.0115L101.832 31.4131L101.837 31.4145L101.995 31.0115ZM104.703 30.9438L104.901 31.3292L104.905 31.3272L104.703 30.9438ZM106.566 28.8451L106.967 29.0059L106.969 29.0025L106.566 28.8451ZM106.835 17.4033V16.9699H106.402V17.4033H106.835ZM111.457 17.4033H111.89V16.9699H111.457V17.4033ZM111.457 35.5307V35.9639H111.89V35.5307H111.457ZM110.339 35.5307L109.988 35.7838L110.117 35.9639H110.339V35.5307ZM108.525 33.0943C108.166 33.4206 107.779 33.7315 107.363 34.0265L107.865 34.733C108.308 34.4187 108.722 34.0862 109.108 33.7356L108.525 33.0943ZM107.366 34.0252C106.967 34.3053 106.546 34.5532 106.105 34.7688L106.484 35.5477C106.967 35.3121 107.428 35.041 107.864 34.7343L107.366 34.0252ZM106.112 34.7652C105.675 34.9681 105.22 35.1282 104.751 35.2457L104.961 36.0864C105.484 35.9557 105.989 35.7774 106.476 35.5514L106.112 34.7652ZM104.74 35.2487C104.292 35.3734 103.835 35.4359 103.366 35.4359V36.3024C103.912 36.3024 104.448 36.2295 104.971 36.0834L104.74 35.2487ZM103.366 35.4359C102.301 35.4359 101.307 35.2479 100.38 34.8748L100.056 35.6787C101.092 36.0955 102.197 36.3024 103.366 36.3024V35.4359ZM100.38 34.8748C99.4491 34.5004 98.6334 33.9723 97.93 33.2901L97.3269 33.9122C98.1123 34.6742 99.023 35.2633 100.056 35.6787L100.38 34.8748ZM97.9345 33.2948C97.2448 32.6048 96.6941 31.7682 96.2855 30.7784L95.4841 31.1092C95.933 32.1957 96.5445 33.1306 97.3223 33.9075L97.9345 33.2948ZM96.2878 30.7836C95.8935 29.7923 95.6923 28.6742 95.6923 27.4232H94.8256C94.8256 28.7677 95.0421 29.9966 95.4826 31.104L96.2878 30.7836ZM95.6923 27.4232V17.4033H94.8256V27.4232H95.6923ZM95.2585 17.8365H99.8624V16.9699H95.2585V17.8365ZM99.4286 17.4033V27.4232H100.295V17.4033H99.4286ZM99.4286 27.4232C99.4286 28.0752 99.5259 28.6748 99.7272 29.2161L100.539 28.914C100.38 28.4848 100.295 27.9899 100.295 27.4232H99.4286ZM99.7317 29.2277C99.9421 29.7467 100.225 30.1959 100.583 30.5677L101.206 29.9658C100.934 29.6831 100.709 29.3313 100.535 28.9025L99.7317 29.2277ZM100.583 30.5677C100.941 30.9382 101.358 31.2208 101.832 31.4131L102.158 30.61C101.797 30.4637 101.481 30.2499 101.206 29.9658L100.583 30.5677ZM101.837 31.4145C102.318 31.6048 102.829 31.6987 103.366 31.6987V30.8321C102.933 30.8321 102.529 30.7567 102.154 30.6085L101.837 31.4145ZM103.366 31.6987C103.909 31.6987 104.422 31.5755 104.901 31.3292L104.506 30.5583C104.15 30.741 103.772 30.8321 103.366 30.8321V31.6987ZM104.905 31.3272C105.381 31.077 105.795 30.7506 106.146 30.349L105.494 29.7784C105.214 30.0989 104.883 30.3592 104.501 30.5604L104.905 31.3272ZM106.146 30.349C106.495 29.9506 106.769 29.5022 106.967 29.0059L106.163 28.6841C106.001 29.0906 105.777 29.4546 105.494 29.7784L106.146 30.349ZM106.969 29.0025C107.169 28.4909 107.269 27.9637 107.269 27.4232H106.402C106.402 27.8534 106.323 28.2739 106.162 28.6875L106.969 29.0025ZM107.269 27.4232V17.4033H106.402V27.4232H107.269ZM106.835 17.8365H111.457V16.9699H106.835V17.8365ZM111.023 17.4033V35.5307H111.89V17.4033H111.023ZM111.457 35.0973H110.339V35.9639H111.457V35.0973ZM110.691 35.2774L109.168 33.1618L108.465 33.6681L109.988 35.7838L110.691 35.2774ZM120.935 34.9044L120.761 35.3015L120.765 35.3032L120.935 34.9044ZM118.345 33.161L118.036 33.4651L118.041 33.4698L118.345 33.161ZM116.602 30.5714L116.203 30.741L116.206 30.7449L116.602 30.5714ZM115.975 22.0409H116.409V21.6076H115.975V22.0409ZM113.724 22.0409H113.291V22.4742H113.724V22.0409ZM113.724 17.4371V17.0038H113.291V17.4371H113.724ZM115.975 17.4371V17.8704H116.409V17.4371H115.975ZM115.975 10.1929V9.75958H115.542V10.1929H115.975ZM120.58 10.1929H121.013V9.75958H120.58V10.1929ZM120.58 17.4371H120.146V17.8704H120.58V17.4371ZM127.587 17.4371H128.021V17.0038H127.587V17.4371ZM127.587 22.0409V22.4742H128.021V22.0409H127.587ZM120.58 22.0409V21.6076H120.146V22.0409H120.58ZM120.85 28.7943L120.451 28.9624L120.452 28.9662L120.85 28.7943ZM121.595 29.8944L121.902 29.588L121.595 29.8944ZM122.713 30.6561L122.535 31.0517L122.544 31.0554L122.713 30.6561ZM127.587 30.9269H128.021V30.4936H127.587V30.9269ZM127.587 35.5307V35.9639H128.021V35.5307H127.587ZM124.083 35.0973C123.022 35.0973 122.03 34.8992 121.104 34.5056L120.765 35.3032C121.804 35.7445 122.911 35.9639 124.083 35.9639V35.0973ZM121.109 34.5073C120.174 34.0993 119.356 33.5476 118.649 32.8524L118.041 33.4698C118.825 34.2414 119.732 34.852 120.761 35.3014L121.109 34.5073ZM118.654 32.857C117.959 32.151 117.407 31.3323 116.999 30.398L116.206 30.7449C116.654 31.7739 117.265 32.6816 118.036 33.4651L118.654 32.857ZM117.001 30.4019C116.607 29.4763 116.409 28.4849 116.409 27.4232H115.542C115.542 28.5959 115.762 29.7032 116.203 30.741L117.001 30.4019ZM116.409 27.4232V22.0409H115.542V27.4232H116.409ZM115.975 21.6076H113.724V22.4742H115.975V21.6076ZM114.158 22.0409V17.4371H113.291V22.0409H114.158ZM113.724 17.8704H115.975V17.0038H113.724V17.8704ZM116.409 17.4371V10.1929H115.542V17.4371H116.409ZM115.975 10.6262H120.58V9.75958H115.975V10.6262ZM120.146 10.1929V17.4371H121.013V10.1929H120.146ZM120.58 17.8704H127.587V17.0038H120.58V17.8704ZM127.154 17.4371V22.0409H128.021V17.4371H127.154ZM127.587 21.6076H120.58V22.4742H127.587V21.6076ZM120.146 22.0409V27.4232H121.013V22.0409H120.146ZM120.146 27.4232C120.146 27.9637 120.247 28.4781 120.451 28.9624L121.25 28.6261C121.093 28.2528 121.013 27.8532 121.013 27.4232H120.146ZM120.452 28.9662C120.654 29.433 120.933 29.8455 121.289 30.2008L121.902 29.588C121.625 29.3115 121.407 28.9905 121.248 28.6223L120.452 28.9662ZM121.289 30.2008C121.644 30.556 122.061 30.8393 122.535 31.0516L122.889 30.2605C122.506 30.0891 122.178 29.8647 121.902 29.588L121.289 30.2008ZM122.544 31.0554C123.028 31.2593 123.543 31.3602 124.083 31.3602V30.4936C123.652 30.4936 123.254 30.4138 122.881 30.2568L122.544 31.0554ZM124.083 31.3602H127.587V30.4936H124.083V31.3602ZM127.154 30.9269V35.5307H128.021V30.9269H127.154ZM127.587 35.0973H124.083V35.9639H127.587V35.0973ZM137.404 31.0961L137.07 30.8195L136.658 31.3169L137.275 31.5098L137.404 31.0961ZM137.946 31.2146L137.892 31.6446L137.904 31.6463L137.918 31.6471L137.946 31.2146ZM140.958 30.5207L141.187 30.8881L141.191 30.8862L140.958 30.5207ZM141.939 29.6744L141.612 29.3906L141.611 29.3914L141.939 29.6744ZM142.65 28.5573L142.958 28.2517L142.511 27.8032L142.255 28.3813L142.65 28.5573ZM146.036 31.9594L146.391 32.2087L146.599 31.9114L146.343 31.6537L146.036 31.9594ZM144.546 33.6011L144.264 33.2726L144.261 33.2754L144.546 33.6011ZM142.735 34.8367L142.536 34.4518L142.533 34.4533L142.735 34.8367ZM140.688 35.5984L140.589 35.1764L140.581 35.1784L140.688 35.5984ZM134.882 35.1583L134.712 35.5572L134.714 35.5578L134.882 35.1583ZM131.936 33.178L131.628 33.4823L131.63 33.4844L131.936 33.178ZM129.956 30.1652L129.556 30.3307L129.557 30.3321L129.956 30.1652ZM129.956 22.3794L129.555 22.2152L129.956 22.3794ZM131.936 19.3497L131.633 19.0413L131.63 19.0433L131.936 19.3497ZM134.882 17.4033L134.717 17.0024L134.716 17.003L134.882 17.4033ZM142.753 17.7587L142.551 18.1422L142.553 18.1435L142.753 17.7587ZM144.58 19.0112L144.294 19.3365L144.298 19.3397L144.58 19.0112ZM146.07 20.653L146.403 20.9297L146.615 20.6746L146.424 20.4036L146.07 20.653ZM139.773 21.567L140.119 21.8277L140.47 21.362L139.923 21.1604L139.773 21.567ZM139.13 21.4146L139.083 21.8453L139.085 21.8456L139.13 21.4146ZM136.692 21.7362L136.856 22.1374L136.861 22.1357L136.692 21.7362ZM135.238 22.7179L134.926 22.4156L134.923 22.4199L135.238 22.7179ZM134.272 24.275L134.675 24.4347L134.676 24.4321L134.272 24.275ZM133.934 26.8816L133.5 26.9044L133.502 26.9157L133.503 26.927L133.934 26.8816ZM134.018 27.5417L133.59 27.606L133.592 27.6186L133.595 27.631L134.018 27.5417ZM134.391 28.7096L134.015 28.9246L134.341 29.4957L134.736 28.9704L134.391 28.7096ZM137.275 31.5098C137.478 31.5736 137.685 31.6187 137.892 31.6446L137.999 30.7847C137.845 30.7654 137.69 30.7316 137.533 30.6826L137.275 31.5098ZM137.918 31.6471C138.107 31.6589 138.297 31.6649 138.487 31.6649V30.7983C138.315 30.7983 138.144 30.7929 137.972 30.7822L137.918 31.6471ZM138.487 31.6649C138.979 31.6649 139.454 31.5972 139.914 31.4607L139.667 30.6301C139.291 30.7417 138.898 30.7983 138.487 30.7983V31.6649ZM139.914 31.4607C140.368 31.3257 140.793 31.135 141.187 30.888L140.728 30.1533C140.401 30.3578 140.048 30.5168 139.667 30.6301L139.914 31.4607ZM141.191 30.8862C141.598 30.627 141.958 30.3173 142.268 29.9573L141.611 29.3914C141.358 29.6859 141.063 29.9403 140.726 30.1551L141.191 30.8862ZM142.268 29.9582C142.589 29.5876 142.849 29.1789 143.046 28.7333L142.255 28.3813C142.091 28.7481 141.878 29.0842 141.612 29.3906L142.268 29.9582ZM142.343 28.8629L145.728 32.265L146.343 31.6537L142.958 28.2517L142.343 28.8629ZM145.682 31.71C145.273 32.2902 144.801 32.8108 144.264 33.2726L144.829 33.9296C145.42 33.4211 145.941 32.8472 146.391 32.2087L145.682 31.71ZM144.261 33.2754C143.734 33.7374 143.16 34.1295 142.536 34.4518L142.934 35.2215C143.62 34.867 144.252 34.4352 144.833 33.9268L144.261 33.2754ZM142.533 34.4533C141.923 34.7743 141.276 35.0155 140.589 35.1765L140.786 36.0202C141.544 35.8427 142.261 35.5762 142.937 35.2202L142.533 34.4533ZM140.581 35.1784C139.906 35.3498 139.208 35.4359 138.487 35.4359V36.3024C139.278 36.3024 140.047 36.208 140.794 36.0183L140.581 35.1784ZM138.487 35.4359C137.267 35.4359 136.123 35.2095 135.049 34.7588L134.714 35.5578C135.898 36.0549 137.157 36.3024 138.487 36.3024V35.4359ZM135.052 34.7594C133.984 34.3069 133.049 33.678 132.243 32.8716L131.63 33.4844C132.516 34.3706 133.545 35.0619 134.712 35.5572L135.052 34.7594ZM132.245 32.8737C131.451 32.0692 130.821 31.1123 130.356 29.9983L129.557 30.3321C130.062 31.5425 130.752 32.5942 131.628 33.4823L132.245 32.8737ZM130.357 29.9996C129.895 28.8838 129.662 27.6543 129.662 26.3062H128.795C128.795 27.7564 129.046 29.0997 129.556 30.3307L130.357 29.9996ZM129.662 26.3062C129.662 24.9227 129.895 23.6704 130.357 22.5436L129.555 22.2152C129.046 23.458 128.795 24.8235 128.795 26.3062H129.662ZM130.357 22.5436C130.823 21.4075 131.452 20.4471 132.243 19.6561L131.63 19.0433C130.751 19.9223 130.06 20.9817 129.555 22.2152L130.357 22.5436ZM132.241 19.6581C133.047 18.8631 133.981 18.2453 135.048 17.8036L134.716 17.003C133.548 17.4866 132.519 18.1663 131.633 19.0413L132.241 19.6581ZM135.046 17.8042C136.119 17.3639 137.265 17.1426 138.487 17.1426V16.276C137.158 16.276 135.901 16.5174 134.717 17.0024L135.046 17.8042ZM138.487 17.1426C139.208 17.1426 139.912 17.2287 140.599 17.4004L140.81 16.5597C140.053 16.3705 139.278 16.276 138.487 16.276V17.1426ZM140.599 17.4004C141.289 17.5728 141.939 17.8201 142.551 18.1421L142.953 17.3752C142.28 17.0202 141.564 16.7485 140.81 16.5597L140.599 17.4004ZM142.553 18.1435C143.175 18.4655 143.756 18.8629 144.294 19.3365L144.866 18.6859C144.276 18.1666 143.637 17.7289 142.951 17.3739L142.553 18.1435ZM144.298 19.3397C144.835 19.8016 145.307 20.3223 145.715 20.9023L146.424 20.4036C145.974 19.765 145.454 19.1912 144.863 18.6827L144.298 19.3397ZM145.737 20.3763L137.07 30.8195L137.737 31.3728L146.403 20.9297L145.737 20.3763ZM139.923 21.1604C139.677 21.0697 139.427 21.0103 139.175 20.9838L139.085 21.8456C139.261 21.8641 139.44 21.9062 139.623 21.9736L139.923 21.1604ZM139.178 20.984C138.958 20.9595 138.727 20.9475 138.487 20.9475V21.8141C138.698 21.8141 138.897 21.8247 139.083 21.8453L139.178 20.984ZM138.487 20.9475C137.799 20.9475 137.144 21.0767 136.525 21.3367L136.861 22.1357C137.371 21.9219 137.911 21.8141 138.487 21.8141V20.9475ZM136.529 21.3351C135.921 21.5833 135.386 21.9443 134.926 22.4156L135.548 23.0202C135.924 22.634 136.359 22.3405 136.856 22.1374L136.529 21.3351ZM134.923 22.4199C134.474 22.8937 134.124 23.4621 133.868 24.118L134.676 24.4321C134.895 23.8695 135.188 23.3998 135.552 23.0159L134.923 22.4199ZM133.87 24.1155C133.609 24.7724 133.484 25.505 133.484 26.3062H134.35C134.35 25.5954 134.462 24.9739 134.675 24.4347L133.87 24.1155ZM133.484 26.3062C133.484 26.4847 133.49 26.6844 133.5 26.9044L134.366 26.8589C134.355 26.6502 134.35 26.4661 134.35 26.3062H133.484ZM133.503 26.927C133.526 27.1481 133.555 27.3744 133.59 27.606L134.447 27.4775C134.414 27.2577 134.386 27.044 134.365 26.8363L133.503 26.927ZM133.595 27.631C133.641 27.854 133.694 28.0717 133.753 28.284L134.588 28.0521C134.535 27.8581 134.486 27.6582 134.443 27.4524L133.595 27.631ZM133.753 28.284C133.818 28.5163 133.904 28.731 134.015 28.9246L134.767 28.4946C134.698 28.3723 134.637 28.2259 134.588 28.0521L133.753 28.284ZM134.736 28.9704L140.119 21.8277L139.427 21.3062L134.045 28.4489L134.736 28.9704Z" fill="#A0A0A0"/>
<path d="M167.706 35.5306C166.588 35.5306 165.54 35.3219 164.557 34.9044C163.575 34.4757 162.712 33.8945 161.967 33.161C161.234 32.4163 160.653 31.5532 160.225 30.5714C159.807 29.5897 159.598 28.5404 159.598 27.4232V22.0408H157.347V17.437H159.598V10.1928H164.202V17.437H171.208V22.0408H164.202V27.4232C164.202 27.9084 164.292 28.3655 164.472 28.7943C164.652 29.2117 164.901 29.5785 165.217 29.8944C165.533 30.2104 165.906 30.4642 166.335 30.656C166.763 30.8366 167.22 30.9269 167.706 30.9269H171.208V35.5306H167.706ZM196.699 28.9804C196.699 29.9283 196.518 30.8253 196.158 31.6717C195.797 32.5066 195.3 33.2344 194.668 33.855C194.047 34.4757 193.314 34.9665 192.467 35.3275C191.633 35.6886 190.736 35.8692 189.776 35.8692C188.919 35.8692 188.095 35.7225 187.305 35.4291C186.515 35.1244 185.798 34.6844 185.156 34.1089C184.524 34.6844 183.813 35.1244 183.023 35.4291C182.244 35.7225 181.42 35.8692 180.552 35.8692C179.593 35.8692 178.696 35.6886 177.861 35.3275C177.026 34.9665 176.292 34.4757 175.66 33.855C175.04 33.2344 174.549 32.5066 174.188 31.6717C173.827 30.8253 173.647 29.9283 173.647 28.9804V17.437H178.267V28.9804C178.267 29.2964 178.323 29.5953 178.436 29.8775C178.561 30.1483 178.724 30.3909 178.927 30.6053C179.141 30.8084 179.384 30.972 179.655 31.0961C179.937 31.2089 180.236 31.2654 180.552 31.2654C180.868 31.2654 181.166 31.2089 181.449 31.0961C181.731 30.972 181.979 30.8084 182.193 30.6053C182.408 30.3909 182.572 30.1483 182.685 29.8775C182.809 29.5953 182.871 29.2964 182.871 28.9804V17.437H187.475V28.9804C187.475 29.2964 187.537 29.5953 187.661 29.8775C187.785 30.1483 187.949 30.3909 188.152 30.6053C188.366 30.8084 188.609 30.972 188.879 31.0961C189.162 31.2089 189.461 31.2654 189.776 31.2654C190.092 31.2654 190.392 31.2089 190.673 31.0961C190.956 30.972 191.198 30.8084 191.401 30.6053C191.616 30.3909 191.785 30.1483 191.909 29.8775C192.033 29.5953 192.095 29.2964 192.095 28.9804V17.437H196.699V28.9804ZM217.569 26.3062C217.569 27.6602 217.326 28.924 216.841 30.0975C216.356 31.2597 215.695 32.2697 214.861 33.1272C214.025 33.9735 213.044 34.6449 211.915 35.1414C210.798 35.6266 209.596 35.8692 208.31 35.8692C207.035 35.8692 205.833 35.6266 204.705 35.1414C203.588 34.6449 202.606 33.9735 201.759 33.1272C200.925 32.2697 200.265 31.2597 199.779 30.0975C199.294 28.924 199.052 27.6602 199.052 26.3062C199.052 24.9295 199.294 23.6545 199.779 22.4809C200.265 21.3074 200.925 20.2975 201.759 19.4512C202.606 18.5936 203.588 17.9222 204.705 17.437C205.833 16.9519 207.035 16.7092 208.31 16.7092C209.596 16.7092 210.798 16.9406 211.915 17.4031C213.044 17.8546 214.025 18.5034 214.861 19.3496C215.695 20.1847 216.356 21.1945 216.841 22.3793C217.326 23.5529 217.569 24.8618 217.569 26.3062ZM212.915 26.3062C212.915 25.5614 212.789 24.89 212.542 24.2919C212.304 23.6826 211.977 23.1637 211.56 22.7348C211.142 22.2948 210.652 21.9618 210.087 21.7362C209.535 21.4993 208.942 21.3808 208.31 21.3808C207.678 21.3808 207.08 21.4993 206.516 21.7362C205.964 21.9618 205.478 22.2948 205.061 22.7348C204.654 23.1637 204.332 23.6826 204.096 24.2919C203.858 24.89 203.74 25.5614 203.74 26.3062C203.74 27.0058 203.858 27.6546 204.096 28.2526C204.332 28.8506 204.654 29.3697 205.061 29.8098C205.478 30.2498 205.964 30.5997 206.516 30.8592C207.08 31.1074 207.678 31.2316 208.31 31.2316C208.942 31.2316 209.535 31.113 210.087 30.8761C210.652 30.6392 211.142 30.3063 211.56 29.8775C211.977 29.4487 212.304 28.9296 212.542 28.3203C212.789 27.7111 212.915 27.0396 212.915 26.3062Z" fill="#A3A3A3"/>
<path d="M164.555 34.9044L164.382 35.3015L164.385 35.3032L164.555 34.9044ZM161.965 33.161L161.656 33.4651L161.662 33.4698L161.965 33.161ZM160.222 30.5714L159.823 30.741L159.825 30.7449L160.222 30.5714ZM159.596 22.0409H160.029V21.6076H159.596V22.0409ZM157.344 22.0409H156.911V22.4742H157.344V22.0409ZM157.344 17.4371V17.0038H156.911V17.4371H157.344ZM159.596 17.4371V17.8704H160.029V17.4371H159.596ZM159.596 10.1929V9.75958H159.163V10.1929H159.596ZM164.2 10.1929H164.633V9.75958H164.2V10.1929ZM164.2 17.4371H163.766V17.8704H164.2V17.4371ZM171.206 17.4371H171.639V17.0038H171.206V17.4371ZM171.206 22.0409V22.4742H171.639V22.0409H171.206ZM164.2 22.0409V21.6076H163.766V22.0409H164.2ZM164.47 28.7943L164.071 28.9624L164.072 28.9662L164.47 28.7943ZM165.215 29.8944L165.521 29.588L165.215 29.8944ZM166.332 30.6561L166.154 31.0517L166.164 31.0554L166.332 30.6561ZM171.206 30.9269H171.639V30.4936H171.206V30.9269ZM171.206 35.5307V35.9639H171.639V35.5307H171.206ZM167.703 35.0973C166.641 35.0973 165.649 34.8992 164.724 34.5056L164.385 35.3032C165.424 35.7445 166.53 35.9639 167.703 35.9639V35.0973ZM164.729 34.5073C163.794 34.0993 162.976 33.5476 162.269 32.8524L161.662 33.4698C162.445 34.2414 163.352 34.852 164.382 35.3014L164.729 34.5073ZM162.275 32.857C161.578 32.151 161.027 31.3323 160.619 30.398L159.825 30.7449C160.274 31.7739 160.885 32.6816 161.656 33.4651L162.275 32.857ZM160.621 30.4019C160.227 29.4763 160.029 28.4849 160.029 27.4232H159.163C159.163 28.5959 159.381 29.7032 159.823 30.741L160.621 30.4019ZM160.029 27.4232V22.0409H159.163V27.4232H160.029ZM159.596 21.6076H157.344V22.4742H159.596V21.6076ZM157.777 22.0409V17.4371H156.911V22.0409H157.777ZM157.344 17.8704H159.596V17.0038H157.344V17.8704ZM160.029 17.4371V10.1929H159.163V17.4371H160.029ZM159.596 10.6262H164.2V9.75958H159.596V10.6262ZM163.766 10.1929V17.4371H164.633V10.1929H163.766ZM164.2 17.8704H171.206V17.0038H164.2V17.8704ZM170.773 17.4371V22.0409H171.639V17.4371H170.773ZM171.206 21.6076H164.2V22.4742H171.206V21.6076ZM163.766 22.0409V27.4232H164.633V22.0409H163.766ZM163.766 27.4232C163.766 27.9637 163.867 28.4781 164.071 28.9624L164.869 28.6261C164.713 28.2528 164.633 27.8532 164.633 27.4232H163.766ZM164.072 28.9662C164.275 29.433 164.553 29.8455 164.909 30.2008L165.521 29.588C165.245 29.3115 165.027 28.9905 164.868 28.6223L164.072 28.9662ZM164.909 30.2008C165.264 30.556 165.681 30.8393 166.154 31.0516L166.509 30.2605C166.126 30.0891 165.797 29.8647 165.521 29.588L164.909 30.2008ZM166.164 31.0554C166.648 31.2593 167.162 31.3602 167.703 31.3602V30.4936C167.273 30.4936 166.873 30.4138 166.501 30.2568L166.164 31.0554ZM167.703 31.3602H171.206V30.4936H167.703V31.3602ZM170.773 30.9269V35.5307H171.639V30.9269H170.773ZM171.206 35.0973H167.703V35.9639H171.206V35.0973ZM196.156 31.6716L196.552 31.8436L196.553 31.8416L196.156 31.6716ZM194.666 33.855L194.362 33.5459L194.359 33.5487L194.666 33.855ZM192.466 35.3275L192.296 34.929L192.293 34.9299L192.466 35.3275ZM187.304 35.4291L187.147 35.8334L187.152 35.8353L187.304 35.4291ZM185.153 34.1089L185.443 33.786L185.151 33.5252L184.862 33.7886L185.153 34.1089ZM183.02 35.4291L183.174 35.8346L183.177 35.8334L183.02 35.4291ZM175.658 33.855L175.352 34.1615L175.355 34.1641L175.658 33.855ZM174.186 31.6716L173.787 31.8416L173.788 31.8436L174.186 31.6716ZM173.644 17.4371V17.0038H173.211V17.4371H173.644ZM178.264 17.4371H178.698V17.0038H178.264V17.4371ZM178.434 29.8775L178.031 30.0384L178.036 30.0483L178.04 30.058L178.434 29.8775ZM178.925 30.6052L178.61 30.9033L178.618 30.9118L178.627 30.9199L178.925 30.6052ZM179.653 31.0961L179.471 31.49L179.481 31.4945L179.492 31.4985L179.653 31.0961ZM181.446 31.0961L181.608 31.4985L181.614 31.4957L181.621 31.4927L181.446 31.0961ZM182.192 30.6052L182.489 30.9199L182.498 30.9117L182.192 30.6052ZM182.682 29.8775L182.286 29.703L182.282 29.7108L182.682 29.8775ZM182.869 17.4371V17.0038H182.435V17.4371H182.869ZM187.472 17.4371H187.906V17.0038H187.472V17.4371ZM187.658 29.8775L187.262 30.052L187.264 30.058L187.658 29.8775ZM188.149 30.6052L187.834 30.9033L187.843 30.9118L187.851 30.9199L188.149 30.6052ZM188.877 31.0961L188.697 31.49L188.706 31.4945L188.716 31.4985L188.877 31.0961ZM190.671 31.0961L190.832 31.4985L190.839 31.4957L190.846 31.4927L190.671 31.0961ZM191.398 30.6052L191.093 30.2989L191.398 30.6052ZM191.907 29.8775L192.301 30.058L192.304 30.052L191.907 29.8775ZM192.093 17.4371V17.0038H191.66V17.4371H192.093ZM196.697 17.4371H197.13V17.0038H196.697V17.4371ZM196.264 28.9804C196.264 29.8716 196.094 30.7107 195.757 31.5016L196.553 31.8416C196.938 30.94 197.13 29.9849 197.13 28.9804H196.264ZM195.758 31.4996C195.418 32.2847 194.953 32.9656 194.362 33.5459L194.969 34.1641C195.642 33.5033 196.17 32.7285 196.552 31.8436L195.758 31.4996ZM194.359 33.5487C193.779 34.1283 193.093 34.5886 192.296 34.929L192.635 35.726C193.53 35.3444 194.311 34.823 194.972 34.1615L194.359 33.5487ZM192.293 34.9299C191.515 35.2662 190.678 35.4359 189.774 35.4359V36.3024C190.789 36.3024 191.746 36.1111 192.637 35.7253L192.293 34.9299ZM189.774 35.4359C188.967 35.4359 188.195 35.2981 187.454 35.0229L187.152 35.8353C187.991 36.1469 188.866 36.3024 189.774 36.3024V35.4359ZM187.459 35.0248C186.719 34.7393 186.047 34.3272 185.443 33.786L184.865 34.4318C185.546 35.0416 186.308 35.5095 187.147 35.8334L187.459 35.0248ZM184.862 33.7886C184.269 34.3283 183.604 34.7397 182.865 35.0248L183.177 35.8334C184.017 35.5092 184.773 35.0405 185.446 34.4292L184.862 33.7886ZM182.868 35.0236C182.14 35.2978 181.369 35.4359 180.55 35.4359V36.3024C181.468 36.3024 182.343 36.1472 183.174 35.8346L182.868 35.0236ZM180.55 35.4359C179.646 35.4359 178.808 35.2662 178.031 34.9299L177.686 35.7253C178.578 36.1111 179.535 36.3024 180.55 36.3024V35.4359ZM178.031 34.9299C177.243 34.5893 176.555 34.1281 175.962 33.5459L175.355 34.1641C176.025 34.8232 176.804 35.3436 177.686 35.7253L178.031 34.9299ZM175.964 33.5487C175.384 32.9681 174.923 32.2863 174.584 31.4996L173.788 31.8436C174.17 32.7269 174.691 33.5008 175.352 34.1615L175.964 33.5487ZM174.584 31.5016C174.246 30.7107 174.077 29.8716 174.077 28.9804H173.211C173.211 29.9849 173.402 30.94 173.787 31.8416L174.584 31.5016ZM174.077 28.9804V17.4371H173.211V28.9804H174.077ZM173.644 17.8704H178.264V17.0038H173.644V17.8704ZM177.832 17.4371V28.9804H178.698V17.4371H177.832ZM177.832 28.9804C177.832 29.3492 177.897 29.7031 178.031 30.0384L178.836 29.7166C178.745 29.4878 178.698 29.2435 178.698 28.9804H177.832ZM178.04 30.058C178.184 30.3717 178.374 30.6541 178.61 30.9033L179.24 30.3073C179.069 30.1277 178.932 29.9249 178.828 29.6969L178.04 30.058ZM178.627 30.9199C178.875 31.1559 179.158 31.3462 179.471 31.49L179.833 30.7022C179.605 30.5977 179.402 30.4609 179.223 30.2907L178.627 30.9199ZM179.492 31.4985C179.827 31.6325 180.181 31.6987 180.55 31.6987V30.8321C180.287 30.8321 180.042 30.7853 179.813 30.6938L179.492 31.4985ZM180.55 31.6987C180.918 31.6987 181.272 31.6325 181.608 31.4985L181.285 30.6938C181.057 30.7853 180.812 30.8321 180.55 30.8321V31.6987ZM181.621 31.4927C181.947 31.3494 182.237 31.1587 182.489 30.9199L181.893 30.2907C181.717 30.4581 181.511 30.5945 181.272 30.6996L181.621 31.4927ZM182.498 30.9117C182.751 30.6586 182.947 30.3689 183.082 30.0441L182.282 29.7108C182.192 29.9276 182.061 30.1232 181.885 30.2989L182.498 30.9117ZM183.079 30.052C183.228 29.7135 183.302 29.3549 183.302 28.9804H182.435C182.435 29.2378 182.385 29.4773 182.286 29.703L183.079 30.052ZM183.302 28.9804V17.4371H182.435V28.9804H183.302ZM182.869 17.8704H187.472V17.0038H182.869V17.8704ZM187.039 17.4371V28.9804H187.906V17.4371H187.039ZM187.039 28.9804C187.039 29.3549 187.113 29.7135 187.262 30.052L188.056 29.703C187.956 29.4773 187.906 29.2378 187.906 28.9804H187.039ZM187.264 30.058C187.408 30.3717 187.599 30.6541 187.834 30.9033L188.463 30.3073C188.294 30.1277 188.157 29.9249 188.052 29.6969L187.264 30.058ZM187.851 30.9199C188.1 31.1559 188.383 31.3462 188.697 31.49L189.057 30.7022C188.83 30.5977 188.627 30.4609 188.447 30.2907L187.851 30.9199ZM188.716 31.4985C189.051 31.6325 189.405 31.6987 189.774 31.6987V30.8321C189.512 30.8321 189.267 30.7853 189.038 30.6938L188.716 31.4985ZM189.774 31.6987C190.143 31.6987 190.497 31.6325 190.832 31.4985L190.51 30.6938C190.282 30.7853 190.037 30.8321 189.774 30.8321V31.6987ZM190.846 31.4927C191.174 31.3486 191.462 31.1555 191.705 30.9117L191.093 30.2989C190.93 30.4613 190.733 30.5955 190.497 30.6996L190.846 31.4927ZM191.705 30.9117C191.955 30.6615 192.154 30.3765 192.301 30.058L191.513 29.6969C191.411 29.92 191.272 30.1203 191.093 30.2989L191.705 30.9117ZM192.304 30.052C192.453 29.7135 192.526 29.3549 192.526 28.9804H191.66C191.66 29.2378 191.61 29.4773 191.511 29.703L192.304 30.052ZM192.526 28.9804V17.4371H191.66V28.9804H192.526ZM192.093 17.8704H196.697V17.0038H192.093V17.8704ZM196.264 17.4371V28.9804H197.13V17.4371H196.264ZM216.838 30.0975L217.238 30.2644L217.239 30.2631L216.838 30.0975ZM214.858 33.1272L215.167 33.4315L215.169 33.4295L214.858 33.1272ZM211.912 35.1414L212.085 35.5388L212.088 35.538L211.912 35.1414ZM204.703 35.1414L204.527 35.5374L204.531 35.5394L204.703 35.1414ZM201.757 33.1272L201.447 33.4295L201.451 33.4335L201.757 33.1272ZM199.777 30.0975L199.376 30.2631L199.378 30.2644L199.777 30.0975ZM201.757 19.4512L201.449 19.1469H201.448L201.757 19.4512ZM204.703 17.4371L204.531 17.0391L204.53 17.0397L204.703 17.4371ZM211.912 17.4033L211.748 17.8036L211.751 17.8056L211.912 17.4033ZM214.858 19.3497L214.55 19.654L214.551 19.6561L214.858 19.3497ZM216.838 22.3794L216.437 22.5436L216.438 22.545L216.838 22.3794ZM212.539 24.292L212.136 24.4491L212.139 24.4581L212.539 24.292ZM211.558 22.7348L211.243 23.0331L211.247 23.0372L211.558 22.7348ZM210.085 21.7362L209.915 22.1346L209.924 22.1386L210.085 21.7362ZM206.514 21.7362L206.677 22.1374L206.681 22.1357L206.514 21.7362ZM205.058 22.7348L204.744 22.4366V22.4369L205.058 22.7348ZM204.093 24.292L204.497 24.4516L204.497 24.4491L204.093 24.292ZM205.058 29.8097L204.74 30.1037L204.744 30.108L205.058 29.8097ZM206.514 30.8592L206.33 31.2515L206.339 31.2558L206.514 30.8592ZM210.085 30.8761L209.917 30.4766L209.915 30.4778L210.085 30.8761ZM212.539 28.3203L212.138 28.1568L212.136 28.1633L212.539 28.3203ZM217.133 26.3062C217.133 27.6072 216.9 28.8144 216.438 29.932L217.239 30.2631C217.747 29.0336 218 27.7132 218 26.3062H217.133ZM216.438 29.9306C215.973 31.0452 215.343 32.0085 214.547 32.825L215.169 33.4295C216.044 32.5309 216.733 31.4744 217.238 30.2644L216.438 29.9306ZM214.55 32.8229C213.754 33.6288 212.819 34.2695 211.739 34.7447L212.088 35.538C213.264 35.0203 214.291 34.3182 215.167 33.4315L214.55 32.8229ZM211.74 34.744C210.68 35.2041 209.538 35.4359 208.307 35.4359V36.3024C209.65 36.3024 210.911 36.0489 212.085 35.5388L211.74 34.744ZM208.307 35.4359C207.089 35.4359 205.946 35.2044 204.873 34.7433L204.531 35.5394C205.716 36.0488 206.976 36.3024 208.307 36.3024V35.4359ZM204.879 34.7454C203.809 34.27 202.872 33.6287 202.064 32.8208L201.451 33.4335C202.336 34.3183 203.362 35.0197 204.527 35.5374L204.879 34.7454ZM202.068 32.825C201.273 32.0085 200.643 31.0452 200.178 29.9306L199.378 30.2644C199.883 31.4744 200.572 32.5309 201.447 33.4295L202.068 32.825ZM200.178 29.932C199.715 28.8144 199.483 27.6072 199.483 26.3062H198.616C198.616 27.7132 198.869 29.0336 199.376 30.2631L200.178 29.932ZM199.483 26.3062C199.483 24.9815 199.717 23.7632 200.178 22.6466L199.376 22.3155C198.868 23.5457 198.616 24.8775 198.616 26.3062H199.483ZM200.178 22.6466C200.643 21.5212 201.273 20.5594 202.066 19.7556L201.448 19.1469C200.573 20.0357 199.882 21.0937 199.376 22.3155L200.178 22.6466ZM202.066 19.7556C202.873 18.9379 203.808 18.2979 204.875 17.8345L204.53 17.0397C203.363 17.5467 202.334 18.2494 201.449 19.1469L202.066 19.7556ZM204.873 17.8352C205.946 17.3741 207.089 17.1426 208.307 17.1426V16.276C206.976 16.276 205.716 16.5297 204.531 17.0391L204.873 17.8352ZM208.307 17.1426C209.541 17.1426 210.686 17.3641 211.748 17.8036L212.078 17.003C210.906 16.5171 209.647 16.276 208.307 16.276V17.1426ZM211.751 17.8056C212.826 18.2352 213.757 18.8512 214.55 19.654L215.167 19.0454C214.289 18.1557 213.256 17.474 212.074 17.001L211.751 17.8056ZM214.551 19.6561C215.343 20.4471 215.972 21.4075 216.437 22.5436L217.239 22.2152C216.734 20.9817 216.043 19.9223 215.164 19.0433L214.551 19.6561ZM216.438 22.545C216.898 23.6593 217.133 24.9109 217.133 26.3062H218C218 24.8127 217.748 23.4466 217.239 22.2138L216.438 22.545ZM213.345 26.3062C213.345 25.5129 213.213 24.784 212.939 24.1259L212.139 24.4581C212.363 24.9963 212.478 25.6099 212.478 26.3062H213.345ZM212.943 24.135C212.686 23.4765 212.329 22.9067 211.868 22.4326L211.247 23.0372C211.621 23.4205 211.917 23.8889 212.136 24.4491L212.943 24.135ZM211.872 22.4366C211.411 21.9511 210.868 21.5828 210.245 21.3339L209.924 22.1386C210.43 22.341 210.869 22.6384 211.243 23.0331L211.872 22.4366ZM210.256 21.338C209.646 21.0767 208.995 20.9475 208.307 20.9475V21.8141C208.884 21.8141 209.418 21.9219 209.915 22.1345L210.256 21.338ZM208.307 20.9475C207.621 20.9475 206.965 21.0767 206.345 21.3367L206.681 22.1357C207.191 21.9219 207.732 21.8141 208.307 21.8141V20.9475ZM206.35 21.3351C205.739 21.5844 205.203 21.9527 204.744 22.4366L205.372 23.0331C205.748 22.6369 206.182 22.3395 206.677 22.1374L206.35 21.3351ZM204.744 22.4369C204.295 22.9105 203.944 23.4789 203.69 24.135L204.497 24.4491C204.715 23.8865 205.009 23.4167 205.372 23.0328L204.744 22.4369ZM203.691 24.1324C203.43 24.7886 203.305 25.5153 203.305 26.3062H204.172C204.172 25.6076 204.282 24.9915 204.497 24.4516L203.691 24.1324ZM203.305 26.3062C203.305 27.0556 203.432 27.7591 203.691 28.4122L204.497 28.093C204.281 27.55 204.172 26.9559 204.172 26.3062H203.305ZM203.691 28.4122C203.945 29.0562 204.295 29.6216 204.74 30.1037L205.376 29.5159C205.009 29.1178 204.715 28.6451 204.497 28.093L203.691 28.4122ZM204.744 30.108C205.199 30.5875 205.728 30.9691 206.33 31.2514L206.698 30.467C206.194 30.2302 205.752 29.9122 205.372 29.5115L204.744 30.108ZM206.339 31.2558C206.959 31.5288 207.617 31.6649 208.307 31.6649V30.7983C207.734 30.7983 207.196 30.686 206.688 30.4625L206.339 31.2558ZM208.307 31.6649C208.995 31.6649 209.646 31.5356 210.256 31.2744L209.915 30.4778C209.418 30.6905 208.884 30.7983 208.307 30.7983V31.6649ZM210.253 31.2756C210.87 31.0166 211.41 30.6511 211.868 30.1798L211.247 29.5753C210.871 29.9614 210.429 30.2617 209.917 30.4766L210.253 31.2756ZM211.868 30.1798C212.329 29.7056 212.686 29.1358 212.943 28.4774L212.136 28.1633C211.917 28.7235 211.621 29.1917 211.247 29.5753L211.868 30.1798ZM212.941 28.4837C213.212 27.8169 213.345 27.0892 213.345 26.3062H212.478C212.478 26.99 212.363 27.605 212.138 28.1568L212.941 28.4837Z" fill="#A0A0A0"/>
<path d="M84.7068 50.9308C84.7068 51.3847 84.6461 51.8231 84.526 52.2459C84.4106 52.6643 84.2458 53.0582 84.0323 53.4276C83.8189 53.7926 83.5606 54.1263 83.2575 54.4289C82.9552 54.7316 82.621 54.992 82.2564 55.2101C81.8918 55.4237 81.4976 55.5884 81.0745 55.7041C80.6522 55.8243 80.2139 55.8844 79.7597 55.8844C79.3054 55.8844 78.8672 55.8243 78.4441 55.7041C78.0263 55.5884 77.6321 55.4237 77.2629 55.2101C76.8976 54.992 76.5641 54.7316 76.261 54.4289C75.9587 54.1263 75.6982 53.7926 75.4802 53.4276C75.2667 53.0582 75.0996 52.6643 74.9796 52.2459C74.8642 51.8231 74.8057 51.3847 74.8057 50.9308C74.8057 50.4768 74.8642 50.0384 74.9796 49.6155C75.0996 49.1928 75.2667 48.7988 75.4802 48.4339C75.6982 48.069 75.9587 47.7351 76.261 47.4325C76.5641 47.1299 76.8976 46.8717 77.2629 46.6581C77.6321 46.4444 78.0263 46.2798 78.4441 46.1641C78.8672 46.0439 79.3054 45.9838 79.7597 45.9838C80.2139 45.9838 80.6522 46.0439 81.0745 46.1641C81.4976 46.2798 81.8918 46.4444 82.2564 46.6581C82.621 46.8717 82.9552 47.1299 83.2575 47.4325C83.5606 47.7351 83.8189 48.069 84.0323 48.4339C84.2458 48.7988 84.4106 49.1928 84.526 49.6155C84.6461 50.0384 84.7068 50.4768 84.7068 50.9308ZM82.8041 50.9308C82.8041 50.5124 82.7235 50.1185 82.5633 49.7491C82.403 49.3752 82.185 49.0525 81.9093 48.7811C81.6381 48.5051 81.3153 48.287 80.9416 48.1268C80.5717 47.9666 80.1782 47.8865 79.7597 47.8865C79.3366 47.8865 78.9408 47.9666 78.5709 48.1268C78.2018 48.287 77.8789 48.5051 77.6032 48.7811C77.3275 49.0525 77.1095 49.3752 76.9492 49.7491C76.7889 50.1185 76.7084 50.5124 76.7084 50.9308C76.7084 51.3491 76.7889 51.743 76.9492 52.1124C77.1095 52.4773 77.3275 52.7978 77.6032 53.0738C77.8789 53.3496 78.2018 53.5678 78.5709 53.728C78.9408 53.8882 79.3366 53.9683 79.7597 53.9683C80.1782 53.9683 80.5717 53.8882 80.9416 53.728C81.3153 53.5678 81.6381 53.3496 81.9093 53.0738C82.185 52.7978 82.403 52.4773 82.5633 52.1124C82.7235 51.743 82.8041 51.3491 82.8041 50.9308ZM87.597 55.6774H85.7748V48.5274H86.2154L86.8162 49.2217C87.1101 48.9546 87.4413 48.7499 87.8105 48.6075C88.1849 48.4606 88.5739 48.3871 88.9795 48.3871C89.4155 48.3871 89.8272 48.4718 90.2145 48.6408C90.6012 48.8055 90.94 49.0348 91.2286 49.3285C91.518 49.6178 91.7451 49.9583 91.9099 50.3499C92.0793 50.7371 92.1636 51.151 92.1636 51.5917V55.6774H90.3414V51.5917C90.3414 51.4047 90.3057 51.229 90.2343 51.0643C90.1629 50.8951 90.0649 50.7482 89.9403 50.6237C89.8158 50.499 89.6714 50.4011 89.5066 50.3299C89.3418 50.2587 89.1663 50.2231 88.9795 50.2231C88.7881 50.2231 88.6073 50.2587 88.4386 50.3299C88.2693 50.4011 88.1227 50.499 87.9981 50.6237C87.8735 50.7482 87.7755 50.8951 87.7041 51.0643C87.6327 51.229 87.597 51.4047 87.597 51.5917V55.6774ZM95.3015 55.6774H93.4656V45.6834H95.3015V55.6774ZM98.8464 46.5847C98.8464 46.7538 98.813 46.9118 98.7462 47.0586C98.6839 47.2055 98.5973 47.3346 98.4856 47.4459C98.3747 47.5527 98.2433 47.6395 98.0922 47.7063C97.9448 47.7685 97.7868 47.7997 97.6182 47.7997C97.4488 47.7997 97.2885 47.7685 97.1374 47.7063C96.99 47.6395 96.8616 47.5527 96.75 47.4459C96.6429 47.3346 96.5563 47.2055 96.4895 47.0586C96.4272 46.9118 96.396 46.7538 96.396 46.5847C96.396 46.42 96.4272 46.2642 96.4895 46.1174C96.5563 45.966 96.6429 45.8369 96.75 45.7301C96.8616 45.6189 96.99 45.5321 97.1374 45.4697C97.2885 45.403 97.4488 45.3696 97.6182 45.3696C97.7868 45.3696 97.9448 45.403 98.0922 45.4697C98.2433 45.5321 98.3747 45.6189 98.4856 45.7301C98.5973 45.8369 98.6839 45.966 98.7462 46.1174C98.813 46.2642 98.8464 46.42 98.8464 46.5847ZM98.5327 55.6774H96.6968V48.5274H98.5327V55.6774ZM101.75 55.6774H99.9281V48.5274H100.369L100.969 49.2217C101.263 48.9546 101.595 48.7499 101.964 48.6075C102.337 48.4606 102.727 48.3871 103.132 48.3871C103.569 48.3871 103.98 48.4718 104.367 48.6408C104.754 48.8055 105.092 49.0348 105.382 49.3285C105.671 49.6178 105.898 49.9583 106.063 50.3499C106.232 50.7371 106.317 51.151 106.317 51.5917V55.6774H104.494V51.5917C104.494 51.4047 104.458 51.229 104.388 51.0643C104.316 50.8951 104.218 50.7482 104.094 50.6237C103.969 50.499 103.825 50.4011 103.66 50.3299C103.495 50.2587 103.319 50.2231 103.132 50.2231C102.941 50.2231 102.761 50.2587 102.591 50.3299C102.423 50.4011 102.275 50.499 102.151 50.6237C102.026 50.7482 101.928 50.8951 101.857 51.0643C101.786 51.229 101.75 51.4047 101.75 51.5917V55.6774ZM110.463 53.9283C110.534 53.9506 110.605 53.9661 110.676 53.975C110.748 53.9794 110.819 53.9817 110.89 53.9817C111.068 53.9817 111.239 53.9572 111.404 53.9082C111.569 53.8592 111.722 53.7903 111.864 53.7013C112.012 53.6078 112.141 53.4966 112.252 53.3675C112.368 53.234 112.461 53.0871 112.532 52.9269L113.867 54.2687C113.699 54.5091 113.503 54.7249 113.28 54.9163C113.062 55.1077 112.823 55.2702 112.565 55.4036C112.312 55.5372 112.043 55.6374 111.758 55.7041C111.478 55.7753 111.188 55.8109 110.89 55.8109C110.387 55.8109 109.913 55.7174 109.468 55.5305C109.027 55.3435 108.64 55.0832 108.306 54.7494C107.977 54.4156 107.717 54.0195 107.525 53.5611C107.334 53.0982 107.238 52.5908 107.238 52.039C107.238 51.4737 107.334 50.9574 107.525 50.4901C107.717 50.0228 107.977 49.6244 108.306 49.2951C108.64 48.9658 109.027 48.7098 109.468 48.5274C109.913 48.3449 110.387 48.2537 110.89 48.2537C111.188 48.2537 111.48 48.2892 111.765 48.3605C112.049 48.4317 112.318 48.534 112.572 48.6676C112.83 48.8011 113.07 48.9658 113.293 49.1616C113.515 49.353 113.711 49.5688 113.881 49.8092L110.463 53.9283ZM111.397 50.1697C111.313 50.1385 111.228 50.1185 111.143 50.1096C111.064 50.1007 110.978 50.0962 110.89 50.0962C110.64 50.0962 110.405 50.143 110.182 50.2364C109.964 50.3254 109.773 50.4545 109.608 50.6237C109.448 50.7927 109.321 50.9975 109.228 51.2379C109.134 51.4737 109.087 51.7408 109.087 52.039C109.087 52.1058 109.089 52.1814 109.094 52.266C109.103 52.3505 109.114 52.4373 109.127 52.5263C109.145 52.6109 109.165 52.6932 109.187 52.7734C109.209 52.8534 109.238 52.9247 109.274 52.9869L111.397 50.1697ZM122.219 55.6774C121.778 55.6774 121.364 55.595 120.978 55.4304C120.59 55.2612 120.25 55.032 119.956 54.7427C119.667 54.449 119.437 54.1085 119.269 53.7213C119.104 53.3341 119.021 52.9202 119.021 52.4795V50.3566H118.133V48.5407H119.021V45.6834H120.837V48.5407H123.601V50.3566H120.837V52.4795C120.837 52.671 120.873 52.8512 120.944 53.0204C121.015 53.185 121.113 53.3297 121.237 53.4542C121.362 53.5789 121.509 53.679 121.678 53.7547C121.847 53.8259 122.027 53.8615 122.219 53.8615H123.601V55.6774H122.219ZM129.883 54.8429C129.736 54.9764 129.578 55.1032 129.409 55.2234C129.244 55.3391 129.071 55.4415 128.889 55.5305C128.706 55.6151 128.516 55.6819 128.321 55.7308C128.13 55.7842 127.934 55.8109 127.733 55.8109C127.293 55.8109 126.879 55.733 126.491 55.5773C126.105 55.4215 125.764 55.2011 125.471 54.9163C125.181 54.627 124.952 54.2776 124.782 53.8682C124.618 53.4542 124.535 52.9914 124.535 52.4795V48.5274H126.352V52.4795C126.352 52.7199 126.387 52.9358 126.458 53.1272C126.534 53.3141 126.634 53.4721 126.759 53.6011C126.883 53.7302 127.028 53.8281 127.193 53.8949C127.362 53.9616 127.542 53.9951 127.733 53.9951C127.92 53.9951 128.096 53.9528 128.26 53.8682C128.43 53.7792 128.576 53.6634 128.702 53.521C128.826 53.3786 128.924 53.2184 128.995 53.0403C129.066 52.8579 129.102 52.671 129.102 52.4795V48.5274H130.924V55.6774H130.484L129.883 54.8429ZM135.905 55.6774C135.464 55.6774 135.05 55.595 134.663 55.4304C134.276 55.2612 133.935 55.032 133.641 54.7427C133.353 54.449 133.123 54.1085 132.954 53.7213C132.789 53.3341 132.707 52.9202 132.707 52.4795V50.3566H131.819V48.5407H132.707V45.6834H134.523V48.5407H137.287V50.3566H134.523V52.4795C134.523 52.671 134.558 52.8512 134.63 53.0204C134.701 53.185 134.799 53.3297 134.924 53.4542C135.048 53.5789 135.195 53.679 135.364 53.7547C135.533 53.8259 135.714 53.8615 135.905 53.8615H137.287V55.6774H135.905ZM145.224 52.039C145.224 52.573 145.129 53.0715 144.937 53.5344C144.746 53.9928 144.486 54.3911 144.156 54.7294C143.827 55.0632 143.44 55.328 142.995 55.5239C142.554 55.7152 142.08 55.8109 141.573 55.8109C141.07 55.8109 140.596 55.7152 140.151 55.5239C139.71 55.328 139.323 55.0632 138.989 54.7294C138.66 54.3911 138.399 53.9928 138.208 53.5344C138.017 53.0715 137.921 52.573 137.921 52.039C137.921 51.496 138.017 50.993 138.208 50.5302C138.399 50.0673 138.66 49.6689 138.989 49.3352C139.323 48.9969 139.71 48.7321 140.151 48.5407C140.596 48.3493 141.07 48.2537 141.573 48.2537C142.08 48.2537 142.554 48.3449 142.995 48.5274C143.44 48.7054 143.827 48.9613 144.156 49.2951C144.486 49.6244 144.746 50.0228 144.937 50.4901C145.129 50.953 145.224 51.4693 145.224 52.039ZM143.388 52.039C143.388 51.7452 143.34 51.4804 143.242 51.2445C143.148 51.0042 143.019 50.7994 142.854 50.6303C142.69 50.4568 142.497 50.3254 142.274 50.2364C142.056 50.143 141.822 50.0962 141.573 50.0962C141.324 50.0962 141.088 50.143 140.865 50.2364C140.647 50.3254 140.456 50.4568 140.291 50.6303C140.13 50.7994 140.004 51.0042 139.91 51.2445C139.817 51.4804 139.77 51.7452 139.77 52.039C139.77 52.3149 139.817 52.5708 139.91 52.8067C140.004 53.0425 140.13 53.2473 140.291 53.4209C140.456 53.5945 140.647 53.7325 140.865 53.8348C141.088 53.9327 141.324 53.9817 141.573 53.9817C141.822 53.9817 142.056 53.935 142.274 53.8415C142.497 53.748 142.69 53.6167 142.854 53.4476C143.019 53.2785 143.148 53.0738 143.242 52.8334C143.34 52.5931 143.388 52.3282 143.388 52.039ZM148.055 55.6774H146.233V48.5274H146.674L147.274 49.3752C147.568 49.1082 147.902 48.9034 148.275 48.761C148.649 48.6142 149.037 48.5407 149.437 48.5407H151.046V50.3566H149.437C149.245 50.3566 149.065 50.3922 148.896 50.4634C148.727 50.5346 148.58 50.6325 148.455 50.7572C148.331 50.8818 148.233 51.0287 148.162 51.1978C148.091 51.3669 148.055 51.5472 148.055 51.7386V55.6774ZM155.739 55.6774H151.574V53.8615H155.739C155.864 53.8615 155.971 53.817 156.06 53.728C156.149 53.639 156.193 53.5322 156.193 53.4075C156.193 53.2785 156.149 53.1939 156.06 53.1538C155.971 53.1138 155.864 53.0937 155.739 53.0937H153.843C153.527 53.0937 153.231 53.0337 152.955 52.9135C152.68 52.7933 152.439 52.6309 152.234 52.4261C152.029 52.217 151.868 51.9744 151.747 51.6985C151.631 51.4225 151.574 51.1266 151.574 50.8106C151.574 50.4946 151.631 50.1986 151.747 49.9226C151.868 49.6467 152.029 49.4063 152.234 49.2016C152.439 48.9969 152.68 48.8367 152.955 48.721C153.231 48.6008 153.527 48.5407 153.843 48.5407H157.535V50.3566H153.843C153.719 50.3566 153.612 50.4011 153.523 50.4901C153.434 50.5791 153.389 50.6859 153.389 50.8106C153.389 50.9396 153.434 51.0509 153.523 51.1444C153.612 51.2334 153.719 51.2779 153.843 51.2779H155.739C156.051 51.2779 156.345 51.3313 156.62 51.4381C156.897 51.5405 157.137 51.6851 157.342 51.872C157.546 52.059 157.709 52.2837 157.829 52.5463C157.949 52.8089 158.009 53.096 158.009 53.4075C158.009 53.7235 157.949 54.0195 157.829 54.2955C157.709 54.567 157.546 54.8073 157.342 55.0165C157.137 55.2212 156.897 55.3837 156.62 55.5038C156.345 55.6195 156.051 55.6774 155.739 55.6774Z" fill="#A3A3A3"/>
<path d="M84.5259 52.2459L84.4895 52.2356V52.2358L84.5259 52.2459ZM84.0322 53.4276L84.0649 53.4467V53.4466L84.0322 53.4276ZM82.2563 55.2101L82.2753 55.2428L82.2761 55.2427L82.2563 55.2101ZM81.0744 55.7041L81.0645 55.6675V55.6676L81.0744 55.7041ZM78.444 55.7041L78.4546 55.6676V55.6675L78.444 55.7041ZM77.2628 55.2101L77.2431 55.2427L77.2438 55.2429L77.2628 55.2101ZM75.4801 53.4276L75.4474 53.4466V53.447L75.4801 53.4276ZM74.9795 52.2459L74.943 52.2559V52.2564L74.9795 52.2459ZM74.9795 49.6156L74.943 49.6052V49.6055L74.9795 49.6156ZM75.4801 48.4339L75.4474 48.4144V48.4147L75.4801 48.4339ZM77.2628 46.6581L77.2438 46.6252V46.6253L77.2628 46.6581ZM78.444 46.1641L78.4546 46.2007V46.2006L78.444 46.1641ZM81.0744 46.1641L81.0645 46.2006V46.2007L81.0744 46.1641ZM84.5259 49.6156L84.4895 49.6256V49.626L84.5259 49.6156ZM82.5632 49.7491L82.5282 49.7641V49.7642L82.5632 49.7491ZM81.9092 48.7811L81.8818 48.8077L81.8826 48.8081L81.9092 48.7811ZM80.9415 48.1269L80.9263 48.1616V48.1617L80.9415 48.1269ZM77.6031 48.7811L77.6297 48.8081V48.808L77.6031 48.7811ZM76.9491 49.7491L76.984 49.7642V49.7641L76.9491 49.7491ZM76.9491 52.1124L76.9142 52.1275V52.1276L76.9491 52.1124ZM80.9415 53.728L80.9263 53.6931V53.6931L80.9415 53.728ZM81.9092 53.0738L81.8826 53.0469L81.8818 53.0471L81.9092 53.0738ZM82.5632 52.1124L82.5981 52.1276V52.1275L82.5632 52.1124ZM84.6687 50.9308C84.6687 51.3814 84.6087 51.8162 84.4895 52.2356L84.5624 52.2563C84.6839 51.83 84.7447 51.3881 84.7447 50.9308H84.6687ZM84.4895 52.2358C84.3748 52.6511 84.2115 53.042 83.9995 53.4086L84.0649 53.4466C84.2806 53.0743 84.4462 52.6775 84.5624 52.2561L84.4895 52.2358ZM83.9995 53.4084C83.7876 53.7705 83.5309 54.1017 83.2308 54.4021L83.2848 54.4558C83.5894 54.1509 83.8499 53.8145 84.0649 53.4467L83.9995 53.4084ZM83.2308 54.4021C82.93 54.7026 82.5989 54.961 82.2366 55.1774L82.2761 55.2427C82.6437 55.023 82.9794 54.7607 83.2848 54.4558L83.2308 54.4021ZM82.2373 55.1773C81.875 55.3892 81.4846 55.5526 81.0645 55.6675L81.085 55.7407C81.5104 55.6242 81.9077 55.4583 82.2753 55.2428L82.2373 55.1773ZM81.0645 55.6676C80.6452 55.7868 80.21 55.8464 79.7596 55.8464V55.9224C80.2168 55.9224 80.6589 55.8618 81.085 55.7407L81.0645 55.6676ZM79.7596 55.8464C79.3091 55.8464 78.8739 55.7868 78.4546 55.6676L78.4341 55.7407C78.8602 55.8618 79.3023 55.9224 79.7596 55.9224V55.8464ZM78.4546 55.6675C78.0391 55.5526 77.6479 55.3892 77.2818 55.1772L77.2438 55.2429C77.616 55.4583 78.0125 55.6242 78.4341 55.7407L78.4546 55.6675ZM77.2818 55.1774C76.9202 54.961 76.5883 54.7026 76.2883 54.4021L76.2343 54.4558C76.5389 54.7607 76.8754 55.023 77.2431 55.2427L77.2818 55.1774ZM76.2883 54.4021C75.9875 54.1016 75.7292 53.7703 75.5127 53.4081L75.4474 53.447C75.6669 53.8148 75.9297 54.151 76.2343 54.4558L76.2883 54.4021ZM75.5127 53.4086C75.3008 53.0419 75.1352 52.6509 75.016 52.2354L74.943 52.2564C75.0638 52.6777 75.2317 53.0745 75.4474 53.4466L75.5127 53.4086ZM75.016 52.2359C74.9013 51.8164 74.8435 51.3814 74.8435 50.9308H74.7676C74.7676 51.388 74.8261 51.8297 74.943 52.2559L75.016 52.2359ZM74.8435 50.9308C74.8435 50.48 74.9013 50.045 75.016 49.6256L74.943 49.6055C74.8261 50.0317 74.7676 50.4735 74.7676 50.9308H74.8435ZM75.016 49.626C75.1352 49.2061 75.3008 48.8152 75.5127 48.4531L75.4474 48.4147C75.2317 48.7826 75.0638 49.1794 74.943 49.6052L75.016 49.626ZM75.5127 48.4534C75.7292 48.0912 75.9875 47.7598 76.2883 47.4594L76.2343 47.4057C75.9297 47.7105 75.6669 48.0468 75.4474 48.4144L75.5127 48.4534ZM76.2883 47.4594C76.5883 47.159 76.9195 46.9029 77.2818 46.6909L77.2438 46.6253C76.8754 46.8407 76.5389 47.1007 76.2343 47.4057L76.2883 47.4594ZM77.2818 46.691C77.6479 46.479 78.0391 46.3156 78.4546 46.2007L78.4341 46.1275C78.0125 46.2441 77.616 46.41 77.2438 46.6252L77.2818 46.691ZM78.4546 46.2006C78.8739 46.0814 79.3091 46.0218 79.7596 46.0218V45.9459C79.3023 45.9459 78.8602 46.0064 78.4341 46.1276L78.4546 46.2006ZM79.7596 46.0218C80.21 46.0218 80.6452 46.0814 81.0645 46.2006L81.085 46.1276C80.6589 46.0064 80.2168 45.9459 79.7596 45.9459V46.0218ZM81.0645 46.2007C81.4846 46.3156 81.875 46.479 82.2373 46.6909L82.2753 46.6253C81.9077 46.41 81.5104 46.244 81.085 46.1275L81.0645 46.2007ZM82.2373 46.6909C82.5989 46.9029 82.9308 47.159 83.2308 47.4594L83.2848 47.4057C82.9794 47.1007 82.6429 46.8407 82.2753 46.6253L82.2373 46.6909ZM83.2308 47.4594C83.5309 47.7597 83.7876 48.091 83.9995 48.4531L84.0649 48.4147C83.8499 48.0469 83.5894 47.7106 83.2848 47.4057L83.2308 47.4594ZM83.9995 48.4531C84.2115 48.8151 84.3748 49.2059 84.4895 49.6256L84.5624 49.6055C84.4462 49.1796 84.2806 48.7827 84.0649 48.4147L83.9995 48.4531ZM84.4895 49.626C84.6087 50.0453 84.6687 50.4802 84.6687 50.9308H84.7447C84.7447 50.4734 84.6839 50.0315 84.5624 49.6052L84.4895 49.626ZM82.8419 50.9308C82.8419 50.5074 82.7607 50.1084 82.5981 49.734L82.5282 49.7642C82.687 50.1287 82.766 50.5174 82.766 50.9308H82.8419ZM82.5981 49.7341C82.4363 49.356 82.2153 49.0292 81.9358 48.754L81.8826 48.8081C82.1545 49.076 82.3702 49.3945 82.5282 49.7641L82.5981 49.7341ZM81.9365 48.7544C81.6608 48.4748 81.3342 48.254 80.9559 48.0919L80.9263 48.1617C81.2954 48.3201 81.6145 48.5354 81.8818 48.8077L81.9365 48.7544ZM80.9559 48.092C80.5822 47.9296 80.1826 47.8485 79.7596 47.8485V47.9245C80.1728 47.9245 80.5617 48.0036 80.9263 48.1616L80.9559 48.092ZM79.7596 47.8485C79.3319 47.8485 78.9301 47.9296 78.5564 48.092L78.586 48.1616C78.9506 48.0036 79.3418 47.9245 79.7596 47.9245V47.8485ZM78.5564 48.092C78.1827 48.2541 77.856 48.4748 77.5765 48.7542L77.6297 48.808C77.9024 48.5355 78.2214 48.3201 78.586 48.1616L78.5564 48.092ZM77.5765 48.754C77.297 49.0292 77.0759 49.356 76.9142 49.7341L76.984 49.7641C77.142 49.3945 77.3578 49.076 77.6297 48.8081L77.5765 48.754ZM76.9142 49.734C76.7516 50.1084 76.6703 50.5074 76.6703 50.9308H76.7463C76.7463 50.5174 76.8253 50.1287 76.984 49.7642L76.9142 49.734ZM76.6703 50.9308C76.6703 51.3541 76.7516 51.7532 76.9142 52.1275L76.984 52.0973C76.8253 51.7328 76.7463 51.3441 76.7463 50.9308H76.6703ZM76.9142 52.1276C77.0759 52.4969 77.297 52.8213 77.5765 53.1006L77.6297 53.0469C77.3578 52.7744 77.142 52.4578 76.9833 52.0971L76.9142 52.1276ZM77.5765 53.1006C77.856 53.38 78.1827 53.6008 78.5564 53.7629L78.586 53.6931C78.2214 53.5348 77.9024 53.3194 77.6297 53.0469L77.5765 53.1006ZM78.5564 53.7629C78.9301 53.9253 79.3319 54.0063 79.7596 54.0063V53.9304C79.3418 53.9304 78.9506 53.8512 78.586 53.6931L78.5564 53.7629ZM79.7596 54.0063C80.1826 54.0063 80.5822 53.9252 80.9559 53.7629L80.9263 53.6931C80.5617 53.8512 80.1728 53.9304 79.7596 53.9304V54.0063ZM80.9559 53.763C81.3342 53.6009 81.6608 53.38 81.9365 53.1004L81.8818 53.0471C81.6145 53.3194 81.2954 53.5347 80.9263 53.6931L80.9559 53.763ZM81.9358 53.1006C82.2153 52.8213 82.4363 52.4969 82.5981 52.1276L82.529 52.0971C82.3702 52.4578 82.1545 52.7744 81.8826 53.0469L81.9358 53.1006ZM82.5981 52.1275C82.7607 51.7532 82.8419 51.3541 82.8419 50.9308H82.766C82.766 51.3441 82.687 51.7328 82.5282 52.0973L82.5981 52.1275ZM87.5969 55.6774V55.7154H87.6349V55.6774H87.5969ZM85.7747 55.6774H85.7367V55.7154H85.7747V55.6774ZM85.7747 48.5274V48.4894H85.7367V48.5274H85.7747ZM86.2152 48.5274L86.2441 48.5025L86.2327 48.4894H86.2152V48.5274ZM86.8161 49.2217L86.7872 49.2465L86.813 49.2759L86.8419 49.2498L86.8161 49.2217ZM87.8104 48.6075L87.824 48.6429L87.8248 48.6428L87.8104 48.6075ZM90.2144 48.6409L90.1992 48.6757V48.6758L90.2144 48.6409ZM91.2285 49.3285L91.2019 49.3552V49.3554L91.2285 49.3285ZM91.9098 50.3499L91.8749 50.3647V50.3651L91.9098 50.3499ZM92.1635 55.6774V55.7154H92.2015V55.6774H92.1635ZM90.3413 55.6774H90.3033V55.7154H90.3413V55.6774ZM90.2342 51.0643L90.1992 51.079V51.0793L90.2342 51.0643ZM87.704 51.0643L87.739 51.0793V51.079L87.704 51.0643ZM87.5969 55.6394H85.7747V55.7154H87.5969V55.6394ZM85.8127 55.6774V48.5274H85.7367V55.6774H85.8127ZM85.7747 48.5654H86.2152V48.4894H85.7747V48.5654ZM86.1864 48.5522L86.7872 49.2465L86.8449 49.1969L86.2441 48.5025L86.1864 48.5522ZM86.8419 49.2498C87.1321 48.9859 87.4594 48.7837 87.824 48.6429L87.7974 48.572C87.423 48.7162 87.088 48.9234 86.7902 49.1936L86.8419 49.2498ZM87.8248 48.6428C88.1939 48.4978 88.5791 48.4251 88.9794 48.4251V48.3492C88.5692 48.3492 88.175 48.4235 87.7967 48.5721L87.8248 48.6428ZM88.9794 48.4251C89.41 48.4251 89.8164 48.5087 90.1992 48.6756L90.2296 48.6061C89.8369 48.4348 89.4199 48.3492 88.9794 48.3492V48.4251ZM90.1992 48.6758C90.5821 48.8386 90.9163 49.065 91.2019 49.3552L91.2558 49.3018C90.9634 49.0045 90.6208 48.7725 90.2289 48.6059L90.1992 48.6758ZM91.2019 49.3554C91.4875 49.6411 91.7116 49.9773 91.8749 50.3647L91.9448 50.3352C91.7784 49.9392 91.5483 49.5946 91.2558 49.3016L91.2019 49.3554ZM91.8749 50.3651C92.042 50.7473 92.1255 51.1561 92.1255 51.5917H92.2015C92.2015 51.146 92.1157 50.727 91.9448 50.3347L91.8749 50.3651ZM92.1255 51.5917V55.6774H92.2015V51.5917H92.1255ZM92.1635 55.6394H90.3413V55.7154H92.1635V55.6394ZM90.3793 55.6774V51.5917H90.3033V55.6774H90.3793ZM90.3793 51.5917C90.3793 51.3998 90.3421 51.2188 90.2691 51.0492L90.1992 51.0793C90.2684 51.2391 90.3033 51.4097 90.3033 51.5917H90.3793ZM90.2691 51.0496C90.1962 50.8761 90.0952 50.725 89.9676 50.5968L89.9136 50.6505C90.0344 50.7715 90.1294 50.9142 90.1992 51.079L90.2691 51.0496ZM89.9676 50.5968C89.8392 50.4687 89.6903 50.3681 89.5217 50.2951L89.4913 50.3648C89.6516 50.4341 89.7921 50.5293 89.9136 50.6505L89.9676 50.5968ZM89.5217 50.2951C89.3515 50.2217 89.1708 50.1851 88.9794 50.1851V50.261C89.1609 50.261 89.3318 50.2957 89.4913 50.3648L89.5217 50.2951ZM88.9794 50.1851C88.7826 50.1851 88.5973 50.2216 88.4233 50.2949L88.453 50.3649C88.617 50.2958 88.7925 50.261 88.9794 50.261V50.1851ZM88.4233 50.2949C88.2502 50.3679 88.099 50.4686 87.9706 50.5968L88.0246 50.6505C88.1453 50.5295 88.2881 50.4343 88.453 50.3649L88.4233 50.2949ZM87.9706 50.5968C87.8423 50.725 87.742 50.8761 87.6691 51.0496L87.739 51.079C87.8081 50.9142 87.9038 50.7715 88.0246 50.6505L87.9706 50.5968ZM87.6691 51.0492C87.5954 51.2188 87.5589 51.3998 87.5589 51.5917H87.6349C87.6349 51.4097 87.6698 51.2391 87.739 51.0793L87.6691 51.0492ZM87.5589 51.5917V55.6774H87.6349V51.5917H87.5589ZM95.3014 55.6774V55.7154H95.3393V55.6774H95.3014ZM93.4654 55.6774H93.4275V55.7154H93.4654V55.6774ZM93.4654 45.6834V45.6454H93.4275V45.6834H93.4654ZM95.3014 45.6834H95.3393V45.6454H95.3014V45.6834ZM95.3014 55.6394H93.4654V55.7154H95.3014V55.6394ZM93.5034 55.6774V45.6834H93.4275V55.6774H93.5034ZM93.4654 45.7214H95.3014V45.6454H93.4654V45.7214ZM95.2634 45.6834V55.6774H95.3393V45.6834H95.2634ZM98.7461 47.0587L98.7111 47.0429V47.0438L98.7461 47.0587ZM98.4855 47.4459L98.5121 47.4733L98.5129 47.4727L98.4855 47.4459ZM98.0921 47.7063L98.1065 47.7412L98.1073 47.741L98.0921 47.7063ZM97.1373 47.7063L97.1213 47.7408L97.1221 47.7411L97.1228 47.7414L97.1373 47.7063ZM96.7499 47.4459L96.7225 47.4722L96.7233 47.4727V47.4733L96.7499 47.4459ZM96.4893 47.0587L96.4544 47.0735L96.4552 47.0744L96.4893 47.0587ZM96.4893 46.1174L96.4552 46.102L96.4544 46.1025L96.4893 46.1174ZM97.1373 45.4698L97.1517 45.5048L97.1525 45.5045L97.1373 45.4698ZM98.0921 45.4698L98.0761 45.5043L98.0769 45.5046L98.0776 45.5049L98.0921 45.4698ZM98.4855 45.7301L98.4589 45.757L98.4597 45.7576L98.4855 45.7301ZM98.7461 46.1174L98.7111 46.1318V46.1324V46.1331L98.7461 46.1174ZM98.5326 55.6774V55.7154H98.5706V55.6774H98.5326ZM96.6967 55.6774H96.6587V55.7154H96.6967V55.6774ZM96.6967 48.5274V48.4894H96.6587V48.5274H96.6967ZM98.5326 48.5274H98.5706V48.4894H98.5326V48.5274ZM98.8083 46.5847C98.8083 46.7487 98.7757 46.9013 98.7111 47.0429L98.7802 47.0744C98.8494 46.9223 98.8843 46.7589 98.8843 46.5847H98.8083ZM98.7111 47.0438C98.6504 47.1863 98.5668 47.3113 98.4589 47.419L98.5129 47.4727C98.6276 47.358 98.7172 47.2248 98.781 47.0735L98.7111 47.0438ZM98.4597 47.4185C98.3518 47.522 98.2242 47.6064 98.0761 47.6715L98.1073 47.741C98.2622 47.6725 98.3974 47.5834 98.5121 47.4733L98.4597 47.4185ZM98.0769 47.6713C97.9348 47.7315 97.7822 47.7617 97.6181 47.7617V47.8377C97.792 47.8377 97.9546 47.8056 98.1065 47.7412L98.0769 47.6713ZM97.6181 47.7617C97.4533 47.7617 97.2983 47.7315 97.1517 47.6711L97.1228 47.7414C97.2786 47.8056 97.4441 47.8377 97.6181 47.8377V47.7617ZM97.1532 47.6716C97.0097 47.6066 96.8843 47.5221 96.7765 47.4185L96.7233 47.4733C96.838 47.5832 96.9709 47.6724 97.1213 47.7408L97.1532 47.6716ZM96.7772 47.4196C96.6739 47.3115 96.5889 47.1861 96.5243 47.0429L96.4552 47.0744C96.5235 47.225 96.6124 47.3577 96.7225 47.4722L96.7772 47.4196ZM96.5243 47.0438C96.4643 46.902 96.4339 46.749 96.4339 46.5847H96.3579C96.3579 46.7586 96.3898 46.9216 96.4544 47.0735L96.5243 47.0438ZM96.4339 46.5847C96.4339 46.4249 96.4643 46.2742 96.5243 46.1322L96.4544 46.1025C96.3906 46.2543 96.3579 46.4151 96.3579 46.5847H96.4339ZM96.5243 46.1326C96.5896 45.9852 96.6739 45.8602 96.7765 45.757L96.7233 45.7033C96.6124 45.8137 96.5235 45.9468 96.4552 46.102L96.5243 46.1326ZM96.7765 45.757C96.8843 45.6492 97.0097 45.5652 97.1517 45.5048L97.1221 45.4348C96.9709 45.499 96.838 45.5886 96.7233 45.7033L96.7765 45.757ZM97.1525 45.5045C97.2991 45.4399 97.454 45.4076 97.6181 45.4076V45.3317C97.4434 45.3317 97.2778 45.3661 97.1221 45.435L97.1525 45.5045ZM97.6181 45.4076C97.7814 45.4076 97.9341 45.4399 98.0761 45.5043L98.1073 45.4352C97.9553 45.3661 97.792 45.3317 97.6181 45.3317V45.4076ZM98.0776 45.5049C98.2242 45.5654 98.3511 45.6494 98.4589 45.757L98.5129 45.7033C98.3974 45.5883 98.2622 45.4988 98.1065 45.4347L98.0776 45.5049ZM98.4597 45.7576C98.5668 45.8605 98.6504 45.9851 98.7111 46.1318L98.781 46.1029C98.7172 45.947 98.6276 45.8135 98.5121 45.7027L98.4597 45.7576ZM98.7111 46.1331C98.7757 46.2749 98.8083 46.4253 98.8083 46.5847H98.8843C98.8843 46.4147 98.8494 46.2536 98.7802 46.1017L98.7111 46.1331ZM98.5326 55.6394H96.6967V55.7154H98.5326V55.6394ZM96.7347 55.6774V48.5274H96.6587V55.6774H96.7347ZM96.6967 48.5654H98.5326V48.4894H96.6967V48.5654ZM98.4946 48.5274V55.6774H98.5706V48.5274H98.4946ZM101.75 55.6774V55.7154H101.788V55.6774H101.75ZM99.928 55.6774H99.89V55.7154H99.928V55.6774ZM99.928 48.5274V48.4894H99.89V48.5274H99.928ZM100.369 48.5274L100.397 48.5025L100.386 48.4894H100.369V48.5274ZM100.969 49.2217L100.94 49.2465L100.966 49.2759L100.994 49.2498L100.969 49.2217ZM101.964 48.6075L101.977 48.6429L101.978 48.6428L101.964 48.6075ZM104.367 48.6409L104.352 48.6757L104.353 48.6758L104.367 48.6409ZM105.382 49.3285L105.355 49.3552V49.3554L105.382 49.3285ZM106.063 50.3499L106.028 50.3647V50.3651L106.063 50.3499ZM106.317 55.6774V55.7154H106.355V55.6774H106.317ZM104.494 55.6774H104.456V55.7154H104.494V55.6774ZM104.387 51.0643L104.353 51.079V51.0793L104.387 51.0643ZM101.857 51.0643L101.892 51.0793V51.079L101.857 51.0643ZM101.75 55.6394H99.928V55.7154H101.75V55.6394ZM99.9659 55.6774V48.5274H99.89V55.6774H99.9659ZM99.928 48.5654H100.369V48.4894H99.928V48.5654ZM100.34 48.5522L100.94 49.2465L100.998 49.1969L100.397 48.5025L100.34 48.5522ZM100.994 49.2498C101.285 48.9859 101.613 48.7837 101.977 48.6429L101.95 48.572C101.576 48.7162 101.241 48.9234 100.944 49.1936L100.994 49.2498ZM101.978 48.6428C102.347 48.4978 102.732 48.4251 103.132 48.4251V48.3492C102.722 48.3492 102.328 48.4235 101.95 48.5721L101.978 48.6428ZM103.132 48.4251C103.563 48.4251 103.97 48.5087 104.352 48.6756L104.382 48.6061C103.99 48.4348 103.573 48.3492 103.132 48.3492V48.4251ZM104.353 48.6758C104.735 48.8386 105.07 49.065 105.355 49.3552L105.409 49.3018C105.116 49.0045 104.774 48.7725 104.382 48.6059L104.353 48.6758ZM105.355 49.3554C105.641 49.6411 105.865 49.9773 106.028 50.3647L106.098 50.3352C105.932 49.9392 105.702 49.5946 105.409 49.3016L105.355 49.3554ZM106.028 50.3651C106.195 50.7473 106.279 51.1561 106.279 51.5917H106.355C106.355 51.146 106.269 50.727 106.098 50.3347L106.028 50.3651ZM106.279 51.5917V55.6774H106.355V51.5917H106.279ZM106.317 55.6394H104.494V55.7154H106.317V55.6394ZM104.532 55.6774V51.5917H104.456V55.6774H104.532ZM104.532 51.5917C104.532 51.3998 104.495 51.2188 104.422 51.0492L104.353 51.0793C104.422 51.2391 104.456 51.4097 104.456 51.5917H104.532ZM104.422 51.0496C104.349 50.8761 104.248 50.725 104.12 50.5968L104.067 50.6505C104.188 50.7715 104.283 50.9142 104.353 51.079L104.422 51.0496ZM104.12 50.5968C103.992 50.4687 103.844 50.3681 103.675 50.2951L103.645 50.3648C103.805 50.4341 103.945 50.5293 104.067 50.6505L104.12 50.5968ZM103.675 50.2951C103.505 50.2217 103.324 50.1851 103.132 50.1851V50.261C103.314 50.261 103.485 50.2957 103.645 50.3648L103.675 50.2951ZM103.132 50.1851C102.936 50.1851 102.751 50.2216 102.577 50.2949L102.606 50.3649C102.77 50.2958 102.946 50.261 103.132 50.261V50.1851ZM102.577 50.2949C102.403 50.3679 102.252 50.4686 102.124 50.5968L102.178 50.6505C102.299 50.5295 102.441 50.4343 102.606 50.3649L102.577 50.2949ZM102.124 50.5968C101.996 50.725 101.895 50.8761 101.822 51.0496L101.892 51.079C101.961 50.9142 102.056 50.7715 102.178 50.6505L102.124 50.5968ZM101.822 51.0492C101.749 51.2188 101.712 51.3998 101.712 51.5917H101.788C101.788 51.4097 101.823 51.2391 101.892 51.0793L101.822 51.0492ZM101.712 51.5917V55.6774H101.788V51.5917H101.712ZM110.463 53.9283L110.433 53.904L110.397 53.9476L110.451 53.9645L110.463 53.9283ZM110.676 53.975L110.671 54.0127L110.672 54.0129L110.674 54.0129L110.676 53.975ZM111.864 53.7013L111.885 53.7335V53.7333L111.864 53.7013ZM112.251 53.3675L112.223 53.3426V53.3427L112.251 53.3675ZM112.532 52.9269L112.559 52.9001L112.52 52.8608L112.498 52.9115L112.532 52.9269ZM113.867 54.2688L113.898 54.2906L113.916 54.2646L113.894 54.2419L113.867 54.2688ZM113.28 54.9163L113.255 54.8875V54.8878L113.28 54.9163ZM112.565 55.4036L112.548 55.3699V55.3701L112.565 55.4036ZM111.758 55.7041L111.749 55.6671V55.6673L111.758 55.7041ZM109.468 55.5305L109.453 55.5655L109.468 55.5305ZM108.306 54.7494L108.279 54.7761L108.28 54.7763L108.306 54.7494ZM107.525 53.5611L107.49 53.5756V53.5757L107.525 53.5611ZM108.306 49.2952L108.28 49.2681V49.2683L108.306 49.2952ZM109.468 48.5274L109.453 48.4923L109.468 48.5274ZM112.572 48.6676L112.555 48.7012V48.7013L112.572 48.6676ZM113.293 49.1616L113.268 49.1901L113.269 49.1904L113.293 49.1616ZM113.881 49.8092L113.91 49.8334L113.929 49.8111L113.912 49.7873L113.881 49.8092ZM111.397 50.1697L111.427 50.1925L111.458 50.1517L111.411 50.134L111.397 50.1697ZM111.143 50.1096L111.139 50.1473L111.143 50.1096ZM110.182 50.2364L110.197 50.2716V50.2715L110.182 50.2364ZM109.608 50.6237L109.581 50.5972L109.58 50.5975L109.608 50.6237ZM109.228 51.2379L109.262 51.2518V51.2516L109.228 51.2379ZM109.094 52.266L109.056 52.2679V52.2689V52.2699L109.094 52.266ZM109.127 52.5263L109.09 52.532V52.533V52.5342L109.127 52.5263ZM109.274 52.987L109.241 53.0058L109.27 53.0559L109.304 53.0098L109.274 52.987ZM110.451 53.9645C110.524 53.9874 110.598 54.0035 110.671 54.0127L110.681 53.9373C110.612 53.9287 110.543 53.9137 110.474 53.892L110.451 53.9645ZM110.674 54.0129C110.746 54.0174 110.817 54.0197 110.889 54.0197V53.9437C110.82 53.9437 110.749 53.9415 110.678 53.9371L110.674 54.0129ZM110.889 54.0197C111.071 54.0197 111.247 53.9947 111.414 53.9446L111.393 53.8719C111.232 53.9197 111.064 53.9437 110.889 53.9437V54.0197ZM111.414 53.9446C111.582 53.8947 111.739 53.8244 111.885 53.7335L111.844 53.6691C111.705 53.7563 111.554 53.8239 111.393 53.8719L111.414 53.9446ZM111.885 53.7333C112.035 53.6379 112.166 53.5242 112.28 53.3923L112.223 53.3427C112.114 53.4689 111.988 53.5778 111.844 53.6693L111.885 53.7333ZM112.28 53.3923C112.399 53.256 112.494 53.106 112.567 52.9423L112.498 52.9115C112.428 53.0682 112.337 53.212 112.223 53.3426L112.28 53.3923ZM112.505 52.9537L113.84 54.2956L113.894 54.2419L112.559 52.9001L112.505 52.9537ZM113.836 54.2469C113.669 54.4847 113.475 54.6982 113.255 54.8875L113.304 54.9452C113.529 54.7517 113.727 54.5335 113.898 54.2906L113.836 54.2469ZM113.255 54.8878C113.039 55.0771 112.804 55.2378 112.548 55.3699L112.583 55.4374C112.844 55.3025 113.085 55.1383 113.305 54.9449L113.255 54.8878ZM112.548 55.3701C112.297 55.5021 112.03 55.6011 111.749 55.6671L111.766 55.7411C112.054 55.6736 112.327 55.5723 112.583 55.4373L112.548 55.3701ZM111.749 55.6673C111.471 55.7377 111.185 55.773 110.889 55.773V55.8489C111.191 55.8489 111.483 55.8129 111.767 55.7409L111.749 55.6673ZM110.889 55.773C110.392 55.773 109.923 55.6804 109.483 55.4955L109.453 55.5655C109.903 55.7545 110.382 55.8489 110.889 55.8489V55.773ZM109.483 55.4956C109.046 55.3105 108.663 55.0529 108.333 54.7226L108.28 54.7763C108.617 55.1136 109.008 55.3767 109.453 55.5655L109.483 55.4956ZM108.334 54.7228C108.008 54.3926 107.749 54.0007 107.56 53.5465L107.49 53.5757C107.683 54.0384 107.946 54.4387 108.279 54.7761L108.334 54.7228ZM107.56 53.5466C107.371 53.0887 107.276 52.5864 107.276 52.039H107.2C107.2 52.5953 107.297 53.1077 107.49 53.5756L107.56 53.5466ZM107.276 52.039C107.276 51.478 107.371 50.9668 107.56 50.5045L107.49 50.4757C107.297 50.9482 107.2 51.4694 107.2 52.039H107.276ZM107.56 50.5045C107.75 50.0415 108.008 49.6475 108.333 49.322L108.28 49.2683C107.946 49.6015 107.683 50.0042 107.49 50.4757L107.56 50.5045ZM108.333 49.3221C108.663 48.9963 109.046 48.7431 109.482 48.5625L109.453 48.4923C109.008 48.6766 108.617 48.9353 108.28 49.2681L108.333 49.3221ZM109.482 48.5625C109.923 48.382 110.391 48.2917 110.889 48.2917V48.2157C110.382 48.2157 109.903 48.3078 109.453 48.4923L109.482 48.5625ZM110.889 48.2917C111.185 48.2917 111.474 48.3269 111.755 48.3973L111.774 48.3237C111.486 48.2517 111.191 48.2157 110.889 48.2157V48.2917ZM111.755 48.3973C112.037 48.4678 112.303 48.5692 112.555 48.7012L112.589 48.6339C112.333 48.499 112.062 48.3956 111.774 48.3237L111.755 48.3973ZM112.555 48.7013C112.81 48.8334 113.047 48.9963 113.268 49.1901L113.318 49.1331C113.093 48.9353 112.851 48.7688 112.589 48.6339L112.555 48.7013ZM113.269 49.1904C113.489 49.3797 113.682 49.5933 113.85 49.831L113.912 49.7873C113.741 49.5445 113.543 49.3262 113.318 49.1328L113.269 49.1904ZM113.851 49.7849L110.433 53.904L110.491 53.9525L113.91 49.8334L113.851 49.7849ZM111.411 50.134C111.323 50.1018 111.235 50.0811 111.147 50.0718L111.139 50.1473C111.221 50.1559 111.302 50.1752 111.384 50.2053L111.411 50.134ZM111.148 50.0718C111.066 50.0628 110.98 50.0582 110.889 50.0582V50.1342C110.978 50.1342 111.06 50.1386 111.139 50.1473L111.148 50.0718ZM110.889 50.0582C110.636 50.0582 110.395 50.1059 110.167 50.2014L110.197 50.2715C110.415 50.18 110.646 50.1342 110.889 50.1342V50.0582ZM110.168 50.2013C109.945 50.2923 109.749 50.4243 109.581 50.5972L109.635 50.6502C109.796 50.4847 109.983 50.3587 110.197 50.2716L110.168 50.2013ZM109.58 50.5975C109.417 50.7706 109.287 50.9797 109.192 51.2241L109.262 51.2516C109.354 51.0154 109.479 50.8149 109.635 50.6498L109.58 50.5975ZM109.192 51.2239C109.097 51.4649 109.049 51.7368 109.049 52.039H109.125C109.125 51.7447 109.171 51.4825 109.262 51.2518L109.192 51.2239ZM109.049 52.039C109.049 52.1065 109.051 52.1829 109.056 52.2679L109.132 52.264C109.127 52.1799 109.125 52.1049 109.125 52.039H109.049ZM109.056 52.2699C109.065 52.3551 109.076 52.4424 109.09 52.532L109.164 52.5207C109.152 52.4322 109.14 52.346 109.132 52.262L109.056 52.2699ZM109.09 52.5342C109.108 52.6195 109.128 52.7026 109.151 52.7835L109.224 52.7632C109.202 52.6839 109.182 52.6023 109.164 52.5185L109.09 52.5342ZM109.151 52.7835C109.174 52.8662 109.204 52.9404 109.241 53.0058L109.307 52.9681C109.273 52.9089 109.246 52.8407 109.224 52.7632L109.151 52.7835ZM109.304 53.0098L111.427 50.1925L111.367 50.1468L109.243 52.9641L109.304 53.0098ZM120.977 55.4304L120.962 55.4652V55.4653L120.977 55.4304ZM119.956 54.7427L119.929 54.7694L119.929 54.7699L119.956 54.7427ZM119.268 53.7213L119.234 53.7362V53.7365L119.268 53.7213ZM119.021 50.3566H119.059V50.3186H119.021V50.3566ZM118.133 50.3566H118.095V50.3946H118.133V50.3566ZM118.133 48.5407V48.5028H118.095V48.5407H118.133ZM119.021 48.5407V48.5787H119.059V48.5407H119.021ZM119.021 45.6834V45.6454H118.983V45.6834H119.021ZM120.837 45.6834H120.875V45.6454H120.837V45.6834ZM120.837 48.5407H120.799V48.5787H120.837V48.5407ZM123.601 48.5407H123.639V48.5028H123.601V48.5407ZM123.601 50.3566V50.3946H123.639V50.3566H123.601ZM120.837 50.3566V50.3186H120.799V50.3566H120.837ZM120.944 53.0204L120.909 53.0351V53.0354L120.944 53.0204ZM121.678 53.7547L121.663 53.7894L121.663 53.7897L121.678 53.7547ZM123.601 53.8615H123.639V53.8236H123.601V53.8615ZM123.601 55.6774V55.7154H123.639V55.6774H123.601ZM122.219 55.6394C121.783 55.6394 121.374 55.558 120.992 55.3954L120.962 55.4653C121.354 55.6321 121.774 55.7154 122.219 55.7154V55.6394ZM120.993 55.3956C120.609 55.2283 120.273 55.0017 119.982 54.7157L119.929 54.7699C120.226 55.0624 120.57 55.2943 120.962 55.4652L120.993 55.3956ZM119.982 54.7161C119.697 54.4258 119.47 54.0892 119.303 53.7061L119.234 53.7365C119.404 54.1279 119.636 54.4722 119.929 54.7694L119.982 54.7161ZM119.303 53.7064C119.141 53.3241 119.059 52.9153 119.059 52.4796H118.983C118.983 52.9251 119.066 53.344 119.234 53.7362L119.303 53.7064ZM119.059 52.4796V50.3566H118.983V52.4796H119.059ZM119.021 50.3186H118.133V50.3946H119.021V50.3186ZM118.171 50.3566V48.5407H118.095V50.3566H118.171ZM118.133 48.5787H119.021V48.5028H118.133V48.5787ZM119.059 48.5407V45.6834H118.983V48.5407H119.059ZM119.021 45.7214H120.837V45.6454H119.021V45.7214ZM120.799 45.6834V48.5407H120.875V45.6834H120.799ZM120.837 48.5787H123.601V48.5028H120.837V48.5787ZM123.563 48.5407V50.3566H123.639V48.5407H123.563ZM123.601 50.3186H120.837V50.3946H123.601V50.3186ZM120.799 50.3566V52.4796H120.875V50.3566H120.799ZM120.799 52.4796C120.799 52.6758 120.835 52.8611 120.909 53.0351L120.979 53.0056C120.91 52.8413 120.875 52.6661 120.875 52.4796H120.799ZM120.909 53.0354C120.982 53.2044 121.082 53.3531 121.211 53.4811L121.265 53.4274C121.143 53.3063 121.048 53.1656 120.979 53.0053L120.909 53.0354ZM121.211 53.4811C121.339 53.6092 121.489 53.7119 121.663 53.7894L121.694 53.72C121.528 53.6462 121.385 53.5486 121.265 53.4274L121.211 53.4811ZM121.663 53.7897C121.837 53.863 122.023 53.8995 122.219 53.8995V53.8236C122.033 53.8236 121.857 53.7889 121.693 53.7197L121.663 53.7897ZM122.219 53.8995H123.601V53.8236H122.219V53.8995ZM123.563 53.8615V55.6774H123.639V53.8615H123.563ZM123.601 55.6394H122.219V55.7154H123.601V55.6394ZM129.883 54.8429L129.914 54.8207L129.889 54.7862L129.858 54.8148L129.883 54.8429ZM129.409 55.2234L129.431 55.2545V55.2544L129.409 55.2234ZM128.889 55.5305L128.905 55.565L128.905 55.5647L128.889 55.5305ZM128.321 55.7308L128.311 55.694L128.311 55.6943L128.321 55.7308ZM125.47 54.9163L125.443 54.9432L125.444 54.9436L125.47 54.9163ZM124.782 53.8682L124.747 53.8822V53.8827L124.782 53.8682ZM124.535 48.5274V48.4894H124.497V48.5274H124.535ZM126.352 48.5274H126.39V48.4894H126.352V48.5274ZM126.458 53.1272L126.423 53.1404V53.1409V53.1414L126.458 53.1272ZM127.192 53.8949L127.178 53.9301L127.179 53.9302L127.192 53.8949ZM128.26 53.8682L128.278 53.902L128.279 53.9018L128.26 53.8682ZM128.995 53.0404L129.031 53.0545V53.0542L128.995 53.0404ZM129.102 48.5274V48.4894H129.064V48.5274H129.102ZM130.924 48.5274H130.962V48.4894H130.924V48.5274ZM130.924 55.6774V55.7154H130.962V55.6774H130.924ZM130.484 55.6774L130.453 55.6996L130.465 55.7154H130.484V55.6774ZM129.858 54.8148C129.712 54.9472 129.555 55.0732 129.387 55.1925L129.431 55.2544C129.601 55.1334 129.761 55.0056 129.909 54.871L129.858 54.8148ZM129.387 55.1923C129.224 55.3069 129.053 55.4083 128.872 55.4964L128.905 55.5647C129.089 55.4747 129.265 55.3714 129.431 55.2545L129.387 55.1923ZM128.873 55.4961C128.692 55.5796 128.505 55.6456 128.311 55.694L128.33 55.7676C128.529 55.7181 128.72 55.6506 128.905 55.565L128.873 55.4961ZM128.311 55.6943C128.123 55.7467 127.93 55.773 127.733 55.773V55.8489C127.937 55.8489 128.137 55.8217 128.331 55.7674L128.311 55.6943ZM127.733 55.773C127.297 55.773 126.888 55.6959 126.506 55.542L126.478 55.6125C126.87 55.7701 127.288 55.8489 127.733 55.8489V55.773ZM126.506 55.542C126.123 55.3881 125.786 55.1704 125.496 54.8891L125.444 54.9436C125.741 55.2319 126.086 55.4549 126.478 55.6125L126.506 55.542ZM125.497 54.8895C125.211 54.604 124.985 54.259 124.818 53.8537L124.747 53.8827C124.918 54.2964 125.15 54.6501 125.443 54.9432L125.497 54.8895ZM124.818 53.8542C124.655 53.4453 124.573 52.9873 124.573 52.4796H124.497C124.497 52.9955 124.58 53.4632 124.747 53.8822L124.818 53.8542ZM124.573 52.4796V48.5274H124.497V52.4796H124.573ZM124.535 48.5654H126.352V48.4894H124.535V48.5654ZM126.314 48.5274V52.4796H126.39V48.5274H126.314ZM126.314 52.4796C126.314 52.7237 126.349 52.9441 126.423 53.1404L126.494 53.1139C126.424 52.9275 126.39 52.7162 126.39 52.4796H126.314ZM126.423 53.1414C126.5 53.3323 126.603 53.4946 126.731 53.6275L126.786 53.5748C126.665 53.4496 126.567 53.2959 126.494 53.1129L126.423 53.1414ZM126.731 53.6275C126.86 53.7604 127.009 53.8613 127.178 53.9301L127.207 53.8597C127.047 53.7949 126.907 53.7001 126.786 53.5748L126.731 53.6275ZM127.179 53.9302C127.353 53.9988 127.537 54.0331 127.733 54.0331V53.9571C127.546 53.9571 127.371 53.9245 127.207 53.8596L127.179 53.9302ZM127.733 54.0331C127.926 54.0331 128.108 53.9893 128.278 53.902L128.244 53.8344C128.084 53.9162 127.914 53.9571 127.733 53.9571V54.0331ZM128.279 53.9018C128.452 53.8107 128.602 53.692 128.73 53.5461L128.673 53.496C128.551 53.6349 128.408 53.7478 128.243 53.8346L128.279 53.9018ZM128.73 53.5461C128.857 53.4003 128.958 53.2364 129.031 53.0545L128.96 53.0263C128.89 53.2003 128.794 53.3569 128.673 53.496L128.73 53.5461ZM129.031 53.0542C129.104 52.8674 129.14 52.6758 129.14 52.4796H129.064C129.064 52.6661 129.029 52.8484 128.96 53.0265L129.031 53.0542ZM129.14 52.4796V48.5274H129.064V52.4796H129.14ZM129.102 48.5654H130.924V48.4894H129.102V48.5654ZM130.886 48.5274V55.6774H130.962V48.5274H130.886ZM130.924 55.6394H130.484V55.7154H130.924V55.6394ZM130.515 55.6552L129.914 54.8207L129.852 54.8651L130.453 55.6996L130.515 55.6552ZM134.663 55.4304L134.648 55.4652L134.648 55.4653L134.663 55.4304ZM133.641 54.7427L133.615 54.7694V54.7699L133.641 54.7427ZM132.954 53.7213L132.919 53.7362V53.7365L132.954 53.7213ZM132.707 50.3566H132.745V50.3186H132.707V50.3566ZM131.819 50.3566H131.781V50.3946H131.819V50.3566ZM131.819 48.5407V48.5028H131.781V48.5407H131.819ZM132.707 48.5407V48.5787H132.745V48.5407H132.707ZM132.707 45.6834V45.6454H132.669V45.6834H132.707ZM134.523 45.6834H134.561V45.6454H134.523V45.6834ZM134.523 48.5407H134.485V48.5787H134.523V48.5407ZM137.286 48.5407H137.324V48.5028H137.286V48.5407ZM137.286 50.3566V50.3946H137.324V50.3566H137.286ZM134.523 50.3566V50.3186H134.485V50.3566H134.523ZM134.629 53.0204L134.595 53.0351V53.0354L134.629 53.0204ZM135.364 53.7547L135.349 53.7894L135.35 53.7897L135.364 53.7547ZM137.286 53.8615H137.324V53.8236H137.286V53.8615ZM137.286 55.6774V55.7154H137.324V55.6774H137.286ZM135.905 55.6394C135.469 55.6394 135.06 55.558 134.678 55.3954L134.648 55.4653C135.04 55.6321 135.459 55.7154 135.905 55.7154V55.6394ZM134.678 55.3956C134.295 55.2283 133.959 55.0017 133.668 54.7157L133.615 54.7699C133.912 55.0624 134.257 55.2943 134.648 55.4652L134.678 55.3956ZM133.669 54.7161C133.383 54.4258 133.156 54.0892 132.989 53.7061L132.919 53.7365C133.09 54.1279 133.322 54.4722 133.615 54.7694L133.669 54.7161ZM132.989 53.7064C132.826 53.3241 132.745 52.9153 132.745 52.4796H132.669C132.669 52.9251 132.753 53.344 132.919 53.7362L132.989 53.7064ZM132.745 52.4796V50.3566H132.669V52.4796H132.745ZM132.707 50.3186H131.819V50.3946H132.707V50.3186ZM131.857 50.3566V48.5407H131.781V50.3566H131.857ZM131.819 48.5787H132.707V48.5028H131.819V48.5787ZM132.745 48.5407V45.6834H132.669V48.5407H132.745ZM132.707 45.7214H134.523V45.6454H132.707V45.7214ZM134.485 45.6834V48.5407H134.561V45.6834H134.485ZM134.523 48.5787H137.286V48.5028H134.523V48.5787ZM137.249 48.5407V50.3566H137.324V48.5407H137.249ZM137.286 50.3186H134.523V50.3946H137.286V50.3186ZM134.485 50.3566V52.4796H134.561V50.3566H134.485ZM134.485 52.4796C134.485 52.6758 134.522 52.8611 134.595 53.0351L134.664 53.0056C134.595 52.8413 134.561 52.6661 134.561 52.4796H134.485ZM134.595 53.0354C134.668 53.2044 134.768 53.3531 134.897 53.4811L134.95 53.4274C134.829 53.3063 134.734 53.1656 134.664 53.0053L134.595 53.0354ZM134.897 53.4811C135.024 53.6092 135.176 53.7119 135.349 53.7894L135.379 53.72C135.214 53.6462 135.072 53.5486 134.95 53.4274L134.897 53.4811ZM135.35 53.7897C135.523 53.863 135.709 53.8995 135.905 53.8995V53.8236C135.718 53.8236 135.543 53.7889 135.378 53.7197L135.35 53.7897ZM135.905 53.8995H137.286V53.8236H135.905V53.8995ZM137.249 53.8615V55.6774H137.324V53.8615H137.249ZM137.286 55.6394H135.905V55.7154H137.286V55.6394ZM144.937 53.5344L144.973 53.549V53.5489L144.937 53.5344ZM144.156 54.7294L144.183 54.7561V54.7559L144.156 54.7294ZM142.995 55.5239L143.01 55.5587V55.5586L142.995 55.5239ZM140.151 55.5239L140.135 55.5585L140.136 55.5588L140.151 55.5239ZM138.989 54.7294L138.962 54.7559V54.7563L138.989 54.7294ZM138.208 53.5344L138.173 53.5489V53.549L138.208 53.5344ZM138.989 49.3352L138.962 49.3085L138.989 49.3352ZM140.151 48.5407L140.136 48.5059L140.151 48.5407ZM142.995 48.5274L142.98 48.5625V48.5626L142.995 48.5274ZM144.156 49.2952L144.13 49.3218V49.322L144.156 49.2952ZM144.937 50.4901L144.902 50.5045V50.5046L144.937 50.4901ZM143.242 51.2446L143.206 51.2583L143.207 51.2591L143.242 51.2446ZM142.854 50.6304L142.827 50.6565V50.6568L142.854 50.6304ZM142.274 50.2364L142.259 50.2714L142.259 50.2717L142.274 50.2364ZM140.865 50.2364L140.879 50.2716L140.88 50.2715L140.865 50.2364ZM140.291 50.6304L140.263 50.6042L140.291 50.6304ZM139.91 51.2446L139.946 51.2585V51.2583L139.91 51.2446ZM140.291 53.4209L140.263 53.4467V53.447L140.291 53.4209ZM140.865 53.8348L140.849 53.8692L140.85 53.8696L140.865 53.8348ZM142.274 53.8415L142.259 53.8065V53.8066L142.274 53.8415ZM143.242 52.8335L143.207 52.8191L143.206 52.8196L143.242 52.8335ZM145.186 52.039C145.186 52.5684 145.092 53.0619 144.902 53.5199L144.973 53.5489C145.166 53.0812 145.262 52.5777 145.262 52.039H145.186ZM144.902 53.5197C144.713 53.974 144.455 54.3683 144.129 54.7029L144.183 54.7559C144.516 54.4141 144.779 54.0116 144.973 53.549L144.902 53.5197ZM144.13 54.7027C143.804 55.033 143.42 55.2951 142.98 55.4891L143.01 55.5586C143.46 55.361 143.851 55.0934 144.183 54.7561L144.13 54.7027ZM142.98 55.489C142.544 55.6782 142.075 55.773 141.573 55.773V55.8489C142.085 55.8489 142.564 55.7522 143.01 55.5587L142.98 55.489ZM141.573 55.773C141.075 55.773 140.606 55.6782 140.165 55.4889L140.136 55.5588C140.585 55.7522 141.065 55.8489 141.573 55.8489V55.773ZM140.166 55.4892C139.729 55.2952 139.346 55.033 139.016 54.7026L138.962 54.7563C139.299 55.0934 139.691 55.3609 140.135 55.5585L140.166 55.4892ZM139.016 54.7029C138.69 54.3683 138.433 53.974 138.243 53.5197L138.173 53.549C138.366 54.0116 138.629 54.4141 138.962 54.7559L139.016 54.7029ZM138.243 53.5199C138.054 53.0619 137.959 52.5684 137.959 52.039H137.883C137.883 52.5777 137.979 53.0812 138.173 53.5489L138.243 53.5199ZM137.959 52.039C137.959 51.5005 138.054 51.0026 138.243 50.5447L138.173 50.5157C137.979 50.9836 137.883 51.4914 137.883 52.039H137.959ZM138.243 50.5447C138.433 50.086 138.69 49.692 139.016 49.3619L138.962 49.3085C138.629 49.646 138.366 50.0486 138.173 50.5157L138.243 50.5447ZM139.016 49.3619C139.346 49.0271 139.729 48.7651 140.166 48.5756L140.136 48.5059C139.691 48.6992 139.299 48.9668 138.962 49.3085L139.016 49.3619ZM140.165 48.5756C140.606 48.3864 141.075 48.2917 141.573 48.2917V48.2157C141.065 48.2157 140.585 48.3123 140.136 48.5059L140.165 48.5756ZM141.573 48.2917C142.076 48.2917 142.544 48.382 142.98 48.5625L143.009 48.4923C142.563 48.3078 142.085 48.2157 141.573 48.2157V48.2917ZM142.98 48.5626C143.421 48.7388 143.804 48.9918 144.13 49.3218L144.183 49.2684C143.85 48.9309 143.459 48.6721 143.008 48.4921L142.98 48.5626ZM144.13 49.322C144.455 49.6475 144.713 50.0415 144.902 50.5045L144.973 50.4757C144.78 50.0042 144.516 49.6015 144.183 49.2683L144.13 49.322ZM144.902 50.5046C145.091 50.9623 145.186 51.4736 145.186 52.039H145.262C145.262 51.465 145.166 50.9437 144.973 50.4756L144.902 50.5046ZM143.426 52.039C143.426 51.7409 143.377 51.4711 143.277 51.23L143.207 51.2591C143.302 51.4897 143.35 51.7494 143.35 52.039H143.426ZM143.277 51.2307C143.182 50.9861 143.05 50.777 142.882 50.6038L142.827 50.6568C142.988 50.822 143.115 51.0222 143.206 51.2583L143.277 51.2307ZM142.882 50.6042C142.714 50.4266 142.515 50.2923 142.288 50.2012L142.259 50.2717C142.477 50.3587 142.666 50.4869 142.827 50.6565L142.882 50.6042ZM142.288 50.2016C142.066 50.1059 141.827 50.0582 141.573 50.0582V50.1342C141.817 50.1342 142.045 50.18 142.259 50.2714L142.288 50.2016ZM141.573 50.0582C141.318 50.0582 141.078 50.1059 140.85 50.2014L140.88 50.2715C141.097 50.18 141.328 50.1342 141.573 50.1342V50.0582ZM140.85 50.2013C140.627 50.2923 140.432 50.4268 140.263 50.6042L140.319 50.6565C140.48 50.4867 140.667 50.3586 140.879 50.2716L140.85 50.2013ZM140.263 50.6042C140.099 50.7773 139.97 50.9863 139.875 51.2307L139.946 51.2583C140.038 51.0221 140.162 50.8216 140.319 50.6565L140.263 50.6042ZM139.875 51.2305C139.779 51.4715 139.732 51.7412 139.732 52.039H139.808C139.808 51.7493 139.854 51.4893 139.946 51.2585L139.875 51.2305ZM139.732 52.039C139.732 52.3193 139.779 52.58 139.875 52.8207L139.946 52.7927C139.854 52.5617 139.808 52.3106 139.808 52.039H139.732ZM139.875 52.8207C139.97 53.0606 140.099 53.2694 140.263 53.4467L140.319 53.3952C140.162 53.2252 140.038 53.0246 139.946 52.7927L139.875 52.8207ZM140.263 53.447C140.431 53.6241 140.626 53.7648 140.849 53.8692L140.881 53.8005C140.667 53.7001 140.48 53.5648 140.319 53.3948L140.263 53.447ZM140.85 53.8696C141.078 53.9697 141.318 54.0197 141.573 54.0197V53.9437C141.328 53.9437 141.098 53.8958 140.88 53.8001L140.85 53.8696ZM141.573 54.0197C141.827 54.0197 142.066 53.972 142.288 53.8764L142.259 53.8066C142.045 53.8979 141.817 53.9437 141.573 53.9437V54.0197ZM142.288 53.8765C142.515 53.7811 142.714 53.647 142.882 53.4741L142.827 53.4211C142.666 53.5865 142.477 53.7149 142.259 53.8065L142.288 53.8765ZM142.882 53.4741C143.05 53.301 143.182 53.0919 143.277 52.8472L143.206 52.8196C143.115 53.0557 142.988 53.256 142.827 53.4211L142.882 53.4741ZM143.277 52.8477C143.377 52.6024 143.426 52.3326 143.426 52.039H143.35C143.35 52.3239 143.302 52.5838 143.207 52.8191L143.277 52.8477ZM148.055 55.6774V55.7154H148.093V55.6774H148.055ZM146.233 55.6774H146.195V55.7154H146.233V55.6774ZM146.233 48.5274V48.4894H146.195V48.5274H146.233ZM146.673 48.5274L146.704 48.5054L146.693 48.4894H146.673V48.5274ZM147.274 49.3752L147.243 49.3972L147.268 49.4322L147.299 49.4033L147.274 49.3752ZM148.275 48.761L148.289 48.7966V48.7964L148.275 48.761ZM151.046 48.5407H151.084V48.5028H151.046V48.5407ZM151.046 50.3566V50.3946H151.084V50.3566H151.046ZM148.055 55.6394H146.233V55.7154H148.055V55.6394ZM146.271 55.6774V48.5274H146.195V55.6774H146.271ZM146.233 48.5654H146.673V48.4894H146.233V48.5654ZM146.642 48.5493L147.243 49.3972L147.305 49.3533L146.704 48.5054L146.642 48.5493ZM147.299 49.4033C147.589 49.1395 147.919 48.9373 148.289 48.7966L148.262 48.7256C147.883 48.8696 147.545 49.0769 147.248 49.3471L147.299 49.4033ZM148.289 48.7964C148.659 48.6513 149.041 48.5787 149.437 48.5787V48.5028C149.032 48.5028 148.64 48.5771 148.262 48.7257L148.289 48.7964ZM149.437 48.5787H151.046V48.5028H149.437V48.5787ZM151.008 48.5407V50.3566H151.084V48.5407H151.008ZM151.046 50.3186H149.437V50.3946H151.046V50.3186ZM149.437 50.3186C149.241 50.3186 149.055 50.3552 148.882 50.4285L148.911 50.4984C149.075 50.4293 149.251 50.3946 149.437 50.3946V50.3186ZM148.882 50.4285C148.708 50.5015 148.557 50.6021 148.429 50.7303L148.483 50.784C148.604 50.663 148.746 50.5678 148.911 50.4984L148.882 50.4285ZM148.429 50.7303C148.3 50.8585 148.2 51.0096 148.127 51.183L148.197 51.2125C148.266 51.0477 148.361 50.905 148.483 50.784L148.429 50.7303ZM148.127 51.183C148.054 51.357 148.017 51.5423 148.017 51.7386H148.093C148.093 51.552 148.128 51.3768 148.197 51.2125L148.127 51.183ZM148.017 51.7386V55.6774H148.093V51.7386H148.017ZM151.573 55.6774H151.535V55.7154H151.573V55.6774ZM151.573 53.8615V53.8236H151.535V53.8615H151.573ZM152.234 52.4262L152.207 52.4527L152.208 52.4531L152.234 52.4262ZM151.747 51.6985L151.712 51.7132L151.712 51.7137L151.747 51.6985ZM151.747 49.9227L151.712 49.9075V49.908L151.747 49.9227ZM152.955 48.721L152.97 48.756V48.7558L152.955 48.721ZM157.535 48.5407H157.573V48.5028H157.535V48.5407ZM157.535 50.3566V50.3946H157.573V50.3566H157.535ZM153.523 51.1444L153.495 51.1706L153.496 51.1713L153.523 51.1444ZM156.62 51.4381L156.606 51.4736L156.607 51.4737L156.62 51.4381ZM157.829 54.2955L157.864 54.3108V54.3106L157.829 54.2955ZM157.342 55.0165L157.368 55.0433V55.0431L157.342 55.0165ZM156.62 55.5038L156.635 55.5389V55.5386L156.62 55.5038ZM155.739 55.6394H151.573V55.7154H155.739V55.6394ZM151.611 55.6774V53.8615H151.535V55.6774H151.611ZM151.573 53.8995H155.739V53.8236H151.573V53.8995ZM155.739 53.8995C155.874 53.8995 155.99 53.8509 156.086 53.7548L156.033 53.7011C155.951 53.7832 155.854 53.8236 155.739 53.8236V53.8995ZM156.086 53.7548C156.183 53.6588 156.231 53.5424 156.231 53.4075H156.155C156.155 53.522 156.115 53.6192 156.033 53.7011L156.086 53.7548ZM156.231 53.4075C156.231 53.2693 156.183 53.1675 156.076 53.1192L156.044 53.1885C156.115 53.2204 156.155 53.2877 156.155 53.4075H156.231ZM156.076 53.1192C155.98 53.0764 155.867 53.0558 155.739 53.0558V53.1317C155.86 53.1317 155.961 53.1512 156.044 53.1885L156.076 53.1192ZM155.739 53.0558H153.843V53.1317H155.739V53.0558ZM153.843 53.0558C153.532 53.0558 153.241 52.9967 152.97 52.8787L152.94 52.9484C153.221 53.0707 153.523 53.1317 153.843 53.1317V53.0558ZM152.97 52.8787C152.698 52.7604 152.462 52.6006 152.261 52.3993L152.208 52.4531C152.416 52.6613 152.66 52.8264 152.94 52.9484L152.97 52.8787ZM152.262 52.3997C152.06 52.1938 151.9 51.9551 151.782 51.6834L151.712 51.7137C151.834 51.9937 151.999 52.2401 152.207 52.4527L152.262 52.3997ZM151.782 51.6838C151.668 51.4128 151.611 51.1218 151.611 50.8106H151.535C151.535 51.1314 151.594 51.4323 151.712 51.7132L151.782 51.6838ZM151.611 50.8106C151.611 50.4993 151.668 50.2084 151.782 49.9374L151.712 49.908C151.594 50.1888 151.535 50.4898 151.535 50.8106H151.611ZM151.782 49.9378C151.9 49.6661 152.06 49.4298 152.261 49.2285L152.208 49.1748C151.999 49.383 151.834 49.6274 151.712 49.9075L151.782 49.9378ZM152.261 49.2285C152.462 49.0274 152.698 48.8699 152.97 48.756L152.941 48.686C152.66 48.8036 152.416 48.9665 152.208 49.1748L152.261 49.2285ZM152.97 48.7558C153.241 48.6378 153.532 48.5787 153.843 48.5787V48.5028C153.523 48.5028 153.221 48.5638 152.94 48.6862L152.97 48.7558ZM153.843 48.5787H157.535V48.5028H153.843V48.5787ZM157.497 48.5407V50.3566H157.573V48.5407H157.497ZM157.535 50.3186H153.843V50.3946H157.535V50.3186ZM153.843 50.3186C153.709 50.3186 153.592 50.3672 153.496 50.4632L153.55 50.517C153.632 50.435 153.728 50.3946 153.843 50.3946V50.3186ZM153.496 50.4632C153.399 50.5593 153.351 50.6758 153.351 50.8106H153.427C153.427 50.6961 153.468 50.599 153.55 50.517L153.496 50.4632ZM153.351 50.8106C153.351 50.9494 153.399 51.0701 153.495 51.1706L153.55 51.1182C153.468 51.0318 153.427 50.9299 153.427 50.8106H153.351ZM153.496 51.1713C153.592 51.2673 153.709 51.3159 153.843 51.3159V51.2399C153.728 51.2399 153.632 51.1995 153.55 51.1176L153.496 51.1713ZM153.843 51.3159H155.739V51.2399H153.843V51.3159ZM155.739 51.3159C156.047 51.3159 156.335 51.3685 156.606 51.4736L156.634 51.4027C156.354 51.2941 156.055 51.2399 155.739 51.2399V51.3159ZM156.607 51.4737C156.879 51.5745 157.115 51.7167 157.316 51.9001L157.367 51.844C157.159 51.6536 156.914 51.5065 156.634 51.4025L156.607 51.4737ZM157.316 51.9001C157.516 52.0834 157.676 52.304 157.794 52.5621L157.864 52.5305C157.741 52.2635 157.576 52.0345 157.367 51.844L157.316 51.9001ZM157.794 52.5621C157.912 52.8194 157.971 53.101 157.971 53.4075H158.047C158.047 53.091 157.986 52.7985 157.864 52.5305L157.794 52.5621ZM157.971 53.4075C157.971 53.7186 157.912 54.0094 157.794 54.2803L157.864 54.3106C157.986 54.0296 158.047 53.7285 158.047 53.4075H157.971ZM157.794 54.2801C157.676 54.5475 157.516 54.7841 157.314 54.9899L157.368 55.0431C157.576 54.8305 157.741 54.5864 157.864 54.3108L157.794 54.2801ZM157.314 54.9896C157.113 55.1909 156.877 55.3506 156.605 55.469L156.635 55.5386C156.916 55.4166 157.16 55.2516 157.368 55.0433L157.314 54.9896ZM156.606 55.4688C156.335 55.5825 156.046 55.6394 155.739 55.6394V55.7154C156.056 55.7154 156.354 55.6566 156.635 55.5389L156.606 55.4688Z" fill="#A0A0A0"/>
<defs>
<linearGradient id="paint0_linear" x1="-10.4175" y1="25.7115" x2="99.5212" y2="28.3712" gradientUnits="userSpaceOnUse">
<stop stop-color="#7381FF"/>
<stop offset="1" stop-color="#69591E"/>
</linearGradient>
</defs>
</svg>
