<svg width="140" height="151" viewBox="0 0 140 151" fill="none" xmlns="http://www.w3.org/2000/svg">
<path opacity="0.1" d="M24.928 142.986C23.514 143.342 22.035 142.926 20.5786 142.909C19.1223 142.891 17.4232 143.515 17.0662 144.955C16.5868 146.888 18.8039 148.345 20.7022 148.827C28.07 150.696 35.8694 148.27 43.3997 149.26C46.573 149.677 49.6589 150.697 52.8496 150.94C60.1525 151.497 67.288 147.957 74.6009 148.356C78.2645 148.556 81.8255 149.742 85.4897 149.932C94.2567 150.388 102.906 145.141 111.488 147.021C113.912 147.552 116.187 148.634 118.588 149.261C124.659 150.845 131.05 149.433 137.162 148.02C138.375 147.739 139.838 147.193 139.988 145.934C140.153 144.545 138.588 143.673 137.286 143.229C123.046 138.375 107.801 135.803 92.9485 138.047C89.5685 138.557 86.1983 139.316 82.7818 139.266C75.22 139.155 68.2714 135.134 60.8477 133.663C46.781 130.876 32.7166 137.378 19.8033 143.711" fill="#6C63FF"/>
<path d="M44.3214 103H40V139.039C40 139.039 67.8929 147.952 95 139.039V103H44.3214Z" fill="#3F3D56"/>
<path d="M67 107C81.9117 107 94 105.209 94 103C94 100.791 81.9117 99 67 99C52.0883 99 40 100.791 40 103C40 105.209 52.0883 107 67 107Z" fill="#3F3D56"/>
<path opacity="0.1" d="M67 107C81.9117 107 94 105.209 94 103C94 100.791 81.9117 99 67 99C52.0883 99 40 100.791 40 103C40 105.209 52.0883 107 67 107Z" fill="black"/>
<path d="M98.9292 59.308C92.0718 84.437 68.5835 100 68.5835 100C68.5835 100 56.2134 74.8209 63.0708 49.692C69.9283 24.563 93.4165 9 93.4165 9C93.4165 9 105.787 34.1791 98.9292 59.308Z" fill="#3F3D56"/>
<path d="M37.0191 59.308C43.705 84.437 66.606 100 66.606 100C66.606 100 78.6669 74.8209 71.9809 49.692C65.295 24.563 42.394 9 42.394 9C42.394 9 30.3331 34.1791 37.0191 59.308Z" fill="#6C63FF"/>
<path d="M46.9288 53.7579C65.7064 71.9833 68 100 68 100C68 100 39.8489 98.4675 21.0712 80.2421C2.29356 62.0167 0 34 0 34C0 34 28.1511 35.5325 46.9288 53.7579Z" fill="#3F3D56"/>
<path d="M88.7614 53.7579C70.2598 71.9833 68 100 68 100C68 100 95.7371 98.4675 114.239 80.2421C132.74 62.0167 135 34 135 34C135 34 107.263 35.5325 88.7614 53.7579Z" fill="#3F3D56"/>
<path d="M67.5 17C72.1944 17 76 13.1944 76 8.5C76 3.80558 72.1944 0 67.5 0C62.8056 0 59 3.80558 59 8.5C59 13.1944 62.8056 17 67.5 17Z" fill="#6C63FF"/>
<path d="M16.2001 69.4469C16.8759 71.656 19.2235 73 19.2235 73C19.2235 73 20.4756 70.7622 19.7999 68.5531C19.1241 66.344 16.7765 65 16.7765 65C16.7765 65 15.5244 67.2378 16.2001 69.4469Z" fill="#6C63FF"/>
<path d="M27.2315 82.0765C26.5125 84.0095 27.6981 86 27.6981 86C27.6981 86 30.0495 84.8565 30.7685 82.9235C31.4875 80.9905 30.3019 79 30.3019 79C30.3019 79 27.9505 80.1435 27.2315 82.0765Z" fill="#6C63FF"/>
<path d="M109.766 96.5013C108.109 97.882 108 100 108 100C108 100 110.577 99.8794 112.234 98.4987C113.891 97.118 114 95 114 95C114 95 111.423 95.1206 109.766 96.5013Z" fill="#6C63FF"/>
<path d="M7.20013 91.0028C7.87586 93.488 10.2235 95 10.2235 95C10.2235 95 11.4756 92.4825 10.7999 89.9972C10.1241 87.512 7.77649 86 7.77649 86C7.77649 86 6.5244 88.5175 7.20013 91.0028Z" fill="#6C63FF"/>
</svg>
